<svg width="20" height="19" viewBox="0 0 20 19" fill="none" xmlns="http://www.w3.org/2000/svg">
<g id="Heart Icon" clip-path="url(#clip0_64_436)">
<path id="Vector" d="M9.99984 17.8915C9.73409 17.8915 9.47788 17.7952 9.27822 17.6204C8.52413 16.961 7.7971 16.3413 7.15566 15.7947L7.15238 15.7919C5.27179 14.1893 3.64783 12.8053 2.5179 11.442C1.25482 9.91783 0.666504 8.47274 0.666504 6.89406C0.666504 5.36025 1.19244 3.94521 2.14734 2.90942C3.11363 1.86139 4.43951 1.28418 5.88118 1.28418C6.9587 1.28418 7.9455 1.62484 8.81409 2.29661C9.25244 2.6357 9.64978 3.0507 9.99984 3.53477C10.35 3.0507 10.7472 2.6357 11.1857 2.29661C12.0543 1.62484 13.0411 1.28418 14.1186 1.28418C15.5602 1.28418 16.8862 1.86139 17.8525 2.90942C18.8074 3.94521 19.3332 5.36025 19.3332 6.89406C19.3332 8.47274 18.745 9.91783 17.4819 11.4418C16.352 12.8053 14.7282 14.1891 12.8479 15.7916C12.2053 16.339 11.4771 16.9597 10.7213 17.6206C10.5218 17.7952 10.2654 17.8915 9.99984 17.8915ZM5.88118 2.37764C4.74856 2.37764 3.70807 2.82967 2.95113 3.65055C2.18294 4.48383 1.75983 5.63568 1.75983 6.89406C1.75983 8.2218 2.2533 9.40926 3.35972 10.7443C4.42912 12.0347 6.01975 13.3902 7.86147 14.9598L7.86489 14.9626C8.50875 15.5113 9.23863 16.1334 9.99827 16.7976C10.7625 16.1321 11.4935 15.5091 12.1386 14.9595C13.9802 13.3899 15.5707 12.0347 16.6401 10.7443C17.7464 9.40926 18.2398 8.2218 18.2398 6.89406C18.2398 5.63568 17.8167 4.48383 17.0485 3.65055C16.2917 2.82967 15.2511 2.37764 14.1186 2.37764C13.2889 2.37764 12.5271 2.6414 11.8545 3.1615C11.2551 3.6252 10.8375 4.21139 10.5927 4.62154C10.4668 4.83246 10.2452 4.95835 9.99984 4.95835C9.75446 4.95835 9.53286 4.83246 9.40696 4.62154C9.16229 4.21139 8.74473 3.6252 8.14516 3.1615C7.47253 2.6414 6.71075 2.37764 5.88118 2.37764Z" fill="white"/>
</g>
<defs>
<clipPath id="clip0_64_436">
<rect width="18.6667" height="18.6667" fill="white" transform="translate(0.666504 0.263428)"/>
</clipPath>
</defs>
</svg>
