<svg width="19" height="19" viewBox="0 0 19 19" fill="none" xmlns="http://www.w3.org/2000/svg">
<g clip-path="url(#clip0_79_2095)">
<path d="M9.33333 17.6281C9.06759 17.6281 8.81138 17.5318 8.61171 17.3569C7.85763 16.6975 7.13059 16.0779 6.48916 15.5313L6.48588 15.5285C4.60529 13.9259 2.98132 12.5419 1.8514 11.1785C0.588318 9.6544 0 8.20931 0 6.63064C0 5.09682 0.52594 3.68178 1.48083 2.646C2.44712 1.59796 3.77301 1.02075 5.21468 1.02075C6.2922 1.02075 7.27899 1.36141 8.14758 2.03318C8.58594 2.37227 8.98328 2.78727 9.33333 3.27134C9.68353 2.78727 10.0807 2.37227 10.5192 2.03318C11.3878 1.36141 12.3746 1.02075 13.4521 1.02075C14.8937 1.02075 16.2197 1.59796 17.186 2.646C18.1409 3.68178 18.6667 5.09682 18.6667 6.63064C18.6667 8.20931 18.0785 9.6544 16.8154 11.1784C15.6855 12.5419 14.0617 13.9257 12.1814 15.5282C11.5388 16.0756 10.8106 16.6963 10.0548 17.3572C9.85529 17.5318 9.59894 17.6281 9.33333 17.6281ZM5.21468 2.11422C4.08205 2.11422 3.04156 2.56624 2.28463 3.38713C1.51644 4.2204 1.09332 5.37225 1.09332 6.63064C1.09332 7.95837 1.58679 9.14583 2.69322 10.4808C3.76261 11.7713 5.35325 13.1268 7.19497 14.6963L7.19838 14.6992C7.84224 15.2479 8.57212 15.87 9.33177 16.5342C10.096 15.8687 10.827 15.2456 11.4721 14.696C13.3137 13.1265 14.9042 11.7713 15.9736 10.4808C17.0799 9.14583 17.5733 7.95837 17.5733 6.63064C17.5733 5.37225 17.1502 4.2204 16.382 3.38713C15.6252 2.56624 14.5846 2.11422 13.4521 2.11422C12.6224 2.11422 11.8606 2.37797 11.188 2.89807C10.5886 3.36178 10.171 3.94796 9.92621 4.35811C9.80031 4.56903 9.57871 4.69493 9.33333 4.69493C9.08795 4.69493 8.86635 4.56903 8.74046 4.35811C8.49579 3.94796 8.07823 3.36178 7.47866 2.89807C6.80603 2.37797 6.04425 2.11422 5.21468 2.11422Z" fill="#222222"/>
</g>
<defs>
<clipPath id="clip0_79_2095">
<rect width="18.6667" height="18.6667" fill="white"/>
</clipPath>
</defs>
</svg>
