<svg width="19" height="19" viewBox="0 0 19 19" fill="none" xmlns="http://www.w3.org/2000/svg">
<g clip-path="url(#clip0_79_2102)">
<path d="M14.3946 12.556C13.5002 12.556 12.6945 12.9423 12.1352 13.5566L7.10495 10.4412C7.23925 10.0974 7.31373 9.72396 7.31373 9.33331C7.31373 8.94253 7.23925 8.56911 7.10495 8.22547L12.1352 5.10985C12.6945 5.72423 13.5002 6.1106 14.3946 6.1106C16.0794 6.1106 17.45 4.74 17.45 3.05523C17.45 1.37046 16.0794 0 14.3946 0C12.7098 0 11.3392 1.3706 11.3392 3.05537C11.3392 3.44602 11.4139 3.81943 11.548 4.16322L6.51791 7.27869C5.95865 6.66431 5.15286 6.27794 4.2585 6.27794C2.57373 6.27794 1.20312 7.64869 1.20312 9.33331C1.20312 11.0181 2.57373 12.3887 4.2585 12.3887C5.15286 12.3887 5.95865 12.0025 6.51791 11.3879L11.548 14.5034C11.4139 14.8472 11.3392 15.2206 11.3392 15.6114C11.3392 17.296 12.7098 18.6666 14.3946 18.6666C16.0794 18.6666 17.45 17.296 17.45 15.6114C17.45 13.9266 16.0794 12.556 14.3946 12.556ZM12.4533 3.05537C12.4533 1.98498 13.3242 1.11411 14.3946 1.11411C15.465 1.11411 16.3359 1.98498 16.3359 3.05537C16.3359 4.12576 15.465 4.99663 14.3946 4.99663C13.3242 4.99663 12.4533 4.12576 12.4533 3.05537ZM4.2585 11.2746C3.18796 11.2746 2.3171 10.4037 2.3171 9.33331C2.3171 8.26292 3.18796 7.39205 4.2585 7.39205C5.32889 7.39205 6.19962 8.26292 6.19962 9.33331C6.19962 10.4037 5.32889 11.2746 4.2585 11.2746ZM12.4533 15.6113C12.4533 14.5409 13.3242 13.67 14.3946 13.67C15.465 13.67 16.3359 14.5409 16.3359 15.6113C16.3359 16.6816 15.465 17.5525 14.3946 17.5525C13.3242 17.5525 12.4533 16.6816 12.4533 15.6113Z" fill="white"/>
</g>
<defs>
<clipPath id="clip0_79_2102">
<rect width="18.6667" height="18.6667" fill="white"/>
</clipPath>
</defs>
</svg>
