<svg width="20" height="19" viewBox="0 0 20 19" fill="none" xmlns="http://www.w3.org/2000/svg">
<g clip-path="url(#clip0_64_440)">
<path d="M15.0611 12.8195C14.1667 12.8195 13.361 13.2057 12.8017 13.8201L7.77145 10.7046C7.90575 10.3608 7.98023 9.98739 7.98023 9.59674C7.98023 9.20595 7.90575 8.83254 7.77145 8.48889L12.8017 5.37328C13.361 5.98766 14.1667 6.37403 15.0611 6.37403C16.7459 6.37403 18.1165 5.00343 18.1165 3.31866C18.1165 1.63389 16.7459 0.263428 15.0611 0.263428C13.3763 0.263428 12.0057 1.63403 12.0057 3.3188C12.0057 3.70945 12.0804 4.08286 12.2145 4.42665L7.18442 7.54212C6.62515 6.92774 5.81937 6.54137 4.925 6.54137C3.24023 6.54137 1.86963 7.91211 1.86963 9.59674C1.86963 11.2815 3.24023 12.6521 4.925 12.6521C5.81937 12.6521 6.62515 12.2659 7.18442 11.6514L12.2145 14.7668C12.0804 15.1106 12.0057 15.484 12.0057 15.8748C12.0057 17.5595 13.3763 18.9301 15.0611 18.9301C16.7459 18.9301 18.1165 17.5595 18.1165 15.8748C18.1165 14.1901 16.7459 12.8195 15.0611 12.8195ZM13.1198 3.3188C13.1198 2.24841 13.9907 1.37754 15.0611 1.37754C16.1315 1.37754 17.0024 2.24841 17.0024 3.3188C17.0024 4.38919 16.1315 5.26006 15.0611 5.26006C13.9907 5.26006 13.1198 4.38919 13.1198 3.3188ZM4.925 11.538C3.85447 11.538 2.9836 10.6671 2.9836 9.59674C2.9836 8.52635 3.85447 7.65548 4.925 7.65548C5.99539 7.65548 6.86612 8.52635 6.86612 9.59674C6.86612 10.6671 5.99539 11.538 4.925 11.538ZM13.1198 15.8747C13.1198 14.8043 13.9907 13.9334 15.0611 13.9334C16.1315 13.9334 17.0024 14.8043 17.0024 15.8747C17.0024 16.9451 16.1315 17.8159 15.0611 17.8159C13.9907 17.8159 13.1198 16.9451 13.1198 15.8747Z" fill="#222222"/>
</g>
<defs>
<clipPath id="clip0_64_440">
<rect width="18.6667" height="18.6667" fill="white" transform="translate(0.666504 0.263428)"/>
</clipPath>
</defs>
</svg>
