<svg width="18" height="21" viewBox="0 0 18 21" fill="none" xmlns="http://www.w3.org/2000/svg">
<g id="Cart Icon">
<path id="Vector" d="M3.50069 20.2983H14.4993C16.4297 20.2983 18 18.7414 18 16.8276V6.45219C18 6.11372 17.7207 5.8368 17.3793 5.8368H13.6552V4.91372C13.6552 2.36911 11.5666 0.29834 9 0.29834C6.43345 0.29834 4.34483 2.36911 4.34483 4.91372V5.8368H0.62069C0.27931 5.8368 0 6.11372 0 6.45219V16.8276C0 18.7414 1.57034 20.2983 3.50069 20.2983ZM5.58621 4.91372C5.58621 3.04603 7.11621 1.52911 9 1.52911C10.8838 1.52911 12.4138 3.04603 12.4138 4.91372V5.8368H5.58621V4.91372ZM1.24138 7.06757H4.34483V8.60603C4.34483 8.94449 4.62414 9.22142 4.96552 9.22142C5.3069 9.22142 5.58621 8.94449 5.58621 8.60603V7.06757H12.4138V8.60603C12.4138 8.94449 12.6931 9.22142 13.0345 9.22142C13.3759 9.22142 13.6552 8.94449 13.6552 8.60603V7.06757H16.7586V16.8276C16.7586 18.0614 15.7438 19.0676 14.4993 19.0676H3.50069C2.25621 19.0676 1.24138 18.0614 1.24138 16.8276V7.06757Z" fill="#222222"/>
</g>
</svg>
