<svg width="108" height="31" viewBox="0 0 108 31" fill="none" xmlns="http://www.w3.org/2000/svg">
<g id="Logo">
<g id="Terra">
<path d="M35.6191 5.98837V2.33936H53.9783V5.98837H46.8916V27.5876H42.7792V5.98837H35.6191Z" fill="black"/>
<path d="M65.2238 24.2703L66.2519 24.1597L66.3253 27.1453C63.5347 27.7105 61.0624 27.993 58.9082 27.993C56.1911 27.993 54.2328 27.2436 53.0333 25.7447C51.8583 24.2457 51.2709 21.8499 51.2709 18.5572C51.2709 12.0209 53.9268 8.75278 59.2387 8.75278C64.3793 8.75278 66.9495 11.5663 66.9495 17.1934L66.6925 20.0684H55.3099C55.3343 21.5919 55.6648 22.71 56.3013 23.4226C56.9377 24.1352 58.1249 24.4915 59.8629 24.4915C61.6009 24.4915 63.3879 24.4177 65.2238 24.2703ZM63.0207 16.9723C63.0207 15.1539 62.7269 13.8884 62.1394 13.1758C61.5764 12.4387 60.6095 12.0701 59.2387 12.0701C57.8679 12.0701 56.8643 12.4509 56.2278 13.2127C55.6158 13.9744 55.2976 15.2276 55.2731 16.9723H63.0207Z" fill="black"/>
<path d="M68.9621 27.5876V9.15823H72.9277V11.3698C75.0084 10.0183 77.0891 9.14594 79.1698 8.75278V12.7704C77.0646 13.1881 75.2654 13.7287 73.7722 14.3922L72.9644 14.7239V27.5876H68.9621Z" fill="black"/>
<path d="M80.3936 27.5876V9.15823H84.3591V11.3698C86.4398 10.0183 88.5205 9.14594 90.6012 8.75278V12.7704C88.4961 13.1881 86.6969 13.7287 85.2036 14.3922L84.3959 14.7239V27.5876H80.3936Z" fill="black"/>
<path d="M105.411 14.8345V23.2383C105.435 23.7789 105.57 24.1843 105.815 24.4546C106.084 24.7003 106.488 24.8601 107.026 24.9338L106.916 27.993C104.811 27.993 103.183 27.5385 102.033 26.6293C100.074 27.5385 98.1038 27.993 96.121 27.993C92.4737 27.993 90.65 26.0395 90.65 22.1325C90.65 20.265 91.1396 18.9135 92.1187 18.078C93.1224 17.2426 94.6523 16.7388 96.7085 16.5668L101.445 16.1614V14.8345C101.445 13.8516 101.225 13.1635 100.784 12.7704C100.368 12.3772 99.7439 12.1806 98.9116 12.1806C97.3449 12.1806 95.3866 12.2789 93.0367 12.4755L91.8617 12.5492L91.7148 9.71111C94.383 9.07222 96.8309 8.75278 99.0585 8.75278C101.311 8.75278 102.926 9.24423 103.905 10.2271C104.909 11.1855 105.411 12.7212 105.411 14.8345ZM97.1858 19.405C95.4968 19.5524 94.6523 20.4739 94.6523 22.1694C94.6523 23.8649 95.3989 24.7126 96.8921 24.7126C98.116 24.7126 99.4134 24.516 100.784 24.1229L101.445 23.9017V18.9995L97.1858 19.405Z" fill="black"/>
</g>
<g id="Icon">
<path id="Icon_2" fill-rule="evenodd" clip-rule="evenodd" d="M24.5116 0.223633C27.7067 0.223633 30.3725 2.49003 30.989 5.50291C31.0771 5.93332 31.1233 6.37896 31.1233 6.83541V23.7616C31.1233 27.4131 28.1631 30.3733 24.5116 30.3733H7.58541C6.8625 30.3733 6.16668 30.2573 5.51557 30.0429C2.87777 29.1742 0.973633 26.6902 0.973633 23.7616V6.83541C0.973633 3.18383 3.93383 0.223633 7.58541 0.223633H24.5116ZM21.8299 2.3394H24.5116C26.7027 2.3394 28.5278 3.90691 28.9266 5.98175C27.6541 6.12592 26.1996 5.99232 24.6637 5.33407C23.3025 4.75072 22.3997 3.66996 21.8299 2.3394ZM15.5521 2.3394H19.5707C20.2383 4.34926 21.5175 6.28757 23.8303 7.27877C25.6855 8.07387 27.4475 8.25831 29.0076 8.10338V10.2652C26.8893 10.9358 24.7786 11.2072 23.0896 10.7128C22.2507 10.4673 21.2882 9.81541 20.2523 8.78991C19.2306 7.77844 18.2111 6.47752 17.2484 5.05553C16.6501 4.17183 16.0804 3.25131 15.5521 2.3394ZM13.1222 2.3394H10.3225C10.4501 4.73357 9.88598 7.65795 7.78751 10.6205C6.39722 12.5833 4.75315 13.6629 3.0894 14.145V18.3628C4.09192 17.754 5.27212 16.9226 6.65391 15.7999C9.91878 13.1471 12.4903 12.0917 14.4401 11.8986C16.3788 11.7067 17.7569 12.3791 18.364 13.2291C19.0013 14.1213 19.3615 15.317 19.4971 16.5781C19.6344 17.8544 19.5507 19.2779 19.2288 20.6907C18.5889 23.4994 16.9643 26.423 14.0376 27.9989C13.8783 28.0848 13.7174 28.171 13.5553 28.2576H16.844C18.1302 26.6248 19.1594 25.0025 19.5285 23.7311C19.9451 22.296 20.1162 20.7745 20.2761 19.352L20.2761 19.3517L20.2762 19.3514C20.3336 18.8405 20.3896 18.3422 20.4551 17.8655C20.5685 17.0392 20.725 16.1637 21.0612 15.5325C21.2392 15.1985 21.5218 14.8266 21.9769 14.6119C22.4559 14.3859 22.9543 14.4136 23.3914 14.5593C24.6169 14.9678 26.2461 15.0525 29.0076 14.3608V12.4735C26.8781 13.0736 24.5561 13.3466 22.4953 12.7434C21.1655 12.3542 19.9032 11.4215 18.7638 10.2935C17.6102 9.15144 16.504 7.72996 15.4964 6.24167C14.6345 4.96862 13.8322 3.62788 13.1222 2.3394ZM29.0076 16.5368C26.3768 17.1389 24.4851 17.1138 22.8851 16.6188C22.7668 16.8956 22.6564 17.3866 22.5512 18.1532C22.4989 18.5339 22.4504 18.9669 22.3979 19.435L22.3979 19.4353C22.2344 20.8942 22.0326 22.6945 21.5604 24.321C21.1984 25.5677 20.4157 26.9373 19.4851 28.2576H21.6138C22.0064 27.2812 22.368 26.3513 22.652 25.5697C22.9571 24.7299 23.1483 24.1259 23.2098 23.8185C23.3265 23.2347 23.5489 22.6067 24.0706 22.1614C24.6132 21.6982 25.2798 21.5988 25.9042 21.6305C26.519 21.6618 27.24 21.8274 28.0533 22.0607C28.3491 22.1455 28.6669 22.2423 29.0076 22.3498V16.5368ZM28.9388 24.5495C28.3865 24.3701 27.9006 24.2179 27.47 24.0944C26.6841 23.869 26.1571 23.7619 25.7967 23.7436C25.5641 23.7317 25.4699 23.7604 25.4429 23.7725C25.4277 23.7904 25.3526 23.8928 25.2844 24.2334C25.1872 24.7194 24.941 25.4653 24.6406 26.2922C24.4249 26.8858 24.1686 27.5549 23.8914 28.2576H24.5116C26.7258 28.2576 28.5663 26.6568 28.9388 24.5495ZM8.99021 28.2576C10.3758 27.543 11.7743 26.8147 13.0345 26.1361C15.265 24.9351 16.6157 22.6354 17.1659 20.2207C17.4391 19.0219 17.5042 17.8338 17.3935 16.8043C17.2811 15.7595 16.9968 14.9551 16.6423 14.4588C16.5882 14.3831 16.0489 13.8655 14.6486 14.0041C13.2595 14.1416 11.0705 14.9375 7.9881 17.4419C6.05855 19.0097 4.44379 20.0839 3.0894 20.794V23.1801C3.42328 22.8745 3.80029 22.6194 4.14869 22.4016C4.50365 22.1798 4.89042 21.9616 5.2705 21.7484L5.3647 21.6956C5.71977 21.4966 6.07217 21.2991 6.4221 21.0895C7.18763 20.631 7.87598 20.1521 8.40526 19.5949C9.32165 18.6301 10.6443 17.4787 11.8879 16.6926C12.5013 16.3049 13.1639 15.9619 13.789 15.8044C14.3756 15.6566 15.2853 15.5965 15.9191 16.3211C16.5223 17.0106 16.7723 18.0448 16.3329 19.3871C15.9156 20.6619 14.8675 22.2717 12.8416 24.365C10.7388 26.538 8.6358 27.6265 6.86282 27.9734C6.66286 28.0125 6.46615 28.0424 6.2734 28.0631C6.68847 28.1896 7.129 28.2576 7.58541 28.2576H8.99021ZM3.0894 11.9063C4.11448 11.4812 5.1357 10.7038 6.06099 9.39756C7.88801 6.81823 8.32949 4.31715 8.20378 2.3394H7.58541C5.10233 2.3394 3.0894 4.35233 3.0894 6.83541V11.9063ZM25.4408 23.7734C25.4358 23.7758 25.4338 23.7773 25.434 23.7775C25.4342 23.7776 25.4353 23.7772 25.4372 23.7759L25.4385 23.7751L25.4408 23.7734ZM13.0183 18.4811C11.9529 19.1545 10.7629 20.1849 9.93927 21.052C9.21246 21.8172 8.33056 22.4127 7.50925 22.9046C7.13181 23.1307 6.75335 23.3428 6.40253 23.5394L6.30537 23.5938C5.92094 23.8094 5.57625 24.0044 5.26999 24.1958C4.60963 24.6085 4.33355 24.886 4.24703 25.0636C4.22222 25.1145 4.21927 25.1437 4.22692 25.1882C4.2378 25.2515 4.28334 25.3977 4.46452 25.6393L4.48213 25.6628L4.49843 25.6872C4.49945 25.6886 4.52326 25.7215 4.59898 25.7678C4.67718 25.8156 4.79824 25.8698 4.97017 25.9121C5.3157 25.9971 5.81868 26.0218 6.45659 25.897C7.72511 25.6488 9.45706 24.82 11.3212 22.8937C13.2625 20.8877 14.052 19.5539 14.3221 18.7288C14.4829 18.2376 14.45 17.9715 14.3986 17.8356C14.3728 17.8403 14.3421 17.8469 14.3058 17.8561C14.0003 17.933 13.5593 18.1392 13.0183 18.4811ZM14.5124 17.8256C14.5119 17.8262 14.5056 17.8263 14.4949 17.8242C14.5075 17.824 14.5129 17.8251 14.5124 17.8256Z" fill="#56704E"/>
</g>
</g>
</svg>
