<svg width="20" height="21" viewBox="0 0 20 21" fill="none" xmlns="http://www.w3.org/2000/svg">
<g id="Search Icon" clip-path="url(#clip0_67_381)">
<g id="Group">
<g id="Group_2">
<path id="Vector" d="M19.7556 18.8757L14.0682 13.1882C15.1699 11.8274 15.8332 10.0982 15.8332 8.21494C15.8332 3.84998 12.2815 0.29834 7.91656 0.29834C3.55161 0.29834 0 3.84995 0 8.2149C0 12.5799 3.55165 16.1315 7.9166 16.1315C9.7999 16.1315 11.5291 15.4682 12.8899 14.3665L18.5773 20.054C18.7398 20.2165 18.9531 20.2981 19.1665 20.2981C19.3798 20.2981 19.5932 20.2165 19.7557 20.054C20.0815 19.7282 20.0815 19.2015 19.7556 18.8757ZM7.9166 14.4648C4.46996 14.4648 1.66666 11.6615 1.66666 8.2149C1.66666 4.76826 4.46996 1.96496 7.9166 1.96496C11.3632 1.96496 14.1665 4.76826 14.1665 8.2149C14.1665 11.6615 11.3632 14.4648 7.9166 14.4648Z" fill="#222222"/>
</g>
</g>
</g>
<defs>
<clipPath id="clip0_67_381">
<rect width="20" height="20" fill="white" transform="translate(0 0.29834)"/>
</clipPath>
</defs>
</svg>
