<svg width="107" height="31" viewBox="0 0 107 31" fill="none" xmlns="http://www.w3.org/2000/svg">
<g clip-path="url(#clip0_38_388)">
<path d="M34.6455 5.76474V2.11572H53.0046V5.76474H45.918V27.364H41.8056V5.76474H34.6455Z" fill="white"/>
<path d="M64.2501 24.0467L65.2783 23.9361L65.3517 26.9217C62.5611 27.4868 60.0887 27.7694 57.9346 27.7694C55.2175 27.7694 53.2592 27.02 52.0597 25.521C50.8847 24.0221 50.2972 21.6263 50.2972 18.3336C50.2972 11.7973 52.9532 8.52915 58.2651 8.52915C63.4056 8.52915 65.9759 11.3427 65.9759 16.9698L65.7189 19.8448H54.3362C54.3607 21.3683 54.6912 22.4863 55.3276 23.1989C55.9641 23.9115 57.1513 24.2678 58.8893 24.2678C60.6273 24.2678 62.4142 24.1941 64.2501 24.0467ZM62.0471 16.7486C62.0471 14.9303 61.7533 13.6648 61.1658 12.9522C60.6028 12.215 59.6359 11.8464 58.2651 11.8464C56.8943 11.8464 55.8906 12.2273 55.2542 12.9891C54.6422 13.7508 54.324 15.004 54.2995 16.7486H62.0471Z" fill="white"/>
<path d="M67.9885 27.364V8.93459H71.9541V11.1461C74.0348 9.79463 76.1155 8.92231 78.1962 8.52915V12.5468C76.091 12.9645 74.2918 13.5051 72.7986 14.1685L71.9908 14.5003V27.364H67.9885Z" fill="white"/>
<path d="M79.4199 27.364V8.93459H83.3855V11.1461C85.4662 9.79463 87.5469 8.92231 89.6276 8.52915V12.5468C87.5224 12.9645 85.7232 13.5051 84.23 14.1685L83.4222 14.5003V27.364H79.4199Z" fill="white"/>
<path d="M104.437 14.6108V23.0146C104.462 23.5552 104.596 23.9607 104.841 24.231C105.11 24.4767 105.514 24.6364 106.053 24.7101L105.943 27.7694C103.837 27.7694 102.21 27.3148 101.059 26.4056C99.1007 27.3148 97.1302 27.7694 95.1474 27.7694C91.5 27.7694 89.6764 25.8159 89.6764 21.9089C89.6764 20.0414 90.1659 18.6899 91.1451 17.8544C92.1487 17.0189 93.6786 16.5152 95.7349 16.3432L100.472 15.9378V14.6108C100.472 13.6279 100.251 12.9399 99.8106 12.5468C99.3944 12.1536 98.7702 11.957 97.938 11.957C96.3713 11.957 94.413 12.0553 92.063 12.2519L90.8881 12.3256L90.7412 9.48747C93.4094 8.84859 95.8573 8.52915 98.0848 8.52915C100.337 8.52915 101.952 9.0206 102.932 10.0035C103.935 10.9618 104.437 12.4976 104.437 14.6108ZM96.2122 19.1813C94.5232 19.3288 93.6786 20.2502 93.6786 21.9457C93.6786 23.6412 94.4252 24.489 95.9185 24.489C97.1424 24.489 98.4398 24.2924 99.8106 23.8992L100.472 23.6781V18.7759L96.2122 19.1813Z" fill="white"/>
<path fill-rule="evenodd" clip-rule="evenodd" d="M23.5379 0C26.7331 0 29.3988 2.2664 30.0154 5.27927C30.1034 5.70968 30.1497 6.15533 30.1497 6.61178V23.5379C30.1497 27.1895 27.1895 30.1497 23.5379 30.1497H6.61178C5.88886 30.1497 5.19305 30.0337 4.54193 29.8192C1.90414 28.9505 0 26.4666 0 23.5379V6.61178C0 2.96019 2.96019 0 6.61178 0H23.5379ZM20.8562 2.11577H23.5379C25.7291 2.11577 27.5542 3.68328 27.953 5.75812C26.6805 5.90229 25.226 5.76869 23.6901 5.11044C22.3289 4.52709 21.4261 3.44633 20.8562 2.11577ZM14.5785 2.11577H18.5971C19.2647 4.12562 20.5438 6.06394 22.8566 7.05514C24.7119 7.85024 26.4738 8.03468 28.0339 7.87974V10.0416C25.9157 10.7122 23.8049 10.9835 22.116 10.4892C21.2771 10.2437 20.3145 9.59177 19.2787 8.56627C18.257 7.5548 17.2375 6.25389 16.2748 4.8319C15.6765 3.9482 15.1068 3.02768 14.5785 2.11577ZM12.1486 2.11577H9.34886C9.47646 4.50994 8.91235 7.43432 6.81387 10.3969C5.42358 12.3596 3.77952 13.4392 2.11577 13.9214V18.1392C3.11829 17.5304 4.29849 16.6989 5.68027 15.5762C8.94515 12.9235 11.5166 11.868 13.4665 11.675C15.4052 11.4831 16.7832 12.1555 17.3903 13.0054C18.0276 13.8976 18.3879 15.0933 18.5235 16.3544C18.6607 17.6308 18.5771 19.0543 18.2552 20.4671C17.6152 23.2758 15.9907 26.1994 13.064 27.7753C12.9046 27.8611 12.7438 27.9474 12.5817 28.0339H15.8703C17.1566 26.4012 18.1857 24.7789 18.5549 23.5074C18.9715 22.0723 19.1426 20.5508 19.3025 19.1283L19.3025 19.1281L19.3026 19.1277C19.36 18.6168 19.416 18.1186 19.4814 17.6418C19.5949 16.8155 19.7513 15.9401 20.0876 15.3089C20.2655 14.9748 20.5482 14.6029 21.0032 14.3883C21.4823 14.1623 21.9806 14.19 22.4178 14.3357C23.6433 14.7442 25.2725 14.8288 28.0339 14.1372V12.2499C25.9045 12.8499 23.5825 13.123 21.5216 12.5198C20.1919 12.1306 18.9295 11.1979 17.7901 10.0699C16.6366 8.92781 15.5304 7.50633 14.5228 6.01804C13.6609 4.74499 12.8586 3.40425 12.1486 2.11577ZM28.0339 16.3132C25.4032 16.9153 23.5114 16.8902 21.9115 16.3952C21.7932 16.672 21.6828 17.163 21.5776 17.9295C21.5253 18.3103 21.4768 18.7432 21.4243 19.2113L21.4243 19.2117C21.2607 20.6706 21.0589 22.4708 20.5867 24.0973C20.2248 25.3441 19.4421 26.7136 18.5115 28.0339H20.6402C21.0327 27.0576 21.3944 26.1277 21.6783 25.3461C21.9835 24.5062 22.1747 23.9022 22.2361 23.5948C22.3529 23.0111 22.5753 22.3831 23.097 21.9378C23.6396 21.4745 24.3061 21.3751 24.9305 21.4069C25.5454 21.4382 26.2664 21.6038 27.0797 21.837C27.3754 21.9219 27.6933 22.0187 28.0339 22.1261V16.3132ZM27.9651 24.3258C27.4129 24.1465 26.9269 23.9943 26.4964 23.8708C25.7105 23.6454 25.1835 23.5383 24.8231 23.5199C24.5904 23.5081 24.4962 23.5368 24.4692 23.5488C24.4541 23.5667 24.3789 23.6692 24.3108 24.0098C24.2136 24.4958 23.9673 25.2417 23.6669 26.0686C23.4513 26.6622 23.195 27.3313 22.9177 28.0339H23.5379C25.7522 28.0339 27.5926 26.4332 27.9651 24.3258ZM8.01658 28.0339C9.40214 27.3194 10.8006 26.591 12.0609 25.9124C14.2914 24.7114 15.6421 22.4117 16.1923 19.9971C16.4654 18.7982 16.5306 17.6101 16.4199 16.5806C16.3075 15.5359 16.0231 14.7315 15.6687 14.2352C15.6146 14.1595 15.0752 13.6418 13.675 13.7805C12.2859 13.918 10.0969 14.7138 7.01446 17.2183C5.08492 18.7861 3.47016 19.8603 2.11577 20.5703V22.9565C2.44965 22.6509 2.82666 22.3957 3.17506 22.178C3.53002 21.9561 3.91678 21.7379 4.29687 21.5248L4.39107 21.472C4.74614 21.273 5.09854 21.0755 5.44847 20.8659C6.214 20.4073 6.90234 19.9284 7.43162 19.3712C8.34802 18.4065 9.6707 17.255 10.9142 16.469C11.5277 16.0813 12.1902 15.7383 12.8153 15.5808C13.402 15.433 14.3116 15.3729 14.9455 16.0974C15.5486 16.787 15.7986 17.8212 15.3592 19.1634C14.9419 20.4382 13.8938 22.048 11.868 24.1414C9.76513 26.3144 7.66217 27.4029 5.88919 27.7498C5.68923 27.7889 5.49252 27.8187 5.29977 27.8395C5.71483 27.9659 6.15536 28.0339 6.61178 28.0339H8.01658ZM2.11577 11.6827C3.14085 11.2575 4.16207 10.4802 5.08735 9.17393C6.91438 6.5946 7.35586 4.09352 7.23015 2.11577H6.61178C4.1287 2.11577 2.11577 4.1287 2.11577 6.61178V11.6827ZM24.4672 23.5498C24.4622 23.5521 24.4602 23.5537 24.4604 23.5539C24.4605 23.554 24.4617 23.5535 24.4636 23.5523L24.4649 23.5514L24.4672 23.5498ZM12.0447 18.2575C10.9793 18.9309 9.78932 19.9613 8.96564 20.8284C8.23883 21.5935 7.35692 22.189 6.53562 22.681C6.15818 22.907 5.77971 23.1191 5.4289 23.3157L5.33174 23.3702C4.94731 23.5858 4.60262 23.7808 4.29636 23.9722C3.63599 24.3849 3.35992 24.6623 3.2734 24.84C3.24859 24.8909 3.24564 24.9201 3.25328 24.9646C3.26417 25.0279 3.30971 25.1741 3.49088 25.4157L3.5085 25.4391L3.5248 25.4636C3.52581 25.465 3.54963 25.4978 3.62535 25.5441C3.70355 25.592 3.82461 25.6461 3.99654 25.6884C4.34206 25.7735 4.84504 25.7982 5.48296 25.6734C6.75147 25.4252 8.48342 24.5964 10.3476 22.67C12.2888 20.6641 13.0784 19.3303 13.3485 18.5052C13.5093 18.014 13.4764 17.7479 13.425 17.612C13.3992 17.6167 13.3684 17.6233 13.3322 17.6324C13.0267 17.7094 12.5857 17.9155 12.0447 18.2575ZM13.5388 17.602C13.5383 17.6026 13.532 17.6026 13.5213 17.6005C13.5339 17.6004 13.5392 17.6014 13.5388 17.602Z" fill="#56704E"/>
</g>
<defs>
<clipPath id="clip0_38_388">
<rect width="106.053" height="30.1497" fill="white"/>
</clipPath>
</defs>
</svg>
