<svg width="20" height="21" viewBox="0 0 20 21" fill="none" xmlns="http://www.w3.org/2000/svg">
<g id="User Icon" clip-path="url(#clip0_67_385)">
<g id="Group">
<g id="Group_2">
<path id="Vector" d="M17.0711 13.2272C15.9819 12.1381 14.6855 11.3318 13.2711 10.8437C14.786 9.80033 15.7812 8.05412 15.7812 6.07959C15.7812 2.89182 13.1878 0.29834 10 0.29834C6.81223 0.29834 4.21875 2.89182 4.21875 6.07959C4.21875 8.05412 5.21402 9.80033 6.72898 10.8437C5.31453 11.3318 4.01813 12.1381 2.92895 13.2272C1.0402 15.116 0 17.6272 0 20.2983H1.5625C1.5625 15.6459 5.34754 11.8608 10 11.8608C14.6525 11.8608 18.4375 15.6459 18.4375 20.2983H20C20 17.6272 18.9598 15.116 17.0711 13.2272ZM10 10.2983C7.67379 10.2983 5.78125 8.40584 5.78125 6.07959C5.78125 3.75334 7.67379 1.86084 10 1.86084C12.3262 1.86084 14.2188 3.75334 14.2188 6.07959C14.2188 8.40584 12.3262 10.2983 10 10.2983Z" fill="#222222"/>
</g>
</g>
</g>
<defs>
<clipPath id="clip0_67_385">
<rect width="20" height="20" fill="white" transform="translate(0 0.29834)"/>
</clipPath>
</defs>
</svg>
