<svg width="128" height="43" viewBox="0 0 128 43" fill="none" xmlns="http://www.w3.org/2000/svg">
<path d="M29.9529 1.86821C29.4261 1.86821 28.8635 1.88051 28.2649 1.90512C27.6663 1.92972 27.0438 1.98508 26.3973 2.0712C25.7508 2.14501 25.0924 2.26188 24.422 2.42181C23.7516 2.56944 23.0812 2.76628 22.4108 3.01232C21.7883 3.24606 21.1837 3.52287 20.5971 3.84273C20.0105 4.15028 19.4837 4.50705 19.0168 4.91302C18.5619 5.3067 18.1908 5.74343 17.9035 6.22322C17.6281 6.70301 17.4905 7.2197 17.4905 7.7733C17.4905 8.09316 17.5443 8.35766 17.6521 8.5668C17.7598 8.77594 17.8855 8.88051 18.0292 8.88051C18.4602 8.88051 18.9031 8.78824 19.358 8.60371C19.8249 8.41918 20.2858 8.17928 20.7407 7.88403C21.1957 7.57647 21.6386 7.232 22.0696 6.85063C22.5125 6.45696 22.9256 6.06329 23.3086 5.66961C23.6917 5.26364 24.0389 4.86997 24.3502 4.4886C24.6734 4.10722 24.9487 3.76276 25.1762 3.4552L25.4635 3.93499C24.8769 5.09141 24.2125 6.1248 23.4703 7.03517C23.147 7.42884 22.7939 7.81021 22.4108 8.17928C22.0277 8.54835 21.6087 8.88051 21.1538 9.17577C20.7108 9.45872 20.232 9.69246 19.7172 9.877C19.2024 10.0492 18.6637 10.1353 18.101 10.1353C17.8496 10.1353 17.6162 10.0738 17.4007 9.95081C17.1972 9.81548 17.0176 9.64325 16.862 9.43411C16.7063 9.22497 16.5866 8.98508 16.5028 8.71443C16.419 8.44378 16.3771 8.16698 16.3771 7.88403C16.3771 7.53956 16.4429 7.1951 16.5746 6.85063C16.7063 6.49387 16.8799 6.1494 17.0954 5.81724C17.3229 5.47278 17.5862 5.14677 17.8855 4.83921C18.1848 4.53165 18.508 4.25485 18.8552 4.00881C19.5256 3.52902 20.2858 3.10459 21.1358 2.73552C21.9858 2.36645 22.8837 2.05889 23.8294 1.81285C24.7871 1.5668 25.7628 1.38227 26.7565 1.25925C27.7621 1.12392 28.7557 1.05626 29.7374 1.05626C29.9169 1.05626 30.0965 1.05626 30.2761 1.05626C30.4557 1.05626 30.6352 1.06856 30.8148 1.09316C31.3895 1.13007 31.9282 1.20389 32.431 1.31461C33.4007 0.79791 34.4063 0.391935 35.4478 0.0966797L35.7351 0.576469C35.4119 0.785608 35.0887 0.988595 34.7654 1.18543C34.4542 1.36997 34.1549 1.57295 33.8676 1.79439C34.5859 2.12656 35.1246 2.55714 35.4837 3.08613C35.8429 3.61513 36.0224 4.20564 36.0224 4.85766C36.0224 5.36206 35.9327 5.86645 35.7531 6.37084C35.5855 6.86294 35.3461 7.34273 35.0348 7.81021C34.7355 8.2654 34.3704 8.69598 33.9394 9.10195C33.5204 9.50793 33.0655 9.86469 32.5746 10.1723C32.9098 10.6643 33.0774 11.1687 33.0774 11.6854C33.0774 12.3128 32.8979 12.971 32.5387 13.6599C32.1915 14.3366 31.7247 15.0255 31.138 15.7267C30.5634 16.428 29.905 17.1292 29.1627 17.8304C28.4205 18.5317 27.6603 19.2144 26.8822 19.8788C26.116 20.5308 25.3618 21.1643 24.6195 21.7795C23.8893 22.3823 23.2308 22.942 22.6442 23.4587C22.0696 23.9631 21.6027 24.4183 21.2435 24.8243C20.8964 25.2179 20.7228 25.5378 20.7228 25.7838C20.7228 26.0299 20.7647 26.2267 20.8485 26.3744C20.9443 26.5097 21.064 26.6143 21.2076 26.6881C21.3633 26.7619 21.5369 26.8111 21.7284 26.8357C21.9319 26.848 22.1474 26.8541 22.3749 26.8541C22.8777 26.8541 23.4523 26.7742 24.0988 26.6143C24.7452 26.442 25.4037 26.2329 26.0741 25.9868C26.7565 25.7408 27.4209 25.4701 28.0673 25.1749C28.7258 24.8796 29.3184 24.6028 29.8451 24.3445L30.0247 24.7874C28.205 25.6977 26.5589 26.4174 25.0864 26.9464C23.6139 27.4754 22.3629 27.7399 21.3333 27.7399C21.046 27.7399 20.7467 27.7153 20.4355 27.6661C20.1242 27.6169 19.8369 27.5123 19.5735 27.3524C19.3101 27.1925 19.0947 26.9649 18.927 26.6696C18.7594 26.3744 18.6756 25.9807 18.6756 25.4886C18.6756 25.0334 18.8492 24.5413 19.1964 24.0123C19.5556 23.471 20.0224 22.9113 20.5971 22.3331C21.1717 21.7549 21.8242 21.1582 22.5544 20.5431C23.2847 19.9157 24.0329 19.2882 24.7991 18.6608C25.5653 18.0211 26.3135 17.3814 27.0438 16.7417C27.774 16.102 28.4265 15.4745 29.0011 14.8594C29.5758 14.232 30.0367 13.623 30.3838 13.0325C30.743 12.4297 30.9226 11.8577 30.9226 11.3164C30.9226 11.2179 30.9046 11.1134 30.8687 11.0027C30.8447 10.8919 30.8028 10.7997 30.743 10.7259C30.5874 10.8612 30.4257 10.9657 30.2581 11.0396C30.0905 11.1011 29.9289 11.1503 29.7733 11.1872C29.6177 11.2118 29.48 11.2302 29.3603 11.2425C29.2525 11.2425 29.1747 11.2425 29.1268 11.2425C28.8515 11.2425 28.6061 11.1995 28.3906 11.1134C28.1871 11.015 28.0135 10.9042 27.8698 10.7812C27.7262 10.6459 27.6184 10.5044 27.5466 10.3568C27.4747 10.1969 27.4388 10.0492 27.4388 9.9139C27.4388 9.58174 27.5765 9.28649 27.8519 9.02814C28.1392 8.75749 28.5881 8.62216 29.1987 8.62216C29.6655 8.62216 30.0905 8.68367 30.4736 8.8067C30.8687 8.91742 31.2218 9.06505 31.5331 9.24958C31.8563 8.96663 32.1736 8.65292 32.4849 8.30845C32.7961 7.95169 33.0774 7.58877 33.3288 7.2197C33.5802 6.83833 33.7778 6.46311 33.9214 6.09404C34.0771 5.71267 34.1549 5.34976 34.1549 5.00529C34.1549 4.4886 34.0711 4.00881 33.9035 3.56592C33.7478 3.12304 33.4246 2.75397 32.9338 2.45872C32.1317 3.08613 31.3835 3.732 30.6891 4.39633C30.0067 5.06065 29.3603 5.72497 28.7497 6.3893C28.1392 7.04132 27.5705 7.68104 27.0438 8.30845C26.517 8.93587 26.0142 9.52023 25.5354 10.0615C25.1762 10.4798 24.7572 10.9719 24.2783 11.5378C23.7995 12.1037 23.2787 12.7188 22.7161 13.3831C22.1534 14.0352 21.5668 14.7179 20.9562 15.4315C20.3457 16.145 19.7291 16.8647 19.1066 17.5905C18.4961 18.3041 17.8855 19.0053 17.275 19.6942C16.6644 20.3708 16.0898 20.9983 15.5511 21.5765C14.7131 22.4745 13.8571 23.2988 12.9832 24.0492C12.1092 24.7997 11.1994 25.4517 10.2536 26.0053C9.30789 26.5466 8.32623 26.971 7.30864 27.2786C6.29106 27.5861 5.2196 27.7399 4.09428 27.7399C2.78938 27.7399 1.77778 27.4816 1.05948 26.9649C0.353161 26.4482 0 25.7715 0 24.935C0 24.6274 0.0478863 24.3137 0.143659 23.9939C0.239431 23.6617 0.38309 23.3665 0.574635 23.1081C0.778152 22.8375 1.02357 22.6222 1.31089 22.4622C1.61018 22.29 1.95137 22.2039 2.33446 22.2039C2.76543 22.2039 3.10064 22.3208 3.34007 22.5545C3.5795 22.7882 3.69921 23.1266 3.69921 23.5694C3.69921 23.9754 3.60344 24.3076 3.4119 24.5659C3.23232 24.812 3.03479 25.0211 2.8193 25.1933C2.60382 25.3656 2.4003 25.5255 2.20875 25.6731C2.02918 25.8085 1.93939 25.9684 1.93939 26.1529C1.93939 26.4113 2.08305 26.6081 2.37037 26.7434C2.65769 26.8665 3.05275 26.928 3.55556 26.928C4.51328 26.928 5.40516 26.7803 6.2312 26.4851C7.05724 26.1898 7.84736 25.7777 8.60157 25.2487C9.35578 24.7197 10.092 24.0861 10.8103 23.348C11.5406 22.6099 12.2828 21.7979 13.037 20.9121C14.1983 19.5589 15.4493 18.1072 16.7901 16.5571C18.1429 15.007 19.5256 13.4078 20.9383 11.7592C21.6326 10.9473 22.3749 10.0984 23.165 9.21267C23.9671 8.32691 24.8051 7.45345 25.679 6.59229C26.5529 5.71882 27.4628 4.88842 28.4085 4.10107C29.3543 3.30142 30.324 2.59404 31.3176 1.97893C30.9226 1.90512 30.4676 1.86821 29.9529 1.86821Z" fill="#222222"/>
<path d="M44.0314 23.9754C43.4568 23.9754 42.942 23.877 42.4871 23.6802C42.0441 23.471 41.6611 23.1881 41.3378 22.8313C40.6914 23.877 40.0509 24.7259 39.4164 25.3779C38.7819 26.0299 38.1654 26.5404 37.5668 26.9095C36.9802 27.2786 36.4115 27.5308 35.8608 27.6661C35.3221 27.7891 34.8133 27.8506 34.3345 27.8506C33.7598 27.8506 33.257 27.783 32.826 27.6476C32.3951 27.5 32.0359 27.3093 31.7486 27.0756C31.4613 26.8295 31.2458 26.5466 31.1021 26.2267C30.9585 25.8946 30.8866 25.5378 30.8866 25.1564C30.8866 24.3814 31.0363 23.6309 31.3356 22.9051C31.6349 22.167 32.0359 21.4842 32.5387 20.8568C33.0415 20.2171 33.6162 19.6389 34.2626 19.1222C34.9211 18.5932 35.5975 18.1441 36.2918 17.7751C36.9862 17.3937 37.6805 17.1046 38.3749 16.9078C39.0692 16.6986 39.7097 16.594 40.2963 16.594C40.6076 16.594 40.9188 16.6186 41.2301 16.6679C41.5413 16.7171 41.8227 16.8155 42.0741 16.9631C42.3255 17.1107 42.529 17.3137 42.6846 17.5721C42.8403 17.8304 42.9181 18.1687 42.9181 18.587C42.9181 18.87 42.8881 19.1652 42.8283 19.4728C42.7804 19.768 42.7205 20.0571 42.6487 20.3401C42.5769 20.623 42.4931 20.8937 42.3973 21.152C42.3135 21.4104 42.2357 21.638 42.1639 21.8348C42.2596 22.3146 42.517 22.6837 42.936 22.942C43.367 23.1881 43.8279 23.3111 44.3187 23.3111C44.7138 23.3111 45.1089 23.2311 45.5039 23.0712C45.911 22.9113 46.2701 22.6837 46.5814 22.3884L46.9405 22.6837C46.6293 23.0773 46.2103 23.3911 45.6835 23.6248C45.1568 23.8585 44.6061 23.9754 44.0314 23.9754ZM35.0887 26.7434C35.4837 26.7434 35.9327 26.6573 36.4355 26.4851C36.9383 26.3128 37.4471 26.0422 37.9618 25.6731C38.4886 25.3041 39.0034 24.8304 39.5062 24.2522C40.009 23.674 40.4639 22.9789 40.8709 22.167C40.4639 21.4781 40.2604 20.7522 40.2604 19.9895C40.2604 19.5958 40.3442 19.239 40.5118 18.9192C40.6914 18.587 40.9547 18.2549 41.3019 17.9227C41.2301 17.8858 41.1343 17.8612 41.0146 17.8489C40.9068 17.8243 40.7512 17.812 40.5477 17.812C40.1287 17.812 39.6199 17.9596 39.0213 18.2549C38.4347 18.5501 37.8302 18.9499 37.2076 19.4543C36.5971 19.9464 36.0165 20.5246 35.4658 21.1889C34.9151 21.8533 34.4781 22.5483 34.1549 23.2742C34.0112 23.5694 33.8736 23.9139 33.7419 24.3076C33.6102 24.6889 33.5443 25.058 33.5443 25.4148C33.5443 25.7838 33.6521 26.0976 33.8676 26.3559C34.0831 26.6143 34.4901 26.7434 35.0887 26.7434Z" fill="#222222"/>
<path d="M61.486 10.8735C60.7677 11.6485 60.1212 12.3436 59.5466 12.9587C58.9719 13.5738 58.4033 14.1705 57.8406 14.7487C57.278 15.3146 56.6914 15.899 56.0808 16.5018C55.4703 17.0923 54.7699 17.7566 53.9798 18.4947C53.1897 19.2206 52.2739 20.051 51.2323 20.986C50.2028 21.9209 48.9877 23.0158 47.587 24.2707C47.4553 24.6028 47.3535 24.9104 47.2817 25.1933C47.2219 25.464 47.1919 25.71 47.1919 25.9315C47.1919 26.1037 47.2398 26.2513 47.3356 26.3744C47.4314 26.4851 47.5511 26.5773 47.6947 26.6512C47.8504 26.725 48.018 26.7803 48.1975 26.8172C48.3891 26.8418 48.5687 26.8541 48.7363 26.8541C49.0595 26.8541 49.4366 26.8172 49.8676 26.7434C50.3105 26.6696 50.8253 26.5404 51.4119 26.3559C52.0105 26.1591 52.6988 25.9007 53.477 25.5809C54.2671 25.261 55.177 24.8489 56.2065 24.3445L56.3861 24.7874C55.3086 25.3164 54.3389 25.7654 53.477 26.1345C52.615 26.5035 51.8309 26.8111 51.1246 27.0571C50.4302 27.2909 49.7957 27.4631 49.2211 27.5738C48.6584 27.6846 48.1377 27.7399 47.6588 27.7399C47.168 27.7399 46.7609 27.6907 46.4377 27.5923C46.1265 27.4939 45.875 27.3647 45.6835 27.2048C45.5039 27.0325 45.3782 26.8295 45.3064 26.5958C45.2226 26.3621 45.1807 26.1037 45.1807 25.8208C45.1807 25.2425 45.3543 24.5352 45.7015 23.6986C46.0606 22.8621 46.5335 21.9517 47.1201 20.9675C47.7187 19.9833 48.407 18.9499 49.1852 17.8673C49.9633 16.7724 50.7774 15.6837 51.6274 14.6011C52.4893 13.5185 53.3573 12.4605 54.2312 11.4271C55.1171 10.3937 55.9551 9.43411 56.7452 8.54835C56.9847 8.2777 57.3019 7.94554 57.697 7.55186C58.092 7.15819 58.529 6.74606 59.0079 6.31548C59.4867 5.8726 59.9895 5.43587 60.5163 5.00529C61.055 4.57471 61.5817 4.18719 62.0965 3.84273C62.6233 3.49826 63.1201 3.22146 63.587 3.01232C64.0658 2.79088 64.4908 2.68016 64.862 2.68016C65.3528 2.68016 65.694 2.80318 65.8855 3.04923C66.089 3.29527 66.1908 3.61513 66.1908 4.00881C66.1908 4.31636 66.095 4.67313 65.9035 5.0791C65.7119 5.48508 65.4665 5.91566 65.1672 6.37084C64.8679 6.82603 64.5327 7.28736 64.1616 7.75485C63.8025 8.22234 63.4493 8.65907 63.1021 9.06505C62.755 9.47102 62.4317 9.83394 62.1324 10.1538C61.8451 10.4737 61.6296 10.7136 61.486 10.8735ZM59.798 8.47453C59.1635 9.12656 58.4931 9.83394 57.7868 10.5967C57.0804 11.3594 56.3681 12.1529 55.6498 12.9772C54.9435 13.7891 54.2372 14.6195 53.5309 15.4684C52.8365 16.3172 52.1721 17.1599 51.5376 17.9965C50.9151 18.8208 50.3345 19.6266 49.7957 20.4139C49.257 21.1889 48.7961 21.9209 48.413 22.6099C49.0715 22.0317 49.8077 21.3735 50.6218 20.6353C51.4358 19.8849 52.2858 19.0976 53.1717 18.2733C54.0696 17.4368 54.9734 16.5756 55.8833 15.6898C56.8051 14.8041 57.691 13.9244 58.541 13.051C59.4029 12.1652 60.211 11.3102 60.9652 10.486C61.7194 9.6494 62.3779 8.87436 62.9405 8.16083C63.5032 7.44729 63.9461 6.80758 64.2694 6.24167C64.5926 5.67577 64.7542 5.21443 64.7542 4.85766C64.7542 4.68543 64.6704 4.59932 64.5028 4.59932C64.2634 4.59932 63.9641 4.72234 63.6049 4.96838C63.2458 5.20213 62.8507 5.50969 62.4198 5.89106C62.0008 6.26012 61.5638 6.6784 61.1089 7.14589C60.6539 7.60107 60.217 8.04396 59.798 8.47453Z" fill="#222222"/>
<path d="M71.578 10.8735C70.8597 11.6485 70.2132 12.3436 69.6386 12.9587C69.064 13.5738 68.4953 14.1705 67.9327 14.7487C67.37 15.3146 66.7834 15.899 66.1728 16.5018C65.5623 17.0923 64.862 17.7566 64.0718 18.4947C63.2817 19.2206 62.3659 20.051 61.3244 20.986C60.2948 21.9209 59.0797 23.0158 57.679 24.2707C57.5473 24.6028 57.4456 24.9104 57.3737 25.1933C57.3139 25.464 57.284 25.71 57.284 25.9315C57.284 26.1037 57.3318 26.2513 57.4276 26.3744C57.5234 26.4851 57.6431 26.5773 57.7868 26.6512C57.9424 26.725 58.11 26.7803 58.2896 26.8172C58.4811 26.8418 58.6607 26.8541 58.8283 26.8541C59.1515 26.8541 59.5286 26.8172 59.9596 26.7434C60.4025 26.6696 60.9173 26.5404 61.5039 26.3559C62.1025 26.1591 62.7909 25.9007 63.569 25.5809C64.3591 25.261 65.269 24.8489 66.2985 24.3445L66.4781 24.7874C65.4007 25.3164 64.431 25.7654 63.569 26.1345C62.7071 26.5035 61.9229 26.8111 61.2166 27.0571C60.5223 27.2909 59.8878 27.4631 59.3131 27.5738C58.7505 27.6846 58.2297 27.7399 57.7508 27.7399C57.26 27.7399 56.853 27.6907 56.5297 27.5923C56.2185 27.4939 55.9671 27.3647 55.7755 27.2048C55.596 27.0325 55.4703 26.8295 55.3984 26.5958C55.3146 26.3621 55.2727 26.1037 55.2727 25.8208C55.2727 25.2425 55.4463 24.5352 55.7935 23.6986C56.1526 22.8621 56.6255 21.9517 57.2121 20.9675C57.8107 19.9833 58.4991 18.9499 59.2772 17.8673C60.0554 16.7724 60.8694 15.6837 61.7194 14.6011C62.5814 13.5185 63.4493 12.4605 64.3232 11.4271C65.2091 10.3937 66.0471 9.43411 66.8373 8.54835C67.0767 8.2777 67.3939 7.94554 67.789 7.55186C68.1841 7.15819 68.621 6.74606 69.0999 6.31548C69.5788 5.8726 70.0816 5.43587 70.6083 5.00529C71.147 4.57471 71.6738 4.18719 72.1886 3.84273C72.7153 3.49826 73.2121 3.22146 73.679 3.01232C74.1579 2.79088 74.5829 2.68016 74.954 2.68016C75.4448 2.68016 75.786 2.80318 75.9776 3.04923C76.1811 3.29527 76.2828 3.61513 76.2828 4.00881C76.2828 4.31636 76.1871 4.67313 75.9955 5.0791C75.804 5.48508 75.5586 5.91566 75.2593 6.37084C74.96 6.82603 74.6248 7.28736 74.2537 7.75485C73.8945 8.22234 73.5413 8.65907 73.1942 9.06505C72.847 9.47102 72.5238 9.83394 72.2245 10.1538C71.9371 10.4737 71.7217 10.7136 71.578 10.8735ZM69.89 8.47453C69.2555 9.12656 68.5851 9.83394 67.8788 10.5967C67.1725 11.3594 66.4602 12.1529 65.7419 12.9772C65.0355 13.7891 64.3292 14.6195 63.6229 15.4684C62.9285 16.3172 62.2641 17.1599 61.6296 17.9965C61.0071 18.8208 60.4265 19.6266 59.8878 20.4139C59.349 21.1889 58.8881 21.9209 58.5051 22.6099C59.1635 22.0317 59.8997 21.3735 60.7138 20.6353C61.5279 19.8849 62.3779 19.0976 63.2638 18.2733C64.1616 17.4368 65.0655 16.5756 65.9753 15.6898C66.8971 14.8041 67.783 13.9244 68.633 13.051C69.4949 12.1652 70.303 11.3102 71.0572 10.486C71.8115 9.6494 72.4699 8.87436 73.0326 8.16083C73.5952 7.44729 74.0382 6.80758 74.3614 6.24167C74.6846 5.67577 74.8462 5.21443 74.8462 4.85766C74.8462 4.68543 74.7624 4.59932 74.5948 4.59932C74.3554 4.59932 74.0561 4.72234 73.697 4.96838C73.3378 5.20213 72.9428 5.50969 72.5118 5.89106C72.0928 6.26012 71.6558 6.6784 71.2009 7.14589C70.746 7.60107 70.309 8.04396 69.89 8.47453Z" fill="#222222"/>
<path d="M79.1919 11.9438C79.1919 12.1529 79.1381 12.3498 79.0303 12.5343C78.9226 12.7188 78.7789 12.8788 78.5993 13.0141C78.4317 13.1494 78.2342 13.2601 78.0067 13.3462C77.7793 13.4201 77.5518 13.457 77.3244 13.457C77.1568 13.457 76.9892 13.4385 76.8216 13.4016C76.6659 13.3647 76.5163 13.297 76.3726 13.1986C76.2409 13.1002 76.1332 12.971 76.0494 12.8111C75.9656 12.6389 75.9237 12.4236 75.9237 12.1652C75.9237 11.9438 75.9835 11.7531 76.1033 11.5932C76.223 11.4332 76.3726 11.3041 76.5522 11.2056C76.7318 11.1072 76.9353 11.0334 77.1627 10.9842C77.3902 10.935 77.6117 10.9104 77.8272 10.9104C78.1863 10.9104 78.4856 10.9965 78.725 11.1687C78.9764 11.3287 79.1321 11.587 79.1919 11.9438ZM68.5612 24.7874C68.3816 25.0088 68.2379 25.2364 68.1302 25.4701C68.0344 25.6916 67.9865 25.87 67.9865 26.0053C67.9865 26.3251 68.0823 26.5281 68.2738 26.6143C68.4774 26.7004 68.7527 26.7434 69.0999 26.7434C69.4231 26.7434 69.8182 26.7188 70.2851 26.6696C70.7639 26.6081 71.3146 26.4912 71.9371 26.319C72.5716 26.1468 73.284 25.9069 74.0741 25.5993C74.8762 25.2795 75.7681 24.8612 76.7497 24.3445L76.9293 24.7874C76.0075 25.3533 75.0917 25.8269 74.1818 26.2083C73.284 26.5896 72.416 26.8972 71.578 27.1309C70.752 27.3647 69.9738 27.5308 69.2436 27.6292C68.5133 27.7276 67.8668 27.7768 67.3042 27.7768C66.6577 27.7768 66.1848 27.6169 65.8855 27.297C65.5862 26.9649 65.4366 26.522 65.4366 25.9684C65.4366 25.6731 65.5324 25.341 65.7239 24.9719C65.9155 24.5905 66.2267 24.1107 66.6577 23.5325C67.1126 22.942 67.5915 22.3638 68.0943 21.7979C68.5971 21.232 69.0999 20.6415 69.6027 20.0264C69.9379 19.6204 70.2851 19.2206 70.6442 18.8269C71.0034 18.4209 71.3446 18.058 71.6678 17.7382C71.991 17.4183 72.2843 17.1599 72.5477 16.9631C72.8111 16.7663 73.0146 16.6679 73.1582 16.6679C73.254 16.6679 73.3857 16.6863 73.5533 16.7232C73.7209 16.7601 73.8825 16.8155 74.0382 16.8893C74.2058 16.9508 74.3434 17.0369 74.4512 17.1476C74.5709 17.2461 74.6308 17.3568 74.6308 17.4798C74.6308 17.6151 74.541 17.7874 74.3614 17.9965C74.1938 18.2056 73.9843 18.4517 73.7329 18.7346L70.752 22.2039C70.6682 22.29 70.5425 22.4253 70.3749 22.6099C70.2192 22.7821 70.0397 22.9912 69.8361 23.2373C69.6446 23.471 69.4351 23.7232 69.2076 23.9939C68.9802 24.2645 68.7647 24.529 68.5612 24.7874Z" fill="#222222"/>
<path d="M88.5297 22.536C87.9551 23.2004 87.4703 23.8339 87.0752 24.4367C86.6801 25.0273 86.4826 25.5378 86.4826 25.9684C86.4826 26.3005 86.5963 26.5404 86.8238 26.6881C87.0632 26.8234 87.3565 26.8911 87.7037 26.8911C88.0269 26.8911 88.404 26.8541 88.835 26.7803C89.278 26.7065 89.7927 26.5773 90.3794 26.3928C90.9779 26.196 91.6663 25.9376 92.4445 25.6178C93.2346 25.2979 94.1444 24.8858 95.174 24.3814L95.3535 24.8243C94.2761 25.3533 93.3064 25.8023 92.4445 26.1714C91.5825 26.5404 90.7984 26.848 90.092 27.094C89.3977 27.3278 88.7632 27.5 88.1886 27.6107C87.6259 27.7215 87.1051 27.7768 86.6263 27.7768C86.327 27.7768 86.0217 27.7399 85.7104 27.6661C85.3992 27.58 85.1119 27.457 84.8485 27.297C84.5971 27.1248 84.3876 26.9218 84.22 26.6881C84.0524 26.4543 83.9686 26.1775 83.9686 25.8577C83.9686 25.71 83.9865 25.5563 84.0225 25.3963C84.0584 25.2364 84.1242 25.0703 84.22 24.8981C83.2263 25.8946 82.2746 26.6266 81.3648 27.094C80.4549 27.5492 79.6109 27.7768 78.8328 27.7768C78.2342 27.7768 77.7494 27.6969 77.3782 27.5369C77.0191 27.3647 76.7318 27.1494 76.5163 26.8911C76.3128 26.6204 76.1751 26.319 76.1033 25.9868C76.0314 25.6547 75.9955 25.3164 75.9955 24.9719C75.9955 24.3937 76.1272 23.7909 76.3906 23.1635C76.654 22.536 77.0071 21.9148 77.4501 21.2997C77.905 20.6846 78.4257 20.1002 79.0124 19.5466C79.6109 18.9807 80.2394 18.4886 80.8979 18.0703C81.5563 17.6397 82.2207 17.3014 82.8911 17.0554C83.5615 16.797 84.208 16.6679 84.8305 16.6679C85.2256 16.6679 85.5967 16.7048 85.9439 16.7786C86.2911 16.8524 86.5904 16.9693 86.8418 17.1292C87.0932 17.2768 87.2907 17.4798 87.4343 17.7382C87.59 17.9842 87.6678 18.2795 87.6678 18.6239C87.6678 19.0176 87.5601 19.4728 87.3446 19.9895L86.734 20.2847C86.8058 19.9895 86.8418 19.7065 86.8418 19.4359C86.8418 19.239 86.8178 19.0483 86.7699 18.8638C86.734 18.667 86.6682 18.4947 86.5724 18.3471C86.4766 18.1995 86.3449 18.0826 86.1773 17.9965C86.0217 17.8981 85.8242 17.8489 85.5847 17.8489C85.07 17.8489 84.5432 17.9781 84.0045 18.2364C83.4658 18.4824 82.939 18.8146 82.4242 19.2329C81.9214 19.6389 81.4426 20.1002 80.9877 20.6169C80.5447 21.1213 80.1556 21.638 79.8204 22.167C79.4852 22.696 79.2159 23.2065 79.0124 23.6986C78.8208 24.1907 78.725 24.6151 78.725 24.9719C78.725 25.4763 78.8388 25.8085 79.0662 25.9684C79.2937 26.116 79.6588 26.1898 80.1616 26.1898C80.7602 26.1898 81.3827 25.9991 82.0292 25.6178C82.6757 25.2364 83.358 24.7136 84.0763 24.0492C84.3996 23.7294 84.7108 23.4218 85.0101 23.1266C85.3214 22.8313 85.6566 22.4622 86.0157 22.0194C86.2312 21.7487 86.4886 21.4288 86.7879 21.0598C87.0991 20.6907 87.4224 20.3093 87.7576 19.9157C88.1048 19.5097 88.4519 19.116 88.7991 18.7346C89.1583 18.3533 89.4935 18.0088 89.8047 17.7012C90.128 17.3937 90.4153 17.1476 90.6667 16.9631C90.9181 16.7663 91.1156 16.6679 91.2593 16.6679C91.355 16.6679 91.4867 16.6863 91.6543 16.7232C91.8219 16.7601 91.9835 16.8155 92.1392 16.8893C92.3068 16.9508 92.4445 17.0369 92.5522 17.1476C92.6719 17.2461 92.7318 17.3568 92.7318 17.4798C92.7318 17.6151 92.642 17.7874 92.4624 17.9965C92.2948 18.2056 92.0853 18.4517 91.8339 18.7346L88.5297 22.536Z" fill="#222222"/>
<path d="M104.296 24.8612C103.937 25.2918 103.584 25.7039 103.237 26.0976C102.902 26.4789 102.56 26.8541 102.213 27.2232C103.674 26.5343 105.182 25.8946 106.739 25.3041C108.295 24.7012 109.911 24.1599 111.587 23.6802L111.767 24.123C111.132 24.2953 110.414 24.5229 109.612 24.8058C108.81 25.0888 107.954 25.4148 107.044 25.7838C106.146 26.1529 105.2 26.5589 104.207 27.0018C103.225 27.4447 102.225 27.9121 101.208 28.4042C99.0168 30.8893 97.1493 33.0545 95.6049 34.8998C94.0606 36.7452 92.8036 38.1969 91.8339 39.2549C91.4867 39.6239 91.1216 39.9807 90.7385 40.3251C90.3434 40.6696 89.9244 40.971 89.4815 41.2294C89.0385 41.4877 88.5776 41.6969 88.0988 41.8568C87.6079 42.0167 87.1051 42.0967 86.5904 42.0967C86.3509 42.0967 86.1175 42.0659 85.89 42.0044C85.6626 41.9552 85.459 41.8629 85.2795 41.7276C85.0999 41.6046 84.9562 41.4385 84.8485 41.2294C84.7407 41.0325 84.6869 40.7926 84.6869 40.5097C84.6869 40.1652 84.8126 39.7469 85.064 39.2549C85.3154 38.7751 85.6925 38.2461 86.1953 37.6679C86.6861 37.102 87.3027 36.4991 88.0449 35.8594C88.7752 35.232 89.6311 34.5923 90.6128 33.9403C91.6783 33.2144 92.7856 32.4886 93.9349 31.7628C95.0962 31.0369 96.3113 30.3234 97.5803 29.6222C98.0112 29.0686 98.4362 28.5211 98.8552 27.9798C99.2862 27.4508 99.7112 26.928 100.13 26.4113C99.4837 26.8788 98.8552 27.2171 98.2447 27.4262C97.6461 27.6353 97.0774 27.7399 96.5387 27.7399C95.9401 27.7399 95.4553 27.6599 95.0842 27.5C94.725 27.3278 94.4377 27.1125 94.2222 26.8541C94.0187 26.5835 93.881 26.2821 93.8092 25.9499C93.7374 25.6178 93.7015 25.2795 93.7015 24.935C93.7015 24.3691 93.8332 23.7724 94.0965 23.145C94.3599 22.5053 94.7131 21.8779 95.156 21.2628C95.6109 20.6476 96.1317 20.0633 96.7183 19.5097C97.3169 18.9438 97.9454 18.4517 98.6038 18.0334C99.2623 17.6028 99.9267 17.2645 100.597 17.0185C101.267 16.7601 101.914 16.631 102.536 16.631C102.932 16.631 103.303 16.6679 103.65 16.7417C103.997 16.8155 104.296 16.9324 104.548 17.0923C104.799 17.2399 104.997 17.4429 105.14 17.7012C105.296 17.9473 105.374 18.2425 105.374 18.587C105.374 18.9807 105.266 19.4359 105.051 19.9526L104.44 20.2478C104.512 19.9526 104.548 19.6696 104.548 19.399C104.548 19.2021 104.524 19.0114 104.476 18.8269C104.44 18.6301 104.374 18.4578 104.278 18.3102C104.183 18.1626 104.051 18.0457 103.883 17.9596C103.728 17.8612 103.53 17.812 103.291 17.812C102.776 17.812 102.249 17.9411 101.71 18.1995C101.172 18.4455 100.645 18.7777 100.13 19.196C99.6274 19.602 99.1485 20.0633 98.6936 20.58C98.2507 21.0844 97.8616 21.6011 97.5264 22.1301C97.1912 22.6591 96.9218 23.1696 96.7183 23.6617C96.5268 24.1538 96.431 24.5782 96.431 24.935C96.431 25.4394 96.5447 25.7715 96.7722 25.9315C96.9996 26.0791 97.3648 26.1529 97.8676 26.1529C98.4661 26.1529 99.0827 25.9622 99.7172 25.5809C100.352 25.1872 101.04 24.6643 101.782 24.0123C101.95 23.8647 102.123 23.7048 102.303 23.5325C102.495 23.348 102.692 23.1512 102.896 22.942C103.027 22.7698 103.159 22.6037 103.291 22.4438C103.422 22.2838 103.554 22.1301 103.686 21.9824C103.901 21.7118 104.159 21.3919 104.458 21.0229C104.769 20.6538 105.092 20.2724 105.428 19.8788C105.775 19.4728 106.122 19.0791 106.469 18.6977C106.828 18.3164 107.163 17.9719 107.475 17.6643C107.798 17.3568 108.085 17.1107 108.337 16.9262C108.588 16.7294 108.786 16.631 108.929 16.631C109.025 16.631 109.157 16.6494 109.324 16.6863C109.492 16.7232 109.654 16.7786 109.809 16.8524C109.977 16.9139 110.114 17 110.222 17.1107C110.342 17.2092 110.402 17.3199 110.402 17.4429C110.402 17.5782 110.312 17.7505 110.132 17.9596C109.965 18.1687 109.755 18.4148 109.504 18.6977L106.523 22.167C106.439 22.2531 106.314 22.3946 106.146 22.5914C105.978 22.7759 105.787 22.9912 105.571 23.2373C105.368 23.4833 105.152 23.7478 104.925 24.0308C104.697 24.3137 104.488 24.5905 104.296 24.8612ZM89.6072 39.1441C90.0621 38.6766 90.5649 38.1353 91.1156 37.5202C91.6543 36.9051 92.229 36.2346 92.8395 35.5088C93.4381 34.7953 94.0546 34.0387 94.6891 33.239C95.3356 32.4517 95.988 31.6397 96.6465 30.8032C95.5451 31.4183 94.4796 32.0519 93.4501 32.7039C92.4205 33.3559 91.4628 34.0018 90.5769 34.6415C89.679 35.2935 88.8709 35.9332 88.1526 36.5606C87.4343 37.2004 86.8418 37.8155 86.3749 38.406C86.1713 38.652 85.9978 38.9227 85.8541 39.2179C85.6985 39.5255 85.6207 39.8208 85.6207 40.1037C85.6207 40.3498 85.7045 40.5527 85.8721 40.7127C86.0277 40.8726 86.315 40.9526 86.734 40.9526C86.9256 40.9526 87.147 40.8972 87.3984 40.7865C87.6379 40.6881 87.8833 40.5527 88.1347 40.3805C88.3861 40.2206 88.6375 40.0299 88.8889 39.8085C89.1403 39.5993 89.3797 39.3779 89.6072 39.1441Z" fill="#222222"/>
<path d="M123.008 24.7874C121.476 25.5132 120.195 26.0791 119.165 26.4851C118.135 26.8911 117.256 27.1986 116.525 27.4078C115.807 27.6046 115.184 27.7276 114.658 27.7768C114.131 27.826 113.598 27.8506 113.059 27.8506C112.64 27.8506 112.239 27.7953 111.856 27.6846C111.485 27.5738 111.156 27.4016 110.869 27.1679C110.581 26.9341 110.354 26.6327 110.186 26.2636C110.019 25.8946 109.935 25.4517 109.935 24.935C109.935 24.3445 110.055 23.7355 110.294 23.1081C110.545 22.4684 110.887 21.8471 111.318 21.2443C111.749 20.6292 112.251 20.051 112.826 19.5097C113.413 18.9684 114.047 18.4947 114.73 18.0888C115.412 17.6705 116.124 17.3445 116.866 17.1107C117.621 16.8647 118.375 16.7417 119.129 16.7417C119.392 16.7417 119.704 16.7663 120.063 16.8155C120.422 16.8647 120.763 16.9631 121.086 17.1107C121.41 17.2461 121.685 17.4368 121.912 17.6828C122.14 17.9288 122.254 18.2425 122.254 18.6239C122.254 18.9684 122.098 19.3251 121.787 19.6942C121.476 20.0633 121.056 20.4385 120.53 20.8199C120.015 21.1889 119.416 21.558 118.734 21.9271C118.052 22.2962 117.345 22.6529 116.615 22.9974C115.897 23.3295 115.172 23.6433 114.442 23.9385C113.712 24.2338 113.036 24.4921 112.413 24.7136C112.389 24.812 112.377 24.9104 112.377 25.0088C112.377 25.1072 112.377 25.2056 112.377 25.3041C112.377 25.7715 112.527 26.1591 112.826 26.4666C113.125 26.7742 113.538 26.928 114.065 26.928C114.532 26.928 114.993 26.9095 115.448 26.8726C115.903 26.8357 116.447 26.7373 117.082 26.5773C117.716 26.4051 118.489 26.1468 119.398 25.8023C120.308 25.4455 121.452 24.9596 122.828 24.3445L123.008 24.7874ZM118.878 17.8858C118.566 17.8858 118.219 17.9781 117.836 18.1626C117.453 18.3348 117.052 18.5747 116.633 18.8823C116.214 19.1775 115.795 19.5281 115.376 19.9341C114.969 20.3401 114.58 20.7768 114.209 21.2443C113.85 21.6995 113.526 22.1731 113.239 22.6652C112.952 23.145 112.736 23.6186 112.593 24.0861C113.119 23.8893 113.664 23.674 114.227 23.4403C114.801 23.2065 115.358 22.9605 115.897 22.7021C116.447 22.4438 116.968 22.1731 117.459 21.8902C117.95 21.5949 118.381 21.2874 118.752 20.9675C119.123 20.6476 119.416 20.3216 119.632 19.9895C119.847 19.645 119.955 19.2882 119.955 18.9192C119.955 18.6239 119.877 18.3779 119.722 18.181C119.578 17.9842 119.297 17.8858 118.878 17.8858Z" fill="#222222"/>
<path d="M128 26.2267C128 26.4359 127.946 26.6327 127.838 26.8172C127.731 27.0018 127.587 27.1617 127.407 27.297C127.24 27.4324 127.042 27.5431 126.815 27.6292C126.587 27.703 126.36 27.7399 126.132 27.7399C125.965 27.7399 125.797 27.7215 125.63 27.6846C125.474 27.6476 125.324 27.58 125.181 27.4816C125.049 27.3831 124.941 27.254 124.857 27.094C124.774 26.9218 124.732 26.7065 124.732 26.4482C124.732 26.2267 124.792 26.036 124.911 25.8761C125.031 25.7162 125.181 25.587 125.36 25.4886C125.54 25.3902 125.743 25.3164 125.971 25.2672C126.198 25.2179 126.42 25.1933 126.635 25.1933C126.994 25.1933 127.294 25.2795 127.533 25.4517C127.785 25.6116 127.94 25.87 128 26.2267Z" fill="#222222"/>
</svg>
