<svg width="142" height="41" viewBox="0 0 142 41" fill="none" xmlns="http://www.w3.org/2000/svg">
<path d="M0.597656 0.0966797H141.598V40.0967H0.597656V0.0966797Z" fill="#222222"/>
<path d="M25.0069 25.6522H21.8421L17.8292 20.1488C17.532 20.1603 17.2901 20.1661 17.1036 20.1661C17.0278 20.1661 16.9462 20.1661 16.8588 20.1661C16.7714 20.1603 16.6811 20.1546 16.5878 20.1488V23.5689C16.5878 24.3096 16.6694 24.7697 16.8326 24.9491C17.0541 25.2037 17.3863 25.3311 17.8292 25.3311H18.2926V25.6522H13.2132V25.3311H13.659C14.1603 25.3311 14.5187 25.169 14.7344 24.8449C14.8568 24.6655 14.918 24.2402 14.918 23.5689V15.9647C14.918 15.224 14.8364 14.7639 14.6732 14.5845C14.4459 14.3299 14.1078 14.2026 13.659 14.2026H13.2132V13.8814H17.532C18.7909 13.8814 19.7176 13.974 20.3121 14.1592C20.9125 14.3386 21.4195 14.6742 21.8333 15.1661C22.253 15.6522 22.4628 16.2338 22.4628 16.9109C22.4628 17.6343 22.2238 18.2622 21.7459 18.7946C21.2738 19.327 20.5394 19.7032 19.5428 19.9231L21.9907 23.2998C22.5502 24.0753 23.0311 24.5903 23.4332 24.8449C23.8354 25.0996 24.3599 25.2616 25.0069 25.3311V25.6522ZM16.5878 19.6019C16.6985 19.6019 16.7947 19.6048 16.8763 19.6106C16.9579 19.6106 17.0249 19.6106 17.0774 19.6106C18.2081 19.6106 19.059 19.3675 19.6302 18.8814C20.2072 18.3953 20.4957 17.7761 20.4957 17.0238C20.4957 16.2888 20.2626 15.6927 19.7963 15.2356C19.3359 14.7726 18.7239 14.5411 17.9604 14.5411C17.6223 14.5411 17.1648 14.5961 16.5878 14.7061V19.6019Z" fill="#FAFAFA"/>
<path d="M31.3977 13.6123C32.9364 13.6123 34.2682 14.1939 35.393 15.3571C36.5237 16.5145 37.0891 17.9613 37.0891 19.6974C37.0891 21.4856 36.5208 22.9699 35.3843 24.1505C34.2478 25.3311 32.8723 25.9213 31.2578 25.9213C29.6259 25.9213 28.2533 25.3455 27.1401 24.1939C26.0327 23.0423 25.479 21.5521 25.479 19.7234C25.479 17.8542 26.1201 16.3293 27.4023 15.1488C28.5156 14.1245 29.8473 13.6123 31.3977 13.6123ZM31.2316 14.246C30.1708 14.246 29.3199 14.6366 28.6788 15.4179C27.8803 16.3901 27.481 17.8137 27.481 19.6887C27.481 21.61 27.8948 23.0886 28.7225 24.1245C29.3578 24.9115 30.1971 25.305 31.2403 25.305C32.3535 25.305 33.2715 24.8739 33.9942 24.0116C34.7228 23.1493 35.0871 21.7894 35.0871 19.9317C35.0871 17.9179 34.6878 16.4161 33.8893 15.4265C33.2482 14.6395 32.3623 14.246 31.2316 14.246Z" fill="#FAFAFA"/>
<path d="M45.1148 25.6522L40.5337 15.7477V23.6123C40.5337 24.3357 40.6124 24.7871 40.7697 24.9665C40.9854 25.2095 41.3263 25.3311 41.7926 25.3311H42.2122V25.6522H38.0858V25.3311H38.5054C39.0066 25.3311 39.3622 25.1806 39.572 24.8797C39.7002 24.6945 39.7643 24.272 39.7643 23.6123V15.9213C39.7643 15.4005 39.706 15.0243 39.5895 14.7929C39.5079 14.625 39.3563 14.4861 39.1349 14.3762C38.9192 14.2605 38.5695 14.2026 38.0858 14.2026V13.8814H41.4429L45.7442 23.0915L49.9756 13.8814H53.3328V14.2026H52.9219C52.4148 14.2026 52.0564 14.353 51.8465 14.654C51.7183 14.8392 51.6542 15.2616 51.6542 15.9213V23.6123C51.6542 24.3357 51.7358 24.7871 51.899 24.9665C52.1146 25.2095 52.4556 25.3311 52.9219 25.3311H53.3328V25.6522H48.2971V25.3311H48.7167C49.2238 25.3311 49.5793 25.1806 49.7833 24.8797C49.9115 24.6945 49.9756 24.272 49.9756 23.6123V15.7477L45.4033 25.6522H45.1148Z" fill="#FAFAFA"/>
<path d="M61.9092 21.7113H57.3194L56.5151 23.5689C56.3169 24.0261 56.2178 24.3675 56.2178 24.5932C56.2178 24.7726 56.3023 24.9318 56.4714 25.0706C56.6462 25.2037 57.0192 25.2905 57.5904 25.3311V25.6522H53.8573V25.3311C54.3527 25.2443 54.6733 25.1314 54.819 24.9925C55.1163 24.7147 55.4456 24.1505 55.8069 23.2998L59.9771 13.6123H60.2831L64.4096 23.404C64.7418 24.191 65.042 24.7032 65.3101 24.9404C65.584 25.1719 65.9629 25.3021 66.4466 25.3311V25.6522H61.7693V25.3311C62.2414 25.3079 62.5591 25.2298 62.7223 25.0967C62.8913 24.9636 62.9758 24.8015 62.9758 24.6106C62.9758 24.3559 62.8593 23.9537 62.6261 23.404L61.9092 21.7113ZM61.6644 21.0689L59.6536 16.312L57.5904 21.0689H61.6644Z" fill="#FAFAFA"/>
<path d="M66.4204 13.8814H69.6376L76.8852 22.7095V15.9213C76.8852 15.198 76.8036 14.7466 76.6404 14.5672C76.4248 14.3241 76.0838 14.2026 75.6176 14.2026H75.2067V13.8814H79.3331V14.2026H78.9135C78.4123 14.2026 78.0567 14.353 77.8469 14.654C77.7187 14.8392 77.6546 15.2616 77.6546 15.9213V25.8432H77.3398L69.524 16.364V23.6123C69.524 24.3357 69.6027 24.7871 69.76 24.9665C69.9815 25.2095 70.3225 25.3311 70.7829 25.3311H71.2026V25.6522H67.0761V25.3311H67.487C67.994 25.3311 68.3525 25.1806 68.5623 24.8797C68.6905 24.6945 68.7547 24.272 68.7547 23.6123V15.4265C68.4108 15.0272 68.1485 14.7639 67.9678 14.6366C67.793 14.5093 67.5336 14.3907 67.1897 14.2807C67.0207 14.2286 66.7643 14.2026 66.4204 14.2026V13.8814Z" fill="#FAFAFA"/>
<path d="M87.7435 20.1401V23.5689C87.7435 24.3096 87.8251 24.7697 87.9883 24.9491C88.2098 25.2037 88.5449 25.3311 88.9937 25.3311H89.4483V25.6522H84.3689V25.3311H84.8147C85.316 25.3311 85.6744 25.169 85.8901 24.8449C86.0066 24.6655 86.0649 24.2402 86.0649 23.5689V15.9647C86.0649 15.224 85.9862 14.7639 85.8289 14.5845C85.6016 14.3299 85.2635 14.2026 84.8147 14.2026H84.3689V13.8814H88.7139C89.7747 13.8814 90.6111 13.9914 91.223 14.2113C91.835 14.4254 92.3508 14.79 92.7705 15.305C93.1901 15.8201 93.3999 16.4306 93.3999 17.1366C93.3999 18.0973 93.0794 18.8785 92.4382 19.4804C91.803 20.0822 90.9025 20.3831 89.7368 20.3831C89.4512 20.3831 89.1423 20.3629 88.8101 20.3224C88.4779 20.2819 88.1223 20.2211 87.7435 20.1401ZM87.7435 19.6453C88.0524 19.7032 88.3263 19.7466 88.5653 19.7755C88.8043 19.8044 89.0082 19.8189 89.1773 19.8189C89.7834 19.8189 90.3051 19.5874 90.7422 19.1245C91.1851 18.6557 91.4066 18.051 91.4066 17.3102C91.4066 16.801 91.3017 16.3293 91.0919 15.8953C90.8821 15.4555 90.5848 15.1285 90.2001 14.9144C89.8155 14.6945 89.3783 14.5845 88.8888 14.5845C88.5915 14.5845 88.2098 14.6395 87.7435 14.7495V19.6453Z" fill="#FAFAFA"/>
<path d="M100.586 21.7113H95.9965L95.1922 23.5689C94.994 24.0261 94.8949 24.3675 94.8949 24.5932C94.8949 24.7726 94.9794 24.9318 95.1484 25.0706C95.3233 25.2037 95.6963 25.2905 96.2675 25.3311V25.6522H92.5344V25.3311C93.0298 25.2443 93.3504 25.1314 93.4961 24.9925C93.7933 24.7147 94.1226 24.1505 94.484 23.2998L98.6542 13.6123H98.9602L103.087 23.404C103.419 24.191 103.719 24.7032 103.987 24.9404C104.261 25.1719 104.64 25.3021 105.124 25.3311V25.6522H100.446V25.3311C100.919 25.3079 101.236 25.2298 101.399 25.0967C101.568 24.9636 101.653 24.8015 101.653 24.6106C101.653 24.3559 101.536 23.9537 101.303 23.404L100.586 21.7113ZM100.342 21.0689L98.3307 16.312L96.2675 21.0689H100.342Z" fill="#FAFAFA"/>
<path d="M113.875 14.2026V13.8814H118.071V14.2026H117.626C117.159 14.2026 116.801 14.3964 116.55 14.7842C116.428 14.9636 116.367 15.3802 116.367 16.0342V20.8085C116.367 21.989 116.247 22.9063 116.008 23.5602C115.775 24.2084 115.312 24.7668 114.618 25.2356C113.93 25.6985 112.992 25.93 111.803 25.93C110.509 25.93 109.527 25.7072 108.857 25.2616C108.187 24.816 107.711 24.2171 107.432 23.4647C107.245 22.9497 107.152 21.9833 107.152 20.5654V15.9647C107.152 15.2414 107.05 14.7668 106.846 14.5411C106.648 14.3154 106.324 14.2026 105.876 14.2026H105.43V13.8814H110.553V14.2026H110.098C109.609 14.2026 109.259 14.3559 109.049 14.6627C108.903 14.871 108.831 15.305 108.831 15.9647V21.0949C108.831 21.5521 108.871 22.0758 108.953 22.6661C109.04 23.2564 109.195 23.7165 109.416 24.0463C109.638 24.3762 109.955 24.6482 110.369 24.8623C110.789 25.0764 111.302 25.1835 111.908 25.1835C112.683 25.1835 113.377 25.0157 113.989 24.68C114.601 24.3444 115.017 23.9161 115.239 23.3953C115.466 22.8687 115.58 21.9804 115.58 20.7304V15.9647C115.58 15.2298 115.498 14.7697 115.335 14.5845C115.108 14.3299 114.77 14.2026 114.321 14.2026H113.875Z" fill="#FAFAFA"/>
<path d="M128.536 22.397L128.825 22.4578L127.811 25.6522H118.631V25.3311H119.077C119.578 25.3311 119.937 25.169 120.152 24.8449C120.275 24.6598 120.336 24.2315 120.336 23.5602V15.9647C120.336 15.2298 120.254 14.7697 120.091 14.5845C119.864 14.3299 119.526 14.2026 119.077 14.2026H118.631V13.8814H123.999V14.2026C123.369 14.1968 122.926 14.2547 122.67 14.3762C122.419 14.4977 122.247 14.6511 122.154 14.8363C122.061 15.0214 122.014 15.4642 122.014 16.1644V23.5602C122.014 24.0405 122.061 24.3704 122.154 24.5498C122.224 24.6713 122.332 24.761 122.478 24.8189C122.623 24.8768 123.078 24.9057 123.842 24.9057H124.707C125.616 24.9057 126.254 24.8392 126.622 24.7061C126.989 24.573 127.324 24.3386 127.627 24.0029C127.93 23.6615 128.233 23.1262 128.536 22.397Z" fill="#FAFAFA"/>
</svg>
