<svg width="76" height="82" viewBox="0 0 76 82" fill="none" xmlns="http://www.w3.org/2000/svg">
<mask id="mask0_64_595" style="mask-type:alpha" maskUnits="userSpaceOnUse" x="0" y="0" width="76" height="82">
<path d="M17.7903 14.4506C17.7515 14.4861 17.6869 14.5442 17.5997 14.6282C17.5125 14.7089 17.4221 14.7961 17.3285 14.8833C17.2348 14.9705 17.1444 15.0544 17.0572 15.1384C16.97 15.2191 16.9054 15.2805 16.8667 15.316L16.7085 15.4613C16.6697 15.4969 16.6051 15.555 16.5179 15.6389C16.4307 15.7197 16.3403 15.8069 16.2467 15.8941C16.153 15.9812 16.0626 16.0652 15.9754 16.1492C15.8882 16.2299 15.8236 16.2913 15.7849 16.3268L15.759 16.3332L15.646 16.1621V16.0975C15.7364 16.0168 15.8172 15.9328 15.8882 15.8488C15.9593 15.7649 16.0045 15.6809 16.0174 15.597C16.0271 15.5162 16.0174 15.429 15.998 15.3354C15.9786 15.2417 15.9044 15.1093 15.7752 14.9382C15.7461 14.8962 15.7074 14.8445 15.6589 14.7896C15.6137 14.7347 15.5556 14.6669 15.4846 14.5862C15.4167 14.5055 15.3296 14.4118 15.2262 14.302C15.1229 14.1922 14.9937 14.0534 14.8419 13.8887L13.9539 12.9393L11.012 15.6842L11.7451 16.4689C11.9291 16.6659 12.0809 16.8273 12.1972 16.9533C12.3134 17.076 12.4103 17.1793 12.491 17.26C12.5717 17.3408 12.6396 17.4086 12.6945 17.4635C12.7526 17.5184 12.8139 17.5765 12.8818 17.6379C13.0368 17.7832 13.1627 17.8671 13.2564 17.8897C13.35 17.9156 13.4404 17.9253 13.5179 17.922C13.6051 17.9156 13.6891 17.8768 13.7763 17.8122C13.8635 17.7444 13.9507 17.6702 14.0411 17.5894H14.1057L14.2704 17.7186L14.2607 17.7412C14.2219 17.7767 14.1573 17.8348 14.0701 17.9188C13.9829 17.9995 13.8925 18.0867 13.7989 18.1739C13.7052 18.2611 13.6148 18.3451 13.5276 18.429C13.4404 18.5098 13.3758 18.5711 13.3371 18.6066L13.1789 18.752C13.1401 18.7875 13.0755 18.8456 12.9883 18.9296C12.9011 19.0103 12.8107 19.0975 12.7171 19.1847C12.6234 19.2719 12.533 19.3558 12.4458 19.4398C12.3586 19.5205 12.294 19.5819 12.2553 19.6174L12.2294 19.6239L12.1164 19.4527L12.1261 19.3817C12.2133 19.3009 12.294 19.217 12.3618 19.1395C12.4297 19.0587 12.4716 18.978 12.4878 18.8908C12.4975 18.8101 12.491 18.7229 12.4781 18.6228C12.462 18.5227 12.3877 18.3903 12.2553 18.2256C12.2198 18.1868 12.1778 18.1416 12.1326 18.0867C12.0874 18.0318 12.0292 17.964 11.9582 17.8865C11.8904 17.8058 11.8032 17.7121 11.6998 17.6023C11.5965 17.4925 11.4673 17.3537 11.3156 17.189L9.74936 15.5098C9.56852 15.316 9.41675 15.1546 9.29403 15.0222C9.17132 14.8898 9.06475 14.78 8.97433 14.6863C8.88391 14.5959 8.80641 14.5184 8.74182 14.4538C8.67724 14.3892 8.61266 14.3279 8.54484 14.2665C8.39629 14.1276 8.27035 14.0437 8.17347 14.0178C8.07659 13.992 7.98617 13.9791 7.90544 13.9791C7.82148 13.9856 7.73429 14.0211 7.65033 14.0857C7.56637 14.1502 7.47918 14.2213 7.39199 14.3053L7.32094 14.3117L7.15625 14.1858L7.16594 14.1632C7.20469 14.1276 7.26927 14.0695 7.35646 13.9855C7.44366 13.9048 7.53408 13.8176 7.62772 13.7304C7.72137 13.6432 7.81179 13.5593 7.89899 13.4753C7.98618 13.3946 8.05076 13.3332 8.08951 13.2977L8.24775 13.1524C8.2865 13.1169 8.35108 13.0587 8.43827 12.9748C8.52546 12.8941 8.61588 12.8069 8.70953 12.7197C8.80318 12.6325 8.8936 12.5485 8.98079 12.4646C9.06798 12.3838 9.13257 12.3225 9.17132 12.287L9.19715 12.2805L9.31018 12.4516V12.5162C9.21976 12.597 9.13903 12.6809 9.06798 12.7649C8.99694 12.8488 8.95173 12.9328 8.93881 13.0168C8.92912 13.0975 8.93558 13.1847 8.95496 13.2816C8.97433 13.3784 9.04861 13.5076 9.18101 13.6723C9.24882 13.753 9.31018 13.8305 9.36831 13.8984C9.42643 13.9662 9.49748 14.0469 9.57498 14.1373C9.65571 14.2277 9.75259 14.3375 9.87207 14.4635C9.99156 14.5894 10.1433 14.7541 10.3274 14.9511L10.6729 15.3225L13.6148 12.5776L13.2757 12.2127C13.0949 12.0189 12.9431 11.8575 12.8204 11.7251C12.6977 11.5927 12.5911 11.4829 12.5007 11.3892C12.4103 11.2988 12.3328 11.2213 12.2682 11.1567C12.2036 11.0921 12.139 11.0308 12.0712 10.9694C11.9162 10.8241 11.7903 10.7401 11.6966 10.7175C11.603 10.6917 11.5125 10.682 11.435 10.6852C11.3511 10.6917 11.2639 10.7304 11.1767 10.795C11.0895 10.8628 11.0023 10.9371 10.9119 11.0178H10.8473L10.6826 10.8887L10.6923 10.8661C10.7311 10.8305 10.7956 10.7724 10.8828 10.6885C10.97 10.6077 11.0604 10.5205 11.1541 10.4333C11.2477 10.3462 11.3382 10.2622 11.4254 10.1782C11.5125 10.0975 11.5771 10.0361 11.6159 10.0006L11.7741 9.8553C11.8129 9.81978 11.8775 9.76166 11.9646 9.67769C12.0518 9.59696 12.1423 9.50977 12.2359 9.42258C12.3296 9.33539 12.42 9.25143 12.5072 9.16747C12.5944 9.08674 12.6589 9.02538 12.6977 8.98986L12.7235 8.9834L12.8365 9.15455L12.8269 9.22559C12.7397 9.30633 12.6589 9.39029 12.5911 9.46779C12.5201 9.54852 12.4813 9.62925 12.4652 9.71644C12.4555 9.79718 12.462 9.88437 12.4749 9.98448C12.491 10.0846 12.5653 10.217 12.6977 10.3817C12.7655 10.4656 12.8269 10.5399 12.885 10.6077C12.9431 10.6755 13.0142 10.7563 13.0981 10.8435C13.1789 10.9307 13.2822 11.0404 13.3984 11.1664C13.5179 11.2923 13.6697 11.457 13.8538 11.654L15.2714 13.175C15.4555 13.372 15.6073 13.5335 15.7235 13.6594C15.8398 13.7821 15.9367 13.8854 16.0142 13.9694C16.0917 14.0534 16.1595 14.1212 16.2144 14.1761C16.2725 14.231 16.3339 14.2891 16.4017 14.3505C16.5567 14.4958 16.6826 14.5765 16.7795 14.5991C16.8764 14.6217 16.9668 14.6314 17.0475 14.6282C17.1347 14.6217 17.2187 14.5862 17.3026 14.5216C17.3866 14.457 17.4738 14.386 17.561 14.302L17.632 14.2956L17.7967 14.4215L17.787 14.4441L17.7903 14.4506Z" fill="url(#paint0_linear_64_595)"/>
<path d="M23.5707 3.14769C23.6611 3.11216 23.8 3.05727 23.9873 2.98622C24.1746 2.91518 24.3619 2.84091 24.5524 2.76986C24.7429 2.69559 24.9141 2.631 25.0626 2.57288C25.2144 2.51475 25.308 2.47923 25.3436 2.46631L25.434 2.54058L25.8344 3.70312L25.5696 3.80646L25.5115 3.78062C25.434 3.62239 25.3662 3.50291 25.3048 3.41895C25.2434 3.33498 25.1498 3.29623 25.0142 3.29623C24.8818 3.29623 24.7009 3.34467 24.4684 3.43509C24.2359 3.52551 23.9098 3.65145 23.4867 3.81292L22.476 4.20366L22.6116 4.61701C22.6471 4.73003 22.6794 4.82691 22.7052 4.90441C22.7311 4.98192 22.7634 5.07879 22.8021 5.18859C22.8409 5.30161 22.8925 5.43402 22.9507 5.59225C23.012 5.74726 23.1573 6.12508 23.3866 6.7225C23.5965 6.64177 23.8096 6.56103 24.0195 6.47707C24.2295 6.39634 24.4232 6.32207 24.5944 6.25425C24.7655 6.18644 24.9076 6.11862 25.0174 6.04758C25.1272 5.97653 25.195 5.90872 25.2176 5.8409C25.2531 5.7634 25.279 5.6859 25.2983 5.61486C25.3177 5.54058 25.308 5.45016 25.266 5.3436L25.2983 5.27255L25.4695 5.18213H25.5212C25.5696 5.35328 25.6116 5.4986 25.6471 5.62131C25.6826 5.74403 25.7311 5.88289 25.7892 6.03789C25.8538 6.20581 25.9184 6.36082 25.9862 6.49968C26.0508 6.63854 26.125 6.79031 26.2025 6.95501L26.1702 6.99376L25.9733 7.04543L25.9184 7.02928C25.8732 6.91625 25.8118 6.81938 25.7343 6.73865C25.6536 6.65791 25.5761 6.59656 25.4921 6.55457C25.434 6.52874 25.3403 6.52874 25.2112 6.55457C25.082 6.58041 24.9367 6.62562 24.7655 6.69021C24.5976 6.75479 24.4071 6.82906 24.1972 6.9098C23.9873 6.99053 23.7709 7.07449 23.5545 7.15845L23.9485 8.17567C24.0454 8.42756 24.1261 8.63423 24.1842 8.78924C24.2456 8.94747 24.3005 9.08633 24.3522 9.20581C24.4038 9.32853 24.4523 9.43832 24.4975 9.5352C24.5427 9.63531 24.6008 9.74833 24.6654 9.87427C24.7171 10.0067 24.814 10.0487 24.9528 9.99376L25.8505 9.64822C26.2736 9.48676 26.5997 9.3479 26.8355 9.23811C27.0712 9.12831 27.2424 9.01851 27.3457 8.91518C27.449 8.80861 27.5072 8.68913 27.5136 8.5535C27.5201 8.41787 27.5136 8.24349 27.491 8.03681L27.5169 7.97869L27.7913 7.87212L28.1143 9.27363L28.0691 9.40926C28.0335 9.42217 27.9528 9.45447 27.8269 9.50291C27.7009 9.55135 27.5588 9.60624 27.4006 9.6676C27.2424 9.72896 27.0841 9.79031 26.9259 9.85167C26.7677 9.91303 26.6417 9.96146 26.5513 9.99699L24.42 10.8205C24.3715 10.8398 24.2908 10.8721 24.1778 10.9141C24.0648 10.9561 23.9485 11.0013 23.829 11.0497C23.7095 11.0949 23.5933 11.1402 23.4803 11.1854C23.3672 11.2273 23.2865 11.2596 23.2381 11.279H23.2122L23.1702 11.0756L23.2058 11.0142C23.3188 10.9722 23.4221 10.9238 23.5158 10.8753C23.6094 10.8269 23.6805 10.7656 23.7225 10.6913C23.7612 10.6202 23.7903 10.5363 23.8129 10.4394C23.8355 10.3425 23.8129 10.1907 23.7547 9.99053C23.7354 9.94209 23.716 9.88396 23.6934 9.81615C23.6708 9.74833 23.6417 9.66437 23.6094 9.56426C23.5739 9.46416 23.5319 9.34467 23.477 9.20258C23.4221 9.06049 23.3543 8.88612 23.2736 8.67621L22.4469 6.5352C22.3532 6.28977 22.2725 6.0831 22.2079 5.91195C22.1433 5.74403 22.0884 5.59871 22.04 5.47923C21.9948 5.35974 21.9528 5.25964 21.9173 5.17567C21.8818 5.09171 21.843 5.01098 21.8043 4.93025C21.7171 4.74618 21.6299 4.62347 21.5459 4.56211C21.462 4.50075 21.3812 4.45877 21.307 4.42971C21.2262 4.40388 21.1326 4.4071 21.0292 4.43294C20.9259 4.45877 20.8193 4.4943 20.7063 4.53951L20.6385 4.5169L20.5352 4.33929L20.5513 4.31991C20.5997 4.30054 20.6805 4.26825 20.7935 4.22627C20.9065 4.18428 21.026 4.13585 21.1584 4.08741C21.2876 4.03574 21.4135 3.9873 21.5395 3.94209C21.6622 3.89365 21.7623 3.8549 21.8398 3.82584L23.5707 3.15738V3.14769Z" fill="url(#paint1_linear_64_595)"/>
<path d="M35.3345 1.6688C35.3152 1.4589 35.2764 1.31358 35.2215 1.22962C35.1666 1.14889 35.1085 1.08107 35.0471 1.0294C34.9793 0.977735 34.8921 0.948671 34.7856 0.938983C34.679 0.929295 34.566 0.926066 34.4465 0.929296L34.3884 0.884086L34.3496 0.680641L34.3722 0.667724C34.4239 0.667724 34.5111 0.664495 34.6338 0.661266C34.7533 0.661266 34.8792 0.654807 35.0052 0.651577C35.1343 0.651577 35.257 0.645119 35.3765 0.64189C35.496 0.64189 35.5832 0.635431 35.6349 0.635431L35.848 0.628973C35.8997 0.628973 35.9869 0.625743 36.1063 0.622514C36.2258 0.622514 36.3518 0.616056 36.4777 0.612826C36.6036 0.609597 36.7296 0.606368 36.8491 0.603138C36.9686 0.603138 37.0557 0.59668 37.1074 0.59668L37.13 0.606368L37.101 0.809813L37.0557 0.855022C36.9363 0.855022 36.82 0.867939 36.7102 0.880856C36.6004 0.893773 36.5132 0.929295 36.4454 0.984193C36.3873 1.03909 36.3292 1.11013 36.2743 1.19733C36.2194 1.28452 36.1871 1.42983 36.1774 1.63328C36.1709 1.73984 36.1677 1.83672 36.1677 1.92714C36.1677 2.01756 36.1677 2.12413 36.1677 2.24361C36.1677 2.3631 36.1742 2.51164 36.1774 2.68279C36.1806 2.85718 36.1871 3.07677 36.1935 3.34803L36.2452 5.42768C36.2517 5.69248 36.2581 5.90884 36.2613 6.08322C36.2646 6.25761 36.271 6.40615 36.2775 6.53532C36.2839 6.66449 36.2936 6.78398 36.3033 6.897C36.313 7.01003 36.3227 7.1392 36.3356 7.28129C36.3453 7.42337 36.426 7.49442 36.5778 7.49119L37.5369 7.46859C37.989 7.4589 38.3281 7.43952 38.5574 7.41369C38.7866 7.38785 38.9513 7.34587 39.0514 7.28129C39.1515 7.21993 39.2129 7.12628 39.2323 7.00034C39.2517 6.8744 39.2839 6.7097 39.3324 6.50626L39.3647 6.46105L39.6585 6.45459L39.4906 7.88516L39.4034 7.99819C39.3647 7.99819 39.2969 7.99819 39.1935 8.00464C39.0934 8.00464 38.9739 8.0111 38.8448 8.01433C38.7124 8.01756 38.5767 8.02079 38.4379 8.02402C38.299 8.02725 38.1795 8.03048 38.0827 8.03371L35.7996 8.08861C35.7479 8.08861 35.6607 8.09184 35.538 8.09506C35.4185 8.09506 35.2926 8.10152 35.1666 8.10475C35.0374 8.10475 34.9147 8.11121 34.7953 8.11444C34.6758 8.11444 34.5886 8.1209 34.5369 8.1209L34.5143 8.11121L34.5434 7.90777L34.5983 7.86256C34.7177 7.86256 34.8308 7.84964 34.9373 7.83672C35.0439 7.82381 35.1279 7.78828 35.1957 7.73339C35.2538 7.67849 35.3087 7.60099 35.3604 7.50411C35.412 7.404 35.4443 7.26514 35.4637 7.0843C35.4702 7.03263 35.4734 6.96805 35.4766 6.897C35.4766 6.82596 35.4766 6.73554 35.4766 6.6322C35.4766 6.52564 35.4702 6.39969 35.4669 6.24792C35.4637 6.09614 35.4573 5.90884 35.454 5.68279L35.3991 3.39001C35.3927 3.1252 35.3862 2.90561 35.383 2.72478C35.3797 2.54394 35.3733 2.38893 35.3668 2.26299C35.3604 2.13382 35.3539 2.02725 35.3475 1.93683C35.341 1.84641 35.3345 1.75599 35.3249 1.66557L35.3345 1.6688Z" fill="url(#paint2_linear_64_595)"/>
<path d="M51.0811 2.80888C51.1748 2.83795 51.3169 2.88638 51.5042 2.94774C51.6947 3.0091 51.8852 3.07368 52.079 3.13827C52.2727 3.20285 52.4471 3.25775 52.5989 3.30942C52.7539 3.36109 52.8476 3.39015 52.8831 3.40307L52.9057 3.51609L52.4794 4.66895L52.2114 4.58176L52.1823 4.52363C52.2211 4.35248 52.2469 4.21362 52.2534 4.11351C52.2598 4.01017 52.2114 3.91975 52.108 3.83579C52.0047 3.75506 51.8336 3.67433 51.5978 3.59683C51.3621 3.51932 51.0295 3.40953 50.6 3.26744L49.5698 2.92837L49.4116 3.33525C49.3664 3.44505 49.3309 3.5387 49.3018 3.6162C49.2727 3.6937 49.2372 3.78735 49.1952 3.90038C49.1533 4.0134 49.108 4.14903 49.0564 4.30727C49.0047 4.4655 48.8788 4.84979 48.6786 5.45689C48.8917 5.52793 49.108 5.59898 49.3212 5.67002C49.5343 5.74107 49.7313 5.80565 49.9057 5.86378C50.0801 5.92191 50.2351 5.95743 50.3642 5.97357C50.4934 5.98972 50.5903 5.9768 50.6484 5.94128C50.7259 5.90253 50.7937 5.86055 50.8551 5.81857C50.9164 5.77336 50.9649 5.69909 51.0004 5.58929L51.0714 5.55377L51.262 5.59252L51.2975 5.62804C51.2297 5.78628 51.1683 5.92514 51.1199 6.04462C51.0682 6.1641 51.0166 6.29973 50.9649 6.45797C50.91 6.62912 50.8615 6.79058 50.8228 6.93913C50.784 7.08768 50.7453 7.25237 50.7033 7.42675L50.6549 7.43321L50.4676 7.34925L50.4353 7.30404C50.474 7.18778 50.487 7.07476 50.4773 6.96173C50.4676 6.84871 50.445 6.75183 50.4094 6.66787C50.3804 6.60974 50.3093 6.55162 50.1963 6.48703C50.0801 6.42567 49.938 6.36432 49.7668 6.30942C49.5957 6.25129 49.4019 6.18994 49.1856 6.11889C48.9724 6.04785 48.7528 5.9768 48.53 5.90253L48.1877 6.93913C48.1037 7.19424 48.0359 7.40415 47.981 7.56561C47.9294 7.72707 47.8841 7.86916 47.8454 7.9951C47.8066 8.12105 47.7744 8.2373 47.7485 8.34386C47.7227 8.45043 47.6936 8.57314 47.6613 8.712C47.6161 8.84763 47.6646 8.93805 47.8099 8.98649L48.7238 9.28682C49.1533 9.4289 49.4956 9.53224 49.7474 9.5936C49.9993 9.65818 50.1995 9.68079 50.3481 9.66787C50.4966 9.65172 50.6161 9.59683 50.7098 9.49349C50.8034 9.39338 50.9068 9.25452 51.0198 9.07691L51.0779 9.04785L51.3556 9.13827L50.7162 10.4268L50.5967 10.5043C50.5612 10.4913 50.4773 10.4655 50.3513 10.4235C50.2221 10.3815 50.0768 10.3331 49.9154 10.2814C49.7539 10.2298 49.5924 10.1749 49.431 10.1232C49.2695 10.0715 49.1436 10.0295 49.0499 9.99726L46.8798 9.28359C46.8282 9.26744 46.7474 9.23838 46.6344 9.20285C46.5214 9.1641 46.4019 9.12535 46.2792 9.0866C46.1565 9.04785 46.0402 9.0091 45.924 8.97035C45.8077 8.93159 45.727 8.90576 45.6786 8.88961L45.6592 8.87024L45.7561 8.68617L45.8239 8.66033C45.9369 8.69909 46.0467 8.72815 46.15 8.75075C46.2534 8.77336 46.347 8.77013 46.4277 8.74107C46.502 8.70877 46.5795 8.66356 46.657 8.60221C46.7378 8.54085 46.8153 8.41168 46.896 8.21792C46.9121 8.16948 46.9347 8.10813 46.9606 8.04354C46.9864 7.97573 47.0187 7.895 47.0542 7.79489C47.0897 7.69478 47.1317 7.5753 47.1802 7.43321C47.2286 7.29112 47.2867 7.11028 47.3578 6.89715L48.0747 4.71739C48.1586 4.4655 48.2265 4.2556 48.2846 4.08445C48.3427 3.9133 48.3879 3.76475 48.4299 3.64527C48.4687 3.52255 48.5009 3.41922 48.5268 3.33202C48.5526 3.24483 48.5752 3.15764 48.5946 3.07045C48.643 2.87347 48.6559 2.72492 48.6301 2.62481C48.6043 2.52471 48.5688 2.44074 48.53 2.3697C48.4816 2.29866 48.4105 2.24053 48.3136 2.19855C48.2168 2.15334 48.1102 2.11459 47.9972 2.07584L47.9584 2.01448L47.9907 1.81104H48.0166C48.065 1.82395 48.149 1.84979 48.262 1.88854C48.375 1.92729 48.5009 1.96604 48.6333 2.01125C48.7657 2.05646 48.8949 2.09844 49.0209 2.13719C49.1468 2.17917 49.2469 2.21147 49.3276 2.2373L51.0876 2.81857L51.0811 2.80888Z" fill="url(#paint3_linear_64_595)"/>
<path d="M66.969 12.6192L66.8237 12.7581H66.7526C66.659 12.6774 66.5686 12.6095 66.4782 12.5482C66.3877 12.4868 66.3005 12.4578 66.223 12.4578C66.1423 12.4578 66.0583 12.4771 65.9679 12.5094C65.8775 12.5417 65.758 12.6321 65.6095 12.7839C65.5352 12.8582 65.4674 12.9325 65.406 12.9971C65.3447 13.0649 65.2736 13.1424 65.1929 13.2328C65.1122 13.3232 65.0153 13.433 64.9055 13.5654C64.7925 13.6978 64.6504 13.869 64.476 14.0756L63.194 15.5999C62.9227 15.9228 62.6999 16.1908 62.5287 16.4007C62.3576 16.6106 62.209 16.7915 62.0896 16.94C61.9701 17.0886 61.8635 17.2242 61.7763 17.3469C61.6891 17.4696 61.5923 17.6052 61.4857 17.7538L61.3953 17.7215L60.8592 17.2694V17.0918L61.6698 9.87434C61.6213 9.93247 61.5729 9.98737 61.5212 10.0423C61.4695 10.0972 61.4082 10.1682 61.3371 10.2522C61.2661 10.3361 61.1854 10.433 61.0949 10.5428C61.0013 10.6526 60.8883 10.7882 60.7526 10.9497L59.4157 12.5417C59.3576 12.6095 59.2801 12.7032 59.1864 12.813C59.0928 12.926 58.9959 13.0423 58.8958 13.1682C58.7957 13.2909 58.702 13.4104 58.6084 13.5267C58.518 13.6429 58.4437 13.7366 58.392 13.8108C58.2822 13.9658 58.2144 14.095 58.1918 14.1983C58.1692 14.3017 58.1692 14.3986 58.1918 14.4858C58.208 14.56 58.2499 14.6343 58.3145 14.7086C58.3791 14.7828 58.4695 14.87 58.5858 14.9669L58.5987 15.038L58.4921 15.2156L58.4663 15.2091C58.4276 15.1736 58.363 15.1219 58.279 15.0541C58.1951 14.9831 58.1079 14.9088 58.0142 14.8313C57.9206 14.7538 57.8334 14.6795 57.7494 14.6085C57.6655 14.5374 57.6041 14.4858 57.5621 14.4535L57.3974 14.3146C57.3554 14.2823 57.2909 14.2242 57.1972 14.1467C57.1036 14.0692 57.0099 13.9884 56.913 13.9077C56.8161 13.8238 56.7193 13.7462 56.6289 13.6687C56.5352 13.5912 56.4706 13.5363 56.4286 13.5008L56.4189 13.4782L56.5772 13.3458H56.6482C56.7516 13.4362 56.842 13.5041 56.9227 13.5557C57.0034 13.6074 57.0874 13.6365 57.1778 13.6461C57.2424 13.6526 57.3231 13.6397 57.4233 13.6074C57.5234 13.5783 57.6493 13.4847 57.8075 13.3329C57.8463 13.2974 57.8915 13.2522 57.9399 13.2005C57.9884 13.1488 58.0465 13.081 58.1143 13.0003C58.1821 12.9196 58.2661 12.8227 58.363 12.7064C58.4599 12.5902 58.5826 12.4481 58.7279 12.2737L60.2037 10.517C60.3748 10.3135 60.5169 10.1456 60.6332 10.0067C60.7494 9.86789 60.8495 9.7484 60.9302 9.65152C61.0142 9.55465 61.082 9.46746 61.1369 9.39641C61.1918 9.32537 61.2467 9.25109 61.2984 9.17682C61.3888 9.04442 61.4502 8.92171 61.4792 8.80545C61.5083 8.6892 61.5148 8.58586 61.4986 8.5019C61.4792 8.41794 61.4372 8.34044 61.3662 8.26616C61.2952 8.19189 61.2112 8.11439 61.1143 8.03043L61.0982 7.95938L61.2015 7.785L61.2467 7.76562C61.2855 7.79792 61.3436 7.85282 61.4179 7.92063C61.4921 7.99168 61.5664 8.06272 61.6439 8.13376C61.7214 8.20804 61.7957 8.27908 61.87 8.3469C61.9442 8.41794 62.0024 8.46961 62.0411 8.5019L62.3447 8.75701C62.3899 8.79577 62.4545 8.85066 62.5384 8.92171C62.6224 8.99275 62.6967 9.04119 62.7645 9.06702L62.7871 9.12838C62.7419 9.22849 62.6967 9.38026 62.6482 9.58048C62.603 9.78392 62.5546 10.0132 62.5126 10.2715C62.4674 10.5299 62.4222 10.8076 62.377 11.1015C62.3318 11.3953 62.2865 11.6924 62.2478 11.9831C62.096 13.0552 61.9959 13.9497 61.9475 14.6698C61.899 15.3867 61.8667 15.8517 61.8474 16.0616C61.8797 16.0229 61.9152 15.9841 61.9475 15.9518C61.9798 15.9196 62.0153 15.8808 62.054 15.8356C62.0928 15.7904 62.1412 15.7323 62.1994 15.6612C62.2575 15.5934 62.335 15.4997 62.4319 15.3835L63.9109 13.6268C64.082 13.4233 64.2241 13.2554 64.3404 13.1165C64.4566 12.9777 64.5535 12.8582 64.6342 12.7581C64.715 12.658 64.7828 12.5708 64.8377 12.4997C64.8926 12.4287 64.9475 12.3544 64.9991 12.2802C65.1219 12.109 65.1929 11.9734 65.2058 11.8765C65.2187 11.7796 65.2187 11.6892 65.2058 11.6117C65.1864 11.5277 65.1412 11.447 65.0637 11.3663C64.9862 11.2888 64.9023 11.208 64.8118 11.1305L64.8054 11.0692L64.9087 10.8948L64.9539 10.8754C64.9927 10.9077 65.0508 10.9594 65.1219 11.0272C65.1929 11.095 65.2639 11.1628 65.3382 11.2339C65.4125 11.3049 65.4835 11.3727 65.5546 11.4405C65.6256 11.5084 65.6805 11.56 65.7225 11.5923L66.1294 11.9346C66.1681 11.9669 66.2263 12.0154 66.3038 12.0799C66.378 12.1413 66.4588 12.2059 66.546 12.2672C66.6299 12.3286 66.7139 12.39 66.7946 12.4448C66.8754 12.503 66.9367 12.545 66.9819 12.574L66.9625 12.616L66.969 12.6192Z" fill="url(#paint4_linear_64_595)"/>
<path d="M17.6992 64.6398L17.5151 64.7334L17.4505 64.7238C17.3795 64.6269 17.3052 64.5365 17.2309 64.4557C17.1567 64.375 17.0792 64.3233 16.9952 64.3007C16.9177 64.2846 16.8273 64.2781 16.7304 64.2846C16.6335 64.291 16.4947 64.3524 16.3138 64.4654C16.2234 64.5235 16.1427 64.5752 16.0684 64.6269C15.9941 64.6785 15.9069 64.7367 15.8068 64.8077C15.7067 64.8755 15.5872 64.9627 15.4484 65.0661C15.3095 65.1694 15.1287 65.3018 14.9123 65.4633L13.2395 66.7033C13.02 66.8648 12.8391 67.0004 12.6906 67.1102C12.542 67.22 12.4161 67.3104 12.3095 67.3847C12.203 67.459 12.1125 67.5235 12.0383 67.5784C11.964 67.6333 11.8929 67.6882 11.8251 67.7367C11.5829 67.9175 11.3214 68.0661 11.0469 68.1855C10.7692 68.305 10.4979 68.3858 10.2331 68.4277C9.96829 68.4697 9.71641 68.4633 9.48067 68.4084C9.24493 68.3535 9.03826 68.2469 8.86065 68.0854C8.81221 68.0467 8.767 67.995 8.72179 67.9369C8.67658 67.8755 8.63783 67.8206 8.59908 67.7722L8.57324 67.6785L8.75408 67.5138H8.83159C8.88971 67.5914 8.94138 67.6624 8.98659 67.7205C9.0318 67.7819 9.0867 67.8335 9.15774 67.8755C9.25462 67.9175 9.36119 67.9466 9.47744 67.9627C9.77131 68.0079 10.162 67.8723 10.6432 67.5591C11.1244 67.2458 11.7702 66.7873 12.584 66.1866L14.4312 64.8206C14.6443 64.6624 14.8219 64.53 14.9672 64.4234C15.1125 64.3169 15.2352 64.2232 15.3354 64.1425C15.4355 64.0617 15.5226 63.9939 15.5937 63.939C15.6647 63.8809 15.7326 63.8228 15.8036 63.7647C15.9586 63.6323 16.0555 63.516 16.0942 63.4224C16.133 63.3287 16.1556 63.2415 16.162 63.1608C16.162 63.0736 16.1394 62.9864 16.0845 62.896C16.0296 62.8056 15.9683 62.7087 15.8972 62.6118V62.5408L16.0426 62.3922L16.0652 62.4051C16.0975 62.4471 16.1491 62.5182 16.2202 62.615C16.2912 62.7119 16.3655 62.812 16.443 62.9154C16.5205 63.0187 16.5948 63.1188 16.6658 63.2157C16.7369 63.3126 16.7885 63.3836 16.8208 63.4256L16.95 63.5967C16.9823 63.6387 17.034 63.7098 17.105 63.8066C17.176 63.9035 17.2503 64.0036 17.3278 64.107C17.4053 64.2103 17.4796 64.3104 17.5506 64.4073C17.6217 64.5042 17.6733 64.5752 17.7056 64.6172V64.643L17.6992 64.6398Z" fill="url(#paint5_linear_64_595)"/>
<path d="M24.9754 70.5884L23.9614 75.949C23.9097 76.1815 23.8709 76.3785 23.8451 76.5367C23.816 76.6949 23.7934 76.8306 23.7773 76.9436C23.7579 77.0566 23.745 77.1502 23.7353 77.2277C23.7256 77.3053 23.7159 77.3731 23.7095 77.428C23.6836 77.6314 23.6836 77.7993 23.7095 77.9317C23.7321 78.0641 23.7708 78.1739 23.8225 78.2611C23.8742 78.3483 23.9388 78.4194 24.0163 78.4743C24.0938 78.5292 24.1745 78.5808 24.2585 78.6293L24.2843 78.6971L24.21 78.8908L24.168 78.9167C24.1228 78.8908 24.0582 78.8456 23.9711 78.781C23.8871 78.7165 23.7934 78.6583 23.6966 78.6002C23.5997 78.5421 23.506 78.4872 23.4188 78.4355C23.3317 78.3838 23.2638 78.3451 23.2186 78.316L22.8989 78.1255C22.8537 78.0997 22.7794 78.0545 22.6761 77.9931C22.5728 77.9317 22.463 77.8672 22.35 77.7993C22.2369 77.7315 22.1271 77.6669 22.0238 77.6056C21.9205 77.5442 21.8462 77.499 21.801 77.4732L21.7881 77.4506L21.9205 77.2923L21.9818 77.2762C22.1691 77.386 22.3273 77.4538 22.4565 77.4699C22.5857 77.4893 22.7052 77.4054 22.815 77.2148C22.9022 77.0663 22.9764 76.8273 23.0346 76.4979C23.0927 76.1686 23.167 75.7552 23.2606 75.2611L23.3704 74.696L21.1906 73.4075L20.7482 73.7757C20.3575 74.0954 20.0313 74.3602 19.773 74.5701C19.5146 74.78 19.3403 74.9608 19.2498 75.1093C19.14 75.2966 19.1239 75.442 19.2014 75.5485C19.2789 75.6519 19.4145 75.7584 19.6018 75.8715L19.6277 75.9393L19.5534 76.133H19.5276C19.4824 76.104 19.4113 76.062 19.3144 76.0039C19.2176 75.9457 19.1142 75.8844 19.0076 75.823C18.9011 75.7584 18.7977 75.7003 18.7009 75.6422C18.604 75.5841 18.5329 75.5421 18.4877 75.5162L18.3037 75.4064C18.2585 75.3806 18.1906 75.3386 18.1002 75.287C18.0098 75.2321 17.9162 75.1772 17.8193 75.119C17.7224 75.0609 17.6255 75.0125 17.5319 74.9705C17.4382 74.9285 17.3704 74.893 17.3252 74.8671L17.3381 74.8219L17.4608 74.6572L17.5319 74.6476C17.6158 74.696 17.6998 74.7412 17.7805 74.78C17.8613 74.8187 17.9549 74.8413 18.0582 74.8446C18.1616 74.8478 18.2746 74.8284 18.4005 74.7864C18.5265 74.7444 18.6783 74.6637 18.8494 74.5475C18.8882 74.5281 18.9269 74.499 18.9689 74.4667C19.0109 74.4344 19.0722 74.386 19.1594 74.3214C19.2434 74.2568 19.3564 74.1729 19.4953 74.0663C19.6341 73.9597 19.8117 73.8209 20.0313 73.6465C20.2509 73.4753 20.519 73.2622 20.8387 73.0135C21.1584 72.7649 21.5426 72.4613 21.998 72.1093C22.2176 71.9317 22.4371 71.7574 22.66 71.5894C22.8828 71.4183 23.0895 71.26 23.2832 71.1115C23.477 70.963 23.6481 70.8338 23.7967 70.7208C23.9452 70.6077 24.055 70.5238 24.1228 70.4689L24.8688 70.5173L24.9754 70.5819V70.5884ZM21.6008 73.0975L23.4608 74.1955L24.013 71.147L21.6008 73.0975Z" fill="url(#paint6_linear_64_595)"/>
<path d="M42.207 81.5968C42.1554 81.5968 42.0682 81.5968 41.9487 81.5935C41.8292 81.5935 41.7033 81.5903 41.5773 81.5871C41.4481 81.5871 41.3254 81.5839 41.2059 81.5806C41.0865 81.5806 40.9993 81.5774 40.9444 81.5774H40.7312C40.6796 81.5742 40.5924 81.5709 40.4729 81.5709C40.3534 81.5709 40.2275 81.5677 40.1015 81.5645C39.9724 81.5645 39.8497 81.5612 39.7302 81.558C39.6107 81.558 39.5235 81.5548 39.4686 81.5548L39.4363 81.5419L39.4751 81.3384L39.5203 81.2932C39.6397 81.2932 39.756 81.2932 39.8658 81.2803C39.9756 81.2706 40.0596 81.2416 40.1209 81.1899C40.1758 81.1382 40.2275 81.0704 40.2759 80.9897C40.3276 80.9089 40.3534 80.7604 40.3567 80.5505C40.3567 80.4988 40.3567 80.4342 40.3567 80.3632C40.3567 80.2921 40.3567 80.2017 40.3567 80.0984C40.3567 79.9918 40.3502 79.8659 40.347 79.7141C40.3405 79.5623 40.334 79.375 40.3211 79.149C40.2727 78.3578 40.2372 77.7249 40.2113 77.2534C40.1855 76.7819 40.1629 76.4138 40.1435 76.149C40.1241 75.8842 40.1112 75.6969 40.1015 75.5839C40.0918 75.4708 40.0854 75.3772 40.0789 75.2997C40.024 75.4353 39.9368 75.642 39.8206 75.9229C39.7043 76.2039 39.5687 76.5268 39.4137 76.8885C39.2619 77.2502 39.0972 77.6377 38.9261 78.051C38.7549 78.4611 38.5838 78.8713 38.4159 79.2749C38.2479 79.6786 38.0865 80.0596 37.9347 80.4213C37.7829 80.7798 37.6505 81.0865 37.5407 81.3417L37.0111 81.332L34.8507 75.2383C34.841 75.3126 34.8346 75.3933 34.8249 75.4741C34.8152 75.558 34.8055 75.6581 34.7991 75.7744C34.7894 75.8906 34.7765 76.0263 34.7635 76.1813C34.7506 76.3363 34.7345 76.5268 34.7151 76.7529L34.5246 78.8293C34.4987 79.0844 34.4794 79.2943 34.4697 79.4622C34.46 79.6269 34.4503 79.7722 34.4406 79.8917C34.4309 80.0112 34.4245 80.1145 34.4245 80.1953C34.4245 80.2792 34.4245 80.3632 34.4212 80.4536C34.418 80.6635 34.4406 80.8121 34.4891 80.896C34.5375 80.98 34.5892 81.0478 34.6505 81.1027C34.7086 81.1576 34.7797 81.1899 34.8572 81.2028C34.9347 81.2157 35.0348 81.2222 35.1575 81.2254L35.2027 81.2706L35.235 81.4741L35.2124 81.5193C35.1607 81.5193 35.0832 81.516 34.9799 81.5096C34.8798 81.5031 34.7732 81.4999 34.6699 81.4934C34.5633 81.487 34.46 81.4837 34.3599 81.4773C34.2598 81.4708 34.1823 81.4676 34.1274 81.4676H33.9142C33.8626 81.4644 33.7754 81.4611 33.6591 81.4611C33.5429 81.4611 33.4169 81.4579 33.2878 81.4547C33.1554 81.4547 33.0326 81.4515 32.9164 81.4482C32.8001 81.4482 32.7162 81.445 32.6613 81.445L32.6387 81.4321L32.6774 81.2286L32.7452 81.1834C32.8583 81.1834 32.9681 81.1834 33.0746 81.1705C33.1812 81.1608 33.2716 81.1318 33.3459 81.0801C33.4072 81.0284 33.4718 80.9606 33.5364 80.8799C33.601 80.7991 33.6527 80.6506 33.685 80.4407C33.6946 80.389 33.7011 80.3277 33.7108 80.2534C33.7205 80.1824 33.7302 80.0952 33.7431 79.9886C33.756 79.882 33.7721 79.7561 33.7883 79.6043C33.8044 79.4525 33.8238 79.2652 33.8432 79.0392L34.0402 76.7464C34.066 76.4816 34.0886 76.262 34.1015 76.0812C34.1145 75.9003 34.1274 75.7453 34.1306 75.6194C34.1371 75.4902 34.1435 75.3836 34.1467 75.2932C34.1532 75.2028 34.1564 75.1124 34.1564 75.022C34.1597 74.8121 34.1306 74.6603 34.066 74.5731C34.0047 74.4859 33.9433 74.4181 33.8819 74.3729C33.8141 74.318 33.7302 74.2857 33.6236 74.2728C33.517 74.2598 33.404 74.2534 33.2845 74.2502L33.2296 74.205L33.2006 74.0015L33.2232 73.9918C33.2748 73.9918 33.362 73.9918 33.4815 73.9951C33.601 73.9951 33.7269 73.9983 33.8529 74.0015C33.9821 74.0015 34.1048 74.0047 34.2242 74.008C34.3437 74.008 34.4309 74.0112 34.4858 74.0112L34.8798 74.0177C34.9411 74.0177 35.0251 74.0177 35.1349 74.0209C35.2447 74.0209 35.3319 74.0209 35.3997 74.0144L35.4546 74.0499C35.4611 74.1468 35.4869 74.2792 35.5321 74.4407C35.5773 74.6022 35.6354 74.7862 35.7033 74.9929C35.7711 75.1963 35.8453 75.4159 35.9228 75.6452C36.0036 75.8777 36.0811 76.107 36.1618 76.333L36.8949 78.4353C37.0176 78.8002 37.1274 79.107 37.2307 79.3621C37.3308 79.6172 37.4212 79.8433 37.502 80.0403C37.5246 80.0015 37.5924 79.8594 37.7022 79.6075C37.812 79.3557 37.9476 79.0456 38.1058 78.6775C38.2673 78.3061 38.4352 77.9025 38.6161 77.4601C38.7969 77.0177 38.9681 76.5849 39.136 76.1619C39.3007 75.7389 39.4428 75.3481 39.5622 74.9864C39.6817 74.6248 39.756 74.3406 39.7915 74.1307L39.8497 74.0855C39.911 74.0919 39.9724 74.0952 40.0402 74.0984C40.108 74.0984 40.1726 74.1048 40.2307 74.1048L40.6376 74.1113C40.6893 74.1113 40.7765 74.1113 40.8959 74.1145C41.0154 74.1145 41.1414 74.1178 41.2705 74.121C41.3997 74.121 41.5224 74.1242 41.6419 74.1275C41.7614 74.1275 41.8486 74.1307 41.9002 74.1307L41.9228 74.1436L41.8841 74.347L41.826 74.3922C41.7065 74.3922 41.5902 74.3923 41.4804 74.4052C41.3706 74.4149 41.2867 74.4439 41.2253 74.4956C41.164 74.5408 41.0994 74.6054 41.0348 74.6958C40.9702 74.7862 40.9347 74.9315 40.9315 75.135C40.9315 75.2416 40.9315 75.3384 40.9315 75.4289C40.9315 75.5193 40.9347 75.6258 40.9379 75.7453C40.9379 75.8648 40.9444 76.0134 40.9541 76.1877C40.9638 76.3621 40.9767 76.5849 40.9928 76.8562L41.0962 78.9391C41.1155 79.2103 41.1284 79.4299 41.1349 79.6011C41.1446 79.7722 41.1511 79.9111 41.1607 80.0241C41.1704 80.1371 41.1801 80.234 41.1898 80.3115C41.1995 80.3923 41.2124 80.4762 41.2253 80.5666C41.2512 80.7765 41.2931 80.9251 41.3545 81.009C41.4126 81.093 41.474 81.1608 41.5321 81.2157C41.5999 81.2706 41.6871 81.3029 41.7969 81.3158C41.9067 81.3287 42.0197 81.3352 42.1424 81.3384L42.1973 81.3836L42.2264 81.5871L42.2135 81.5968H42.207Z" fill="url(#paint7_linear_64_595)"/>
<path d="M50.4053 70.814C50.4925 70.7687 50.6249 70.6977 50.7993 70.6041C50.9769 70.5104 51.1545 70.4168 51.3321 70.3199C51.5129 70.2262 51.6744 70.139 51.8165 70.0648C51.9586 69.9905 52.049 69.942 52.0813 69.9259L52.1782 69.9905L52.7142 71.0981L52.4656 71.2305L52.4042 71.2112C52.3074 71.0626 52.2266 70.9528 52.1556 70.8753C52.0845 70.801 51.9844 70.772 51.8553 70.7881C51.7229 70.8075 51.5485 70.8721 51.3289 70.9883C51.1093 71.1046 50.7993 71.2693 50.3988 71.4792L49.4397 71.9862L49.6238 72.3802C49.6723 72.49 49.7142 72.5804 49.7498 72.6546C49.7853 72.7289 49.8273 72.8193 49.8822 72.9259C49.9338 73.0325 49.9984 73.1616 50.0792 73.307C50.1567 73.4555 50.3472 73.8107 50.6443 74.3758C50.8445 74.2693 51.0447 74.1627 51.2449 74.0594C51.4451 73.9528 51.626 73.8592 51.7907 73.772C51.9554 73.6848 52.0845 73.6008 52.1879 73.5169C52.288 73.4329 52.3461 73.3586 52.3622 73.2876C52.3881 73.2069 52.4042 73.1261 52.4171 73.0518C52.4301 72.9776 52.4075 72.8872 52.3526 72.787L52.3752 72.7128L52.5334 72.603H52.5851C52.6529 72.7612 52.711 72.9001 52.7627 73.0196C52.8111 73.139 52.8757 73.2682 52.9532 73.4168C53.0372 73.575 53.1211 73.7203 53.2019 73.8527C53.2826 73.9851 53.373 74.124 53.4699 74.279L53.4408 74.3209L53.2503 74.3952L53.1954 74.3855C53.1373 74.279 53.0662 74.1886 52.9758 74.1175C52.8886 74.0465 52.8014 73.9948 52.7142 73.9625C52.6529 73.9431 52.5592 73.9528 52.4365 73.9916C52.3138 74.0303 52.1717 74.0917 52.0103 74.1789C51.852 74.2628 51.6712 74.3597 51.471 74.463C51.2708 74.5696 51.0673 74.6762 50.8606 74.786L51.3709 75.7515C51.4968 75.9905 51.6001 76.1842 51.6776 76.3328C51.7551 76.4813 51.8294 76.6137 51.894 76.7268C51.9586 76.8398 52.0199 76.9431 52.0781 77.0368C52.1362 77.1304 52.204 77.2338 52.2847 77.3532C52.3526 77.4792 52.4527 77.5083 52.5851 77.4372L53.4344 76.9883C53.8348 76.7752 54.1448 76.6008 54.3644 76.4652C54.584 76.3296 54.7422 76.2004 54.8326 76.0841C54.9231 75.9679 54.965 75.8419 54.9586 75.7031C54.9489 75.5675 54.9231 75.3963 54.8746 75.1929L54.894 75.1315L55.1523 74.9926L55.64 76.3457L55.6109 76.4878C55.5786 76.5039 55.5011 76.5459 55.3816 76.6105C55.2621 76.6751 55.1265 76.7461 54.978 76.8236C54.8294 76.9044 54.6776 76.9819 54.5291 77.0626C54.3805 77.1433 54.2611 77.2047 54.1739 77.2499L52.1556 78.3188C52.1104 78.3446 52.0329 78.3834 51.9263 78.4415C51.8197 78.4964 51.7099 78.5545 51.5969 78.6159C51.4839 78.6772 51.3741 78.7354 51.2675 78.7903C51.161 78.8452 51.0835 78.8871 51.0382 78.913H51.0124L50.9478 78.7192L50.9769 78.6514C51.0835 78.5965 51.1803 78.5384 51.2675 78.477C51.3547 78.4189 51.4161 78.3479 51.4516 78.2704C51.4807 78.1961 51.5 78.1089 51.5097 78.0088C51.5194 77.9087 51.4839 77.7634 51.3967 77.5696C51.3709 77.5244 51.345 77.4663 51.316 77.4017C51.2869 77.3371 51.2481 77.2564 51.2029 77.1627C51.1577 77.0691 51.0996 76.9528 51.0286 76.8204C50.9575 76.688 50.8703 76.5201 50.7638 76.3199L49.6884 74.2919C49.5657 74.0594 49.4624 73.8624 49.3752 73.7042C49.2912 73.5459 49.2169 73.4071 49.1588 73.294C49.0974 73.181 49.0458 73.0841 49.0006 73.0066C48.9554 72.9291 48.9069 72.8516 48.8585 72.7741C48.7487 72.603 48.6518 72.49 48.5614 72.4383C48.471 72.3866 48.387 72.3543 48.3095 72.3349C48.2255 72.3188 48.1319 72.3349 48.035 72.3705C47.9349 72.4092 47.8348 72.4577 47.7282 72.5126L47.6572 72.4996L47.5312 72.3349L47.5474 72.3156C47.5926 72.2897 47.6701 72.251 47.7767 72.1929C47.8832 72.138 47.9995 72.0766 48.1222 72.0088C48.2449 71.9442 48.3644 71.8796 48.4807 71.8183C48.5969 71.7569 48.6906 71.7052 48.7648 71.6665L50.4021 70.7978L50.4053 70.814Z" fill="url(#paint8_linear_64_595)"/>
<path d="M58.8234 66.1414C58.9913 66.2706 59.1528 66.3481 59.3078 66.3707C59.4628 66.3965 59.6307 66.3804 59.8083 66.3223C59.9859 66.2641 60.1829 66.1672 60.3961 66.0316C60.6092 65.896 60.8546 65.7313 61.1291 65.5343C61.3713 65.3696 61.62 65.2114 61.8751 65.0661C62.1302 64.9207 62.3918 64.8174 62.663 64.7528C62.9343 64.6915 63.2088 64.685 63.4865 64.7367C63.7642 64.7883 64.0484 64.924 64.3325 65.1468C64.6361 65.3825 64.8492 65.6409 64.9687 65.9218C65.0882 66.206 65.1399 66.4934 65.1173 66.7937C65.0979 67.0908 65.0171 67.3944 64.8783 67.7012C64.7394 68.0079 64.5586 68.3018 64.339 68.5892C64.0548 68.9606 63.7545 69.2641 63.4348 69.5063C63.1183 69.7453 62.8019 69.9423 62.4886 70.0908L62.3433 70.0359L61.5005 69.1479L61.6716 68.9251H61.7588C62.1463 69.1705 62.5274 69.2318 62.8987 69.0994C63.2701 68.967 63.6318 68.6732 63.9806 68.2211C64.339 67.7561 64.5037 67.3233 64.4714 66.9229C64.4423 66.5257 64.255 66.1931 63.916 65.9315C63.7061 65.77 63.4994 65.6829 63.2895 65.6635C63.0796 65.6441 62.8697 65.6699 62.6598 65.741C62.4499 65.812 62.2367 65.9154 62.0268 66.0542C61.8169 66.1931 61.6038 66.3319 61.3939 66.4708C61.1323 66.6516 60.8772 66.8066 60.6253 66.9423C60.3734 67.0779 60.128 67.1716 59.8858 67.2297C59.6436 67.2846 59.4014 67.291 59.1625 67.2426C58.9235 67.1974 58.6845 67.0811 58.4456 66.8971C58.1646 66.6807 57.9644 66.4482 57.8482 66.2028C57.7287 65.9541 57.677 65.699 57.6867 65.431C57.6964 65.1629 57.7642 64.8949 57.8869 64.6237C58.0096 64.3524 58.1743 64.0811 58.381 63.8131C58.6296 63.4902 58.8944 63.2092 59.1722 62.967C59.4531 62.7248 59.7018 62.5472 59.9246 62.4342L60.0505 62.473L60.7513 63.2125L60.5575 63.4643L60.4768 63.474C60.3121 63.3675 60.1474 63.3223 59.9827 63.3384C59.818 63.3545 59.663 63.403 59.5145 63.4837C59.3659 63.5645 59.2303 63.6678 59.1043 63.7937C58.9784 63.9197 58.8751 64.0359 58.7911 64.1457C58.494 64.5332 58.3422 64.9046 58.3422 65.2566C58.3422 65.6086 58.5005 65.9057 58.8169 66.1511L58.8234 66.1414Z" fill="url(#paint9_linear_64_595)"/>
<path d="M74.0151 41.5696C74.0151 41.5696 72.252 40.1197 72.252 39.1961C72.252 38.7181 72.6395 38.3339 73.1142 38.3339C73.4855 38.3339 73.802 38.5664 73.9247 38.8958C74.0474 38.5664 74.3639 38.3339 74.7353 38.3339C75.2132 38.3339 75.5975 38.7214 75.5975 39.1961C75.5975 40.1197 74.0151 41.5696 74.0151 41.5696Z" fill="url(#paint10_linear_64_595)"/>
<path d="M1.76319 41.5696C1.76319 41.5696 0 40.1197 0 39.1961C0 38.7181 0.387513 38.3339 0.862217 38.3339C1.23358 38.3339 1.55005 38.5664 1.67277 38.8958C1.79548 38.5664 2.11195 38.3339 2.48331 38.3339C2.96125 38.3339 3.34553 38.7214 3.34553 39.1961C3.34553 40.1197 1.76319 41.5696 1.76319 41.5696Z" fill="url(#paint11_linear_64_595)"/>
<path d="M61.6435 32.4051C61.566 31.8561 61.3174 31.3911 60.9492 31.0973C60.5746 30.8002 60.0644 30.7001 59.5994 30.8002C59.6478 30.6742 59.6833 30.5386 59.6963 30.3997C59.7382 29.9896 59.6155 29.5989 59.3572 29.3244C59.0892 29.037 58.6855 28.9014 58.2754 28.9595C58.0493 28.9918 57.8394 29.0854 57.6554 29.2211C57.7232 28.6689 57.6166 28.1102 57.0967 27.5903C56.7479 27.2447 56.1957 27.1059 55.6145 27.2221C55.2173 27.2996 54.8523 27.4837 54.5165 27.6678C54.4164 26.8346 53.7286 26.0983 52.8889 25.9789C52.0622 25.8626 51.2129 26.3696 50.8771 27.122C50.7318 26.9444 50.58 26.7862 50.3959 26.6538C50.0633 26.418 49.6855 26.3373 49.3593 26.4277C49.0493 26.5149 48.7781 26.7571 48.6198 27.0962C48.5843 27.1705 48.5585 27.2447 48.5359 27.319C48.0386 26.8798 47.2474 26.7894 46.679 27.1382C46.1688 27.4514 45.8943 28.0844 45.9621 28.6753C45.5585 28.5268 45.0612 28.5978 44.6995 28.8949C44.2668 29.2501 44.0536 29.8605 44.1473 30.4934C44.2183 30.9842 44.467 31.4848 44.8803 31.9853C45.3906 32.5989 46.0332 33.0865 46.6532 33.5612L46.8308 33.6968C47.4831 34.1974 48.158 34.7399 48.6231 35.4277C49.1107 36.1446 49.2915 36.9423 49.1301 37.6269C49.1301 37.6333 49.1268 37.643 49.1268 37.6495C49.1268 37.6592 49.1268 37.6656 49.1204 37.6753C48.1258 38.8475 46.9309 39.8841 45.4907 40.8109C45.7167 40.2361 45.8782 39.5644 45.9492 38.8605C46.6984 38.3599 47.0213 37.3395 46.9438 36.5612C46.9342 36.4676 46.8502 36.3997 46.7533 36.4062C46.6597 36.4159 46.5886 36.4999 46.5983 36.5967C46.6564 37.1845 46.4562 37.9304 45.9815 38.3922C46.0267 37.3427 45.8653 36.2641 45.4293 35.3631C45.5714 35.2307 45.665 35.0434 45.6683 34.8335C45.678 34.4234 45.3486 34.0779 44.9385 34.0714C44.7382 34.0682 44.5509 34.1425 44.4056 34.2781C44.2603 34.417 44.1796 34.601 44.1763 34.8013C44.1667 35.192 44.4637 35.5214 44.848 35.5601C44.8674 35.5601 44.8868 35.5601 44.9094 35.5634C44.9869 35.5634 45.0579 35.5504 45.129 35.5311C45.9589 37.2652 45.7103 39.7033 44.9643 41.1403C43.3949 42.0833 41.5574 42.9132 39.3906 43.6559C39.2743 43.6947 39.1548 43.7302 39.0353 43.769C40.6177 41.1855 40.3626 37.2264 39.2549 34.6592C39.2452 34.6366 39.2291 34.6172 39.2097 34.601C39.2033 34.5978 39.1968 34.5946 39.1903 34.5913C39.1774 34.5849 39.1677 34.5752 39.1548 34.5687C39.1516 34.5687 39.1451 34.5687 39.1419 34.5687C39.1387 34.5687 39.1354 34.5655 39.1322 34.5655C39.1258 34.5655 39.1193 34.5655 39.1161 34.5655C39.0967 34.5655 39.0805 34.5655 39.0644 34.5655C39.0579 34.5655 39.0515 34.5655 39.045 34.572C39.0256 34.5784 39.0095 34.5881 38.9966 34.601C38.9934 34.601 38.9869 34.6043 38.9837 34.6075L38.9772 34.614C38.9772 34.614 38.9772 34.614 38.974 34.6172C37.8954 35.6344 37.2043 37.3039 37.1171 39.0833C37.0332 40.8723 37.5111 42.7679 38.3443 43.995C36.9202 44.4439 35.4702 44.8378 34.0332 45.206C33.6328 45.3093 33.2291 45.4127 32.8319 45.5128C31.7953 45.7743 30.749 46.0424 29.6995 46.3265C30.158 45.8551 30.5617 45.2577 30.8814 44.5634C31.5531 44.1468 32.1085 43.6656 32.5542 43.1166C32.5542 43.1166 32.5574 43.1166 32.5606 43.1166C32.5768 43.1037 34.2722 41.7345 35.693 42.2415C35.7835 42.2738 35.8836 42.2286 35.9126 42.1382C35.9449 42.0478 35.8965 41.9509 35.8093 41.9186C34.8179 41.5634 33.7587 41.9799 33.0741 42.3642C33.5811 41.4729 33.8362 40.4428 33.8427 39.2803C34.3174 39.1769 34.6823 38.7603 34.692 38.2534C34.6984 37.9659 34.5918 37.6947 34.3916 37.488C34.1914 37.2813 33.9266 37.1651 33.6392 37.1586C33.3518 37.1522 33.0805 37.2587 32.8739 37.459C32.6672 37.6592 32.5509 37.924 32.5445 38.2114C32.538 38.4988 32.6446 38.77 32.8448 38.9767C33.0192 39.1608 33.2517 39.2738 33.5003 39.2996C33.4842 41.3212 32.7059 42.8648 31.1236 43.995C31.4239 43.1909 31.6048 42.3352 31.6403 41.5182C31.989 41.4374 32.2571 41.1274 32.2635 40.7528C32.2668 40.5365 32.1893 40.333 32.0407 40.178C31.8922 40.023 31.692 39.9358 31.4756 39.9293C31.2592 39.9261 31.0558 40.0036 30.9008 40.1522C30.7458 40.3007 30.6586 40.5009 30.6521 40.7173C30.6457 40.9337 30.7264 41.1371 30.8749 41.2921C30.988 41.4116 31.1333 41.4859 31.2883 41.5182C31.2431 42.4676 30.9977 43.4783 30.5875 44.3793C30.1613 45.3158 29.5865 46.065 28.9277 46.5494C27.8685 46.8497 26.8125 47.1791 25.7727 47.5504C25.7598 47.5504 25.7469 47.5569 25.7339 47.5634C25.2592 47.7345 24.791 47.9089 24.326 48.0962C23.9126 48.2641 23.509 48.445 23.1118 48.6323C23.4153 48.2254 23.6511 47.7377 23.8093 47.1791C24.2614 45.5709 23.9708 43.7367 23.0504 42.3933C23.0504 42.3901 23.0439 42.3868 23.0407 42.3836C23.0343 42.3739 23.0246 42.3642 23.0149 42.3578C23.0052 42.3513 22.9987 42.3448 22.989 42.3384C22.9858 42.3384 22.9826 42.3319 22.9761 42.3287C22.9697 42.3287 22.96 42.3287 22.9535 42.3255C22.9471 42.3255 22.9406 42.319 22.9342 42.319C22.9309 42.319 22.9277 42.319 22.9212 42.319C22.9051 42.319 22.8922 42.319 22.876 42.3222C22.8696 42.3222 22.8631 42.3222 22.8567 42.3255C22.8405 42.3319 22.8276 42.3384 22.8114 42.3481C22.8082 42.3481 22.8018 42.3513 22.7953 42.3545C21.4228 43.5042 20.5962 45.2609 20.5832 47.0531C20.5768 47.7507 20.7027 48.742 21.2969 49.572C18.594 51.1285 16.4175 53.0951 15.016 55.2878C14.9643 55.3685 14.9869 55.4751 15.0676 55.5268C15.0902 55.5429 15.1161 55.5494 15.1419 55.5526C15.2033 55.5591 15.2678 55.53 15.3066 55.4751C17.1634 52.572 20.4121 50.0628 24.4551 48.4127C24.8653 48.2447 25.2786 48.0897 25.6952 47.938C26.4347 50.6247 28.3464 52.1005 31.7049 52.5687C31.7049 52.5687 31.7081 52.5687 31.7113 52.5687C31.7404 52.5687 31.7695 52.5655 31.7985 52.5526C31.8082 52.5494 31.8114 52.5429 31.8211 52.5397C31.834 52.5332 31.847 52.5268 31.8566 52.5171C31.8631 52.5106 31.8631 52.5042 31.8696 52.4977C31.8728 52.4945 31.8793 52.4912 31.8825 52.488C31.8857 52.4816 31.8889 52.4719 31.8922 52.4622C31.8954 52.4525 31.8986 52.446 31.9019 52.4363C31.9051 52.417 31.9051 52.4008 31.9019 52.3814C31.9019 52.375 31.9019 52.3718 31.9019 52.3653C31.5369 50.4955 30.5843 48.3029 26.5509 47.6376C28.6467 46.9304 30.8071 46.3814 32.9158 45.8486C33.3098 45.7485 33.707 45.6484 34.1042 45.5451C34.9794 45.3933 35.8868 45.4902 36.8104 45.8389C38.0633 46.488 38.2119 48.7873 37.7178 50.0628C37.7049 50.0628 37.692 50.0596 37.6758 50.0564C37.1624 50.0467 36.7361 50.4536 36.7264 50.967C36.7167 51.4546 37.0848 51.8648 37.5628 51.9132C37.5886 51.9132 37.6145 51.9164 37.6371 51.9164C38.1505 51.9261 38.5768 51.5192 38.5865 51.0058C38.5929 50.6279 38.3733 50.2986 38.0536 50.1468C38.467 49.0488 38.4411 47.3567 37.7662 46.291C38.4379 46.6753 39.0709 47.1791 39.6101 47.77C39.5068 47.9024 39.4422 48.0639 39.439 48.2447C39.4293 48.6645 39.749 49.0165 40.1591 49.0585C40.1817 49.0585 40.2011 49.0617 40.2237 49.0617C40.4368 49.065 40.6403 48.9875 40.7953 48.8389C40.9503 48.6904 41.0375 48.4902 41.0407 48.277C41.0439 48.0639 40.9664 47.8605 40.8179 47.7055C40.6693 47.5504 40.4724 47.4665 40.256 47.46C40.1171 47.46 39.9912 47.4923 39.8749 47.5504C39.0515 46.643 38.0149 45.9229 36.9428 45.5192C36.4713 45.3384 35.9998 45.2254 35.5348 45.1672C36.594 44.8831 37.6532 44.5795 38.6995 44.2437C38.6995 44.2437 38.7027 44.2437 38.7059 44.2437C38.974 44.1565 39.2452 44.0757 39.5133 43.9853C40.256 43.7302 40.9568 43.4654 41.6252 43.1909C41.7673 43.8077 42.4002 45.5192 45.1387 46.0521C45.5908 46.1393 46.0041 46.2006 46.3852 46.2394C49.5014 46.5558 50.3604 45.3965 50.3992 45.3416C50.4056 45.3352 50.4056 45.3255 50.4089 45.319C50.4121 45.3093 50.4185 45.3029 50.4218 45.2932C50.425 45.277 50.4282 45.2641 50.4282 45.248C50.4282 45.2415 50.4282 45.2383 50.4282 45.2318C50.4282 45.2092 50.4218 45.1898 50.4121 45.1705C50.4121 45.1672 50.4056 45.1608 50.4024 45.1575C50.3959 45.1446 50.3895 45.1317 50.3766 45.122C48.7038 43.4493 45.5423 42.4159 43.0106 42.5838C43.7824 42.2189 44.5025 41.8346 45.1742 41.431C45.1807 41.431 45.1871 41.4245 45.1936 41.4213C45.6554 41.1436 46.0945 40.8529 46.5111 40.5558C47.5316 39.7743 48.7684 39.5709 49.6274 39.5386C50.2312 39.516 50.8513 39.558 51.4487 39.6C51.5811 39.6096 51.7199 39.6161 51.8556 39.6258C51.8556 39.6258 51.862 39.6258 51.8653 39.6258C52.34 39.6355 53.0666 39.868 53.4831 40.2813C53.4831 40.2813 53.4831 40.2813 53.4864 40.2846C53.5477 40.5494 53.3992 41.8831 52.692 43.0068C52.453 43.3879 52.2528 43.9401 52.4175 44.347C52.482 44.5052 52.6274 44.7119 52.9761 44.8023C53.0117 44.812 53.0439 44.8185 53.0795 44.8217C53.3314 44.8475 53.5509 44.7248 53.7221 44.5408C53.7382 44.5666 53.7544 44.5924 53.777 44.6183C53.9449 44.8314 54.2355 44.9509 54.5359 44.9315C54.8039 44.9121 55.0299 44.7765 55.2237 44.5149C55.4013 44.2792 55.4594 43.9627 55.4691 43.6915C55.6241 43.7916 55.8082 43.8561 55.9858 43.8658C56.2797 43.8852 56.5283 43.7528 56.664 43.5074C56.9159 43.0553 56.7027 42.4191 56.4185 41.9767C56.1214 41.5117 54.9944 40.1748 53.6833 39.9972C53.5445 39.868 53.383 39.7582 53.2119 39.6613C54.0224 39.6355 54.7038 39.4999 55.2883 39.248C55.298 39.2577 55.3044 39.2706 55.3141 39.2803C55.453 39.4256 55.6371 39.5128 55.834 39.5354C55.8566 39.5354 55.8793 39.5386 55.9019 39.5386C56.3636 39.5483 56.7479 39.1802 56.7576 38.7151C56.7608 38.4923 56.6801 38.2792 56.5251 38.1177C56.3701 37.9563 56.1602 37.8658 55.9374 37.8594C55.4756 37.8497 55.0913 38.2178 55.0816 38.6828C55.0816 38.7733 55.0945 38.8605 55.1204 38.9444C54.5004 39.2028 53.7576 39.3287 52.8502 39.319C52.3949 39.3158 51.9266 39.2835 51.4777 39.2512C50.8706 39.2092 50.2409 39.164 49.6177 39.1898C49.1139 39.2092 48.481 39.2867 47.8351 39.4966C48.4035 38.9929 48.9266 38.4665 49.4013 37.9046C50.5865 37.249 51.9234 37.0295 53.1925 36.8648C53.8545 36.7776 54.5391 36.755 55.2011 36.7324C55.692 36.7162 56.199 36.6968 56.6995 36.6549C58.172 36.5289 59.2539 36.1898 60.1096 35.5892C61.214 34.8109 61.8211 33.5677 61.6564 32.418L61.6435 32.4051ZM44.9191 35.2146C44.6963 35.2146 44.5219 35.0273 44.5251 34.8045C44.5251 34.6979 44.5703 34.5978 44.6478 34.5235C44.7253 34.4493 44.8254 34.4105 44.932 34.4137C44.9417 34.4137 44.9546 34.4137 44.9643 34.4137C45.171 34.4331 45.3292 34.6107 45.3227 34.8206C45.3195 35.0402 45.1354 35.2178 44.9126 35.2146H44.9191ZM32.8836 38.2081C32.8868 38.0144 32.9675 37.8335 33.1064 37.6979C33.2485 37.5623 33.4325 37.4912 33.6263 37.4945C33.6457 37.4945 33.665 37.4945 33.6876 37.4977C33.8588 37.5138 34.017 37.5913 34.1397 37.7173C34.2754 37.8594 34.3464 38.0434 34.3432 38.2372C34.34 38.431 34.2592 38.615 34.1204 38.7474C33.9783 38.8831 33.7942 38.9541 33.6005 38.9509C33.4035 38.9476 33.2259 38.8669 33.0902 38.7281C32.9546 38.586 32.8836 38.4019 32.8868 38.2081H32.8836ZM30.9944 40.7173C30.9944 40.5946 31.0461 40.4816 31.1365 40.3944C31.2269 40.3072 31.34 40.2652 31.4627 40.2684C31.4756 40.2684 31.4885 40.2684 31.5014 40.2684C31.608 40.2781 31.7081 40.3265 31.7856 40.4073C31.8696 40.4945 31.9148 40.6107 31.9148 40.7334C31.9083 40.9853 31.6984 41.1888 31.4465 41.1823C31.3238 41.1791 31.2108 41.1306 31.1236 41.0402C31.0396 40.953 30.9944 40.8368 30.9977 40.7141L30.9944 40.7173ZM23.4767 47.0757C23.3087 47.6667 23.0569 48.1705 22.721 48.5709C22.4207 48.9326 22.0881 49.1651 21.6747 49.3104C21.7716 46.3718 22.6209 43.7625 22.9438 42.8712C23.6607 44.0983 23.8706 45.6742 23.4767 47.0725V47.0757ZM22.4917 43.1231C22.1236 44.2178 21.4745 46.4589 21.3453 48.9842C21.0063 48.319 20.9255 47.5924 20.932 47.0531C20.9417 45.6064 21.5165 44.1855 22.495 43.1231H22.4917ZM26.1667 48.2964C26.9966 49.0876 28.8179 50.7345 30.8814 52.0714C28.3626 51.5451 26.8706 50.3502 26.1667 48.2964ZM31.4659 52.0295C29.1634 50.6118 27.1031 48.7194 26.2958 47.9412C28.5079 48.2512 30.7167 49.0747 31.4659 52.0295ZM38.2345 50.9961C38.228 51.319 37.96 51.5774 37.6371 51.5677C37.3174 51.5612 37.0558 51.2932 37.0655 50.9703C37.0719 50.6473 37.34 50.389 37.6629 50.3987C37.9826 50.4019 38.2442 50.6732 38.2377 50.9961H38.2345ZM40.2431 47.8023C40.2431 47.8023 40.2689 47.8023 40.2818 47.8023C40.3884 47.812 40.4885 47.8605 40.5628 47.9412C40.6467 48.0284 40.692 48.1446 40.6887 48.2673C40.6887 48.3901 40.6371 48.5031 40.5499 48.587C40.4627 48.671 40.3464 48.7162 40.2237 48.713C40.101 48.7098 39.988 48.6613 39.904 48.5741C39.82 48.4869 39.7748 48.3707 39.7781 48.248C39.7781 48.1253 39.8297 48.0122 39.9169 47.9283C40.0041 47.8443 40.1204 47.7991 40.2431 47.8023ZM38.735 43.5946C38.2409 39.3481 38.8351 36.3707 39.1258 35.2598C40.0396 37.7431 40.1753 41.263 38.735 43.5946ZM38.7382 35.3825C38.4379 36.629 37.9438 39.445 38.3604 43.3459C37.7404 42.1898 37.3884 40.5817 37.4594 39.093C37.5273 37.6785 37.9955 36.3448 38.7382 35.3825ZM55.9212 38.1952C55.9212 38.1952 55.9471 38.1952 55.96 38.1952C56.2119 38.2211 56.4089 38.4374 56.4024 38.6958C56.3959 38.967 56.1699 39.1834 55.8986 39.1802C55.7695 39.1802 55.6435 39.122 55.5531 39.0284C55.4627 38.9347 55.4142 38.8088 55.4142 38.6764C55.4207 38.4051 55.6467 38.1888 55.918 38.192L55.9212 38.1952ZM56.1182 42.1511C56.354 42.5225 56.5187 43.0295 56.3507 43.3298C56.2797 43.4622 56.1602 43.5235 55.9955 43.5106C55.7533 43.5009 55.4788 43.3201 55.4045 43.136C55.3723 43.0521 55.2786 43.0068 55.1914 43.0359C55.1042 43.065 55.0558 43.1522 55.0752 43.2426C55.1236 43.446 55.1559 43.9982 54.9298 44.2986C54.7942 44.4794 54.6586 44.5666 54.4939 44.5795C54.3098 44.5924 54.129 44.5214 54.0321 44.3987C53.9578 44.305 53.9417 44.192 53.9837 44.0628C54.0127 43.9724 53.9643 43.8755 53.8739 43.8465C53.7835 43.8174 53.6866 43.8626 53.6543 43.953C53.5671 44.1985 53.3313 44.5343 53.0472 44.4633C52.8792 44.4213 52.7727 44.3405 52.7242 44.2146C52.6177 43.9466 52.7727 43.5042 52.9729 43.1877C53.5154 42.3255 53.7576 41.3599 53.8125 40.7302C54.0353 41.1629 54.0999 41.7765 53.9191 42.8938C53.9029 42.9875 53.9675 43.0779 54.0612 43.0908C54.0644 43.0908 54.0676 43.0908 54.0709 43.0908C54.1613 43.1005 54.2452 43.0359 54.2582 42.9455C54.4002 42.0671 54.4099 41.4406 54.2678 40.9466C54.4358 41.1855 54.594 41.502 54.6844 41.925C54.7006 41.9993 54.7619 42.0542 54.8362 42.0607C54.8523 42.0607 54.8717 42.0607 54.8911 42.0607C54.9847 42.0413 55.0429 41.9476 55.0235 41.854C54.904 41.2953 54.6812 40.8949 54.4487 40.614C55.2625 41.0467 55.9051 41.8346 56.1118 42.1575L56.1182 42.1511ZM48.9363 27.2447C49.0526 26.9993 49.2463 26.8217 49.4562 26.7636C49.679 26.7022 49.96 26.7636 50.2022 26.938C50.4282 27.0994 50.6091 27.3287 50.8061 27.587C50.848 27.6419 50.9159 27.6678 50.9804 27.6516C51.045 27.6387 51.0967 27.587 51.1128 27.5192C51.2808 26.7733 52.0945 26.2211 52.847 26.3179C53.6026 26.4245 54.2291 27.1834 54.1871 27.9455C54.1839 28.0101 54.2162 28.0682 54.2678 28.1037C54.3227 28.136 54.3906 28.1392 54.4454 28.1037C54.8394 27.8777 55.2463 27.6419 55.6855 27.5548C56.0472 27.4837 56.5413 27.516 56.8545 27.8292C57.5779 28.5494 57.3486 29.3502 57.0289 30.1705C56.2151 32.2566 53.4831 34.4977 51.4842 35.9509C53.2829 33.9229 53.7189 32.0434 53.7415 31.9401C53.7608 31.8465 53.7027 31.756 53.6091 31.7334C53.5154 31.7141 53.425 31.7722 53.4024 31.8658C53.3959 31.8949 52.805 34.4493 50.1602 36.7776C51.5197 34.3233 51.0676 30.9778 51.045 30.8163C51.0321 30.7227 50.9417 30.6581 50.848 30.671C50.7544 30.6839 50.6866 30.7711 50.7027 30.868C50.7092 30.9035 51.1354 34.0553 49.9632 36.4094C49.989 36.2803 50.0117 36.1608 50.0278 36.0542C50.228 34.7754 49.9664 33.5709 49.6532 32.4633C49.5789 32.2017 49.5014 31.9433 49.4239 31.6818C49.0719 30.5063 48.7103 29.2889 48.7716 28.0359C48.7845 27.8034 48.8136 27.5031 48.9331 27.2447H48.9363ZM47.0439 33.4191L46.8663 33.2835C46.2625 32.8217 45.636 32.347 45.1516 31.7625C44.777 31.3136 44.5574 30.868 44.4928 30.4417C44.4185 29.938 44.5865 29.4374 44.9223 29.1629C45.2808 28.8691 45.8459 28.8788 46.1268 29.1855C46.185 29.2501 46.2818 29.2598 46.3529 29.2114C46.4239 29.1629 46.4465 29.0693 46.411 28.9918C46.1494 28.4589 46.3561 27.7453 46.8631 27.4353C47.3669 27.1253 48.0967 27.2609 48.4551 27.7324C48.4422 27.8325 48.4325 27.9293 48.4293 28.0165C48.3647 29.3309 48.7361 30.5741 49.0945 31.7786C49.172 32.037 49.2495 32.2953 49.3206 32.5537C49.6241 33.6258 49.876 34.7851 49.6855 35.9993C49.679 36.0478 49.6693 36.0962 49.6597 36.1511C49.6274 33.3642 47.5219 31.798 47.4993 31.7786C47.4218 31.7237 47.3152 31.7399 47.2571 31.8174C47.199 31.8949 47.2183 32.0015 47.2958 32.0596C47.3895 32.1274 49.2269 33.5031 49.3141 36.0025C49.214 35.741 49.0816 35.4794 48.9105 35.2275C48.4164 34.4977 47.7156 33.9326 47.0407 33.4191H47.0439ZM45.1968 45.7033C42.8685 45.2512 42.1936 43.9466 41.9998 43.3007C42.8556 43.8045 45.2291 45.0542 48.2162 45.361C48.7103 45.4127 49.2205 45.4353 49.7436 45.4256C49.1785 45.7679 47.8674 46.2232 45.1968 45.7033ZM49.8211 45.0768C46.2205 45.1672 43.2076 43.6075 42.2065 43.0198C44.5735 42.5644 47.9643 43.4783 49.8211 45.0768ZM59.8997 35.2889C59.0988 35.854 58.0687 36.1705 56.6607 36.2932C56.1699 36.3352 55.6661 36.3545 55.1785 36.3707C54.51 36.3933 53.8157 36.4191 53.1376 36.5063C52.3238 36.6129 51.4325 36.7517 50.5639 37.023C50.6284 36.981 50.693 36.9358 50.7608 36.8874C53.4605 35.3438 56.3636 35.3954 56.3959 35.3954C56.4928 35.3954 56.5703 35.3212 56.5736 35.2275C56.5736 35.1306 56.5025 35.0531 56.4056 35.0499C56.2991 35.0499 54.4196 35.0144 52.256 35.812C54.2065 34.3427 56.5865 32.2663 57.3518 30.2996C57.3906 30.1995 57.4293 30.0962 57.4648 29.9929C57.6618 29.5957 57.9686 29.347 58.3303 29.2953C58.6274 29.2501 58.918 29.347 59.1085 29.5537C59.2958 29.7571 59.3862 30.051 59.3572 30.3578C59.3281 30.6419 59.2022 30.8938 59.0052 31.0553C58.9858 31.0714 58.9632 31.0876 58.9438 31.1037C58.8728 31.1619 58.8599 31.2684 58.9148 31.3427C58.9729 31.417 59.0762 31.4331 59.1537 31.3782C59.1763 31.3621 59.1957 31.3459 59.2183 31.3298C59.6575 31.0133 60.3131 31.023 60.7393 31.3621C61.0396 31.601 61.2399 31.9853 61.3044 32.4471C61.4498 33.4676 60.8976 34.5817 59.8997 35.2856V35.2889Z" fill="url(#paint12_linear_64_595)"/>
</mask>
<g mask="url(#mask0_64_595)">
<rect y="0.59668" width="75.5651" height="81.0549" fill="#222222"/>
</g>
<defs>
<linearGradient id="paint0_linear_64_595" x1="9.69123" y1="17.0889" x2="15.2585" y2="11.5248" gradientUnits="userSpaceOnUse">
<stop stop-color="#AB8D60"/>
<stop offset="0.15" stop-color="#AB8D60"/>
<stop offset="0.37" stop-color="#C6AC7E"/>
<stop offset="0.61" stop-color="#E1CB9B"/>
<stop offset="0.72" stop-color="#EED9AB"/>
<stop offset="0.84" stop-color="#E1CB9B"/>
<stop offset="1" stop-color="#AB8D60"/>
</linearGradient>
<linearGradient id="paint1_linear_64_595" x1="21.5588" y1="9.6127" x2="27.0325" y2="4.13907" gradientUnits="userSpaceOnUse">
<stop stop-color="#AB8D60"/>
<stop offset="0.15" stop-color="#AB8D60"/>
<stop offset="0.37" stop-color="#C6AC7E"/>
<stop offset="0.61" stop-color="#E1CB9B"/>
<stop offset="0.72" stop-color="#EED9AB"/>
<stop offset="0.84" stop-color="#E1CB9B"/>
<stop offset="1" stop-color="#AB8D60"/>
</linearGradient>
<linearGradient id="paint2_linear_64_595" x1="33.8265" y1="7.41369" x2="38.8803" y2="2.35664" gradientUnits="userSpaceOnUse">
<stop stop-color="#AB8D60"/>
<stop offset="0.15" stop-color="#AB8D60"/>
<stop offset="0.37" stop-color="#C6AC7E"/>
<stop offset="0.61" stop-color="#E1CB9B"/>
<stop offset="0.72" stop-color="#EED9AB"/>
<stop offset="0.84" stop-color="#E1CB9B"/>
<stop offset="1" stop-color="#AB8D60"/>
</linearGradient>
<linearGradient id="paint3_linear_64_595" x1="46.1274" y1="9.33525" x2="52.4697" y2="2.98972" gradientUnits="userSpaceOnUse">
<stop stop-color="#AB8D60"/>
<stop offset="0.15" stop-color="#AB8D60"/>
<stop offset="0.37" stop-color="#C6AC7E"/>
<stop offset="0.61" stop-color="#E1CB9B"/>
<stop offset="0.72" stop-color="#EED9AB"/>
<stop offset="0.84" stop-color="#E1CB9B"/>
<stop offset="1" stop-color="#AB8D60"/>
</linearGradient>
<linearGradient id="paint4_linear_64_595" x1="58.6181" y1="15.6741" x2="64.3533" y2="9.93893" gradientUnits="userSpaceOnUse">
<stop stop-color="#AB8D60"/>
<stop offset="0.15" stop-color="#AB8D60"/>
<stop offset="0.37" stop-color="#C6AC7E"/>
<stop offset="0.61" stop-color="#E1CB9B"/>
<stop offset="0.72" stop-color="#EED9AB"/>
<stop offset="0.84" stop-color="#E1CB9B"/>
<stop offset="1" stop-color="#AB8D60"/>
</linearGradient>
<linearGradient id="paint5_linear_64_595" x1="10.0329" y1="69.2641" x2="16.4753" y2="62.8217" gradientUnits="userSpaceOnUse">
<stop stop-color="#AB8D60"/>
<stop offset="0.15" stop-color="#AB8D60"/>
<stop offset="0.37" stop-color="#C6AC7E"/>
<stop offset="0.61" stop-color="#E1CB9B"/>
<stop offset="0.72" stop-color="#EED9AB"/>
<stop offset="0.84" stop-color="#E1CB9B"/>
<stop offset="1" stop-color="#AB8D60"/>
</linearGradient>
<linearGradient id="paint6_linear_64_595" x1="20.0281" y1="77.5797" x2="25.999" y2="71.612" gradientUnits="userSpaceOnUse">
<stop stop-color="#AB8D60"/>
<stop offset="0.15" stop-color="#AB8D60"/>
<stop offset="0.37" stop-color="#C6AC7E"/>
<stop offset="0.61" stop-color="#E1CB9B"/>
<stop offset="0.72" stop-color="#EED9AB"/>
<stop offset="0.84" stop-color="#E1CB9B"/>
<stop offset="1" stop-color="#AB8D60"/>
</linearGradient>
<linearGradient id="paint7_linear_64_595" x1="33.3362" y1="82.1522" x2="41.6258" y2="73.8594" gradientUnits="userSpaceOnUse">
<stop stop-color="#AB8D60"/>
<stop offset="0.15" stop-color="#AB8D60"/>
<stop offset="0.37" stop-color="#C6AC7E"/>
<stop offset="0.61" stop-color="#E1CB9B"/>
<stop offset="0.72" stop-color="#EED9AB"/>
<stop offset="0.84" stop-color="#E1CB9B"/>
<stop offset="1" stop-color="#AB8D60"/>
</linearGradient>
<linearGradient id="paint8_linear_64_595" x1="49.0426" y1="76.9496" x2="54.0899" y2="71.9022" gradientUnits="userSpaceOnUse">
<stop stop-color="#AB8D60"/>
<stop offset="0.15" stop-color="#AB8D60"/>
<stop offset="0.37" stop-color="#C6AC7E"/>
<stop offset="0.61" stop-color="#E1CB9B"/>
<stop offset="0.72" stop-color="#EED9AB"/>
<stop offset="0.84" stop-color="#E1CB9B"/>
<stop offset="1" stop-color="#AB8D60"/>
</linearGradient>
<linearGradient id="paint9_linear_64_595" x1="59.5403" y1="68.0176" x2="63.3896" y2="64.1683" gradientUnits="userSpaceOnUse">
<stop stop-color="#AB8D60"/>
<stop offset="0.15" stop-color="#AB8D60"/>
<stop offset="0.37" stop-color="#C6AC7E"/>
<stop offset="0.61" stop-color="#E1CB9B"/>
<stop offset="0.72" stop-color="#EED9AB"/>
<stop offset="0.84" stop-color="#E1CB9B"/>
<stop offset="1" stop-color="#AB8D60"/>
</linearGradient>
<linearGradient id="paint10_linear_64_595" x1="72.8655" y1="40.4716" x2="75.0485" y2="38.2887" gradientUnits="userSpaceOnUse">
<stop stop-color="#AB8D60"/>
<stop offset="0.15" stop-color="#AB8D60"/>
<stop offset="0.37" stop-color="#C6AC7E"/>
<stop offset="0.61" stop-color="#E1CB9B"/>
<stop offset="0.72" stop-color="#EED9AB"/>
<stop offset="0.84" stop-color="#E1CB9B"/>
<stop offset="1" stop-color="#AB8D60"/>
</linearGradient>
<linearGradient id="paint11_linear_64_595" x1="0.616792" y1="40.4716" x2="2.79656" y2="38.2887" gradientUnits="userSpaceOnUse">
<stop stop-color="#AB8D60"/>
<stop offset="0.15" stop-color="#AB8D60"/>
<stop offset="0.37" stop-color="#C6AC7E"/>
<stop offset="0.61" stop-color="#E1CB9B"/>
<stop offset="0.72" stop-color="#EED9AB"/>
<stop offset="0.84" stop-color="#E1CB9B"/>
<stop offset="1" stop-color="#AB8D60"/>
</linearGradient>
<linearGradient id="paint12_linear_64_595" x1="21.0967" y1="61.5623" x2="56.3475" y2="26.3115" gradientUnits="userSpaceOnUse">
<stop stop-color="#AB8D60"/>
<stop offset="0.15" stop-color="#AB8D60"/>
<stop offset="0.37" stop-color="#C6AC7E"/>
<stop offset="0.61" stop-color="#E1CB9B"/>
<stop offset="0.72" stop-color="#EED9AB"/>
<stop offset="0.84" stop-color="#E1CB9B"/>
<stop offset="1" stop-color="#AB8D60"/>
</linearGradient>
</defs>
</svg>
