<svg width="65" height="33" viewBox="0 0 65 33" fill="none" xmlns="http://www.w3.org/2000/svg">
<path d="M5.84046 30.201C4.9168 30.201 4.45497 29.7365 4.45497 28.8076C4.45497 27.8462 5.31041 27.1171 7.02127 26.6202C11.5976 25.324 14.8671 23.7308 16.8299 21.8405C18.9711 19.7666 20.0417 16.9095 20.0417 13.2693C20.0417 11.3034 19.8633 9.75879 19.5064 8.63541C19.16 7.51204 18.7874 6.6155 18.3886 5.94579C18.0002 5.26529 17.5174 4.6766 16.9401 4.17972C15.712 3.14276 14.1586 2.62427 12.2798 2.62427C8.61668 2.62427 6.24981 4.54157 5.17921 8.37617C4.82234 9.68318 4.6439 11.2332 4.6439 13.0263C4.6439 17.239 5.70401 20.0042 7.82422 21.322C8.33853 21.646 8.94731 21.8621 9.65055 21.9701C9.87097 22.0349 10.0337 22.1915 10.1386 22.44C10.3275 22.8828 10.359 23.1745 10.2331 23.3149C9.97068 23.6066 9.43013 23.7416 8.61143 23.72C7.80323 23.6876 7.04226 23.5471 6.32853 23.2987C5.61479 23.0503 4.95879 22.7046 4.36051 22.2617C3.76223 21.8189 3.23218 21.3004 2.77035 20.7063C2.30852 20.1122 1.91492 19.4533 1.58954 18.7296C0.928284 17.2606 0.597656 15.6889 0.597656 14.0147C0.597656 12.3404 0.765594 10.8552 1.10147 9.55896C1.44784 8.25195 1.91492 7.09077 2.5027 6.07541C3.10098 5.04925 3.79897 4.16352 4.59667 3.4182C5.40487 2.66208 6.2708 2.04098 7.19446 1.55491C9.01028 0.582756 10.8209 0.0966797 12.6262 0.0966797C14.4315 0.0966797 16.0007 0.372123 17.3337 0.923009C18.6772 1.46309 19.8423 2.24622 20.8289 3.27238C22.9701 5.48672 24.0407 8.41398 24.0407 12.0541C24.0407 17.347 22.1304 21.376 18.3098 24.1412C16.7249 25.2754 14.8409 26.1828 12.6577 26.8633L14.1534 27.479C16.0532 28.2351 17.5121 28.6131 18.5303 28.6131C20.9339 28.6131 22.6027 28.0082 23.5369 26.7985C23.8938 26.7768 24.1614 26.8957 24.3398 27.1549C24.5183 27.4249 24.6075 27.776 24.6075 28.2081C24.6075 28.6401 24.4658 29.0992 24.1824 29.5853C23.899 30.0822 23.5002 30.5142 22.9858 30.8815C21.8733 31.6916 20.4878 32.0967 18.8294 32.0967C17.7798 32.0967 16.7512 31.8968 15.7435 31.4972C14.7359 31.1083 13.9435 30.7735 13.3662 30.4926L11.6658 29.7311C10.4168 29.1802 9.5141 28.9048 8.9578 28.9048C8.41201 28.9048 7.98167 28.9426 7.66678 29.0182C7.3519 29.0938 7.08425 29.191 6.86383 29.3098C6.58044 29.4611 6.23931 29.7581 5.84046 30.201Z" fill="#222222"/>
<path d="M33.5502 25.3726C33.3088 25.2862 32.7892 25.243 31.9915 25.243H25.4262C24.8804 25.243 24.4396 25.1566 24.1037 24.9838C23.7783 24.8001 23.6156 24.4707 23.6156 23.9954C23.6156 23.6606 23.6996 23.3851 23.8675 23.1691C24.2664 23.2771 24.639 23.3311 24.9854 23.3311C25.3317 23.3311 25.5994 23.2933 25.7883 23.2177C25.9772 23.1421 26.1399 23.0071 26.2764 22.8126C26.5703 22.413 26.7277 21.7379 26.7487 20.7873V4.0501C26.7172 3.29398 26.4758 2.8133 26.0245 2.60807C25.888 2.54326 25.6991 2.48385 25.4577 2.42984L24.702 2.26782C24.1772 2.1382 23.857 1.98157 23.7416 1.79795C23.6261 1.60352 23.5684 1.40908 23.5684 1.21465C23.5684 0.80419 23.6523 0.490941 23.8203 0.274908C24.0617 0.361321 24.5813 0.404528 25.379 0.404528H31.9443C32.4901 0.404528 32.9257 0.496342 33.251 0.679971C33.5764 0.852798 33.7391 1.17685 33.7391 1.65212C33.7391 2.01938 33.6604 2.29482 33.5029 2.47845C33.1041 2.37043 32.721 2.31643 32.3536 2.31643C31.9968 2.31643 31.7134 2.35963 31.5034 2.44605C31.304 2.52166 31.1256 2.65668 30.9681 2.85111C30.6533 3.26157 30.4853 3.93668 30.4643 4.87643V21.6136C30.4853 22.1429 30.585 22.4994 30.7635 22.683C31.0259 22.9314 31.346 23.0989 31.7239 23.1853C32.1017 23.2609 32.4114 23.3311 32.6528 23.3959C32.9047 23.4499 33.1146 23.5201 33.2825 23.6066C33.6184 23.7794 33.7863 24.071 33.7863 24.4815C33.7863 24.8812 33.7076 25.1782 33.5502 25.3726ZM46.5863 2.42984C46.3344 2.34343 46.0563 2.30022 45.7519 2.30022C45.4475 2.30022 45.2061 2.35963 45.0277 2.47845C44.8492 2.58647 44.6551 2.74309 44.4451 2.94833C44.2352 3.14276 44.0043 3.38039 43.7524 3.66124L35.4395 12.524C37.3603 13.0749 39.0239 14.4035 40.4304 16.5098C40.8292 17.1039 41.2018 17.6926 41.5482 18.2759L42.5086 19.961C43.5477 21.8081 44.5081 22.7046 45.3898 22.6506C45.8201 22.6506 46.156 22.5966 46.3974 22.4886C46.6493 22.3806 46.8278 22.3266 46.9327 22.3266C47.0377 22.3266 47.1479 22.413 47.2633 22.5858C47.3893 22.7478 47.4523 22.9368 47.4523 23.1529C47.4523 23.3689 47.3631 23.6282 47.1846 23.9306C47.0062 24.2222 46.7543 24.4869 46.4289 24.7245C45.6942 25.2754 44.8807 25.5509 43.9886 25.5509C43.1069 25.5509 42.3984 25.432 41.8631 25.1944C41.3383 24.9568 40.8555 24.5841 40.4146 24.0764C39.9843 23.5687 39.5854 22.9963 39.2181 22.359C38.8507 21.7109 38.4991 21.0574 38.1632 20.3985L37.1713 18.4379C36.0063 16.1588 34.7362 14.7924 33.3612 14.3387C33.1513 14.2739 32.9624 14.2577 32.7945 14.2901C32.6265 14.3117 32.4323 14.3387 32.2119 14.3711C32.086 14.3279 31.9915 14.1767 31.9285 13.9174C31.8656 13.6474 31.8341 13.4314 31.8341 13.2693C31.8341 13.0965 31.897 12.9507 32.023 12.8319L40.0053 3.72605C40.2677 3.4344 40.3989 3.19676 40.3989 3.01314C40.3989 2.62427 39.8059 2.34883 38.6198 2.18681C38.1055 2.122 37.7906 2.00858 37.6751 1.84655C37.5702 1.67373 37.5177 1.4793 37.5177 1.26326C37.5177 0.852798 37.6017 0.539549 37.7696 0.323515C37.9585 0.377524 38.137 0.404528 38.3049 0.404528H44.4294C45.563 0.404528 46.2924 0.561152 46.6178 0.874401C46.7648 1.01482 46.8382 1.18765 46.8382 1.39288C46.8382 1.88976 46.7543 2.23541 46.5863 2.42984Z" fill="#222222"/>
<path d="M62.2518 18.0329C62.5352 17.7844 62.8343 17.6602 63.1492 17.6602C63.632 17.6602 63.9102 17.7304 63.9836 17.8709C64.393 18.7134 64.5977 20.1068 64.5977 22.0511C64.5977 23.4013 64.4507 24.3789 64.1568 24.9838C64.0624 25.1566 63.9626 25.243 63.8577 25.243H46.4761C45.2271 25.243 44.6026 24.8595 44.6026 24.0926C44.6026 23.6822 44.6865 23.3689 44.8545 23.1529C45.2113 23.2609 45.5577 23.3149 45.8936 23.3149C46.2295 23.3149 46.5181 23.2879 46.7595 23.2339C47.0009 23.1799 47.2266 23.0665 47.4365 22.8936C47.9403 22.494 48.1922 21.8189 48.1922 20.8683V4.45516C48.1922 3.51541 47.8249 2.91592 47.0902 2.65668C46.8802 2.58107 46.6598 2.51626 46.4289 2.46225C46.2085 2.39744 45.9933 2.33803 45.7834 2.28402C45.584 2.21921 45.4055 2.149 45.2481 2.07339C44.8912 1.87896 44.7128 1.61432 44.7128 1.27946C44.7128 0.836595 44.7968 0.517946 44.9647 0.323515C45.1536 0.377524 45.3426 0.404528 45.5315 0.404528H61.6378C62.6034 0.404528 63.2069 0.496342 63.4483 0.679971C63.8892 1.00402 64.1096 1.71693 64.1096 2.81871C64.1096 3.87727 64.0204 4.74141 63.8419 5.41111C63.674 6.08081 63.5533 6.48048 63.4798 6.6101C63.3749 6.80453 63.1702 6.90174 62.8658 6.90174C62.425 6.90174 62.1206 6.84773 61.9526 6.73972C61.7952 6.6209 61.7112 6.53449 61.7007 6.48048C61.5643 4.93584 61.3281 3.95288 60.9922 3.53162C60.6564 3.09955 60.2575 2.8079 59.7957 2.65668C59.3444 2.49465 58.7513 2.41364 58.0166 2.41364H54.5056C53.3931 2.41364 52.7108 2.52706 52.4589 2.7539C52.2175 2.98073 52.0653 3.24537 52.0023 3.54782C51.9394 3.83946 51.9079 4.21752 51.9079 4.682V11.5843L52.8368 11.6005C55.1564 11.6005 57.3081 11.3898 59.2919 10.9686C59.4388 11.0442 59.57 11.2602 59.6855 11.6167C59.8009 11.9623 59.8587 12.308 59.8587 12.6536C59.8587 13.2369 59.7642 13.7446 59.5753 14.1767C58.8825 14.2415 58.0848 14.2739 57.1822 14.2739C56.2795 14.2739 54.5214 14.1227 51.9079 13.8202V21.1276C51.9079 21.9377 52.1178 22.4832 52.5376 22.764C52.8945 23.0017 53.5348 23.1205 54.4584 23.1205L56.8358 23.0557C59.1344 22.9693 60.6301 22.6398 61.3229 22.0673C61.7112 21.7433 61.9684 21.3166 62.0943 20.7873C62.2203 20.258 62.2833 19.7287 62.2833 19.1995C62.2833 18.6594 62.2728 18.2705 62.2518 18.0329Z" fill="#222222"/>
</svg>
