<svg width="31" height="49" viewBox="0 0 31 49" fill="none" xmlns="http://www.w3.org/2000/svg">
<mask id="mask0_64_636" style="mask-type:alpha" maskUnits="userSpaceOnUse" x="0" y="0" width="24" height="27">
<path d="M10.3674 26.6101C10.3674 26.6101 10.3791 26.5865 10.383 26.5786L10.2698 25.8813L10.1099 25.7198C9.6885 25.7198 9.28271 25.7001 8.90035 25.6607C8.51799 25.6213 8.20588 25.5071 7.96788 25.3219C7.75719 25.1367 7.55819 24.8964 7.37482 24.6009C7.19144 24.3094 7.07048 23.7854 7.01975 23.0409C6.99244 22.7217 6.97295 22.4184 6.96124 22.1387C6.94954 21.859 6.93392 21.5202 6.92221 21.1183C6.91051 20.7165 6.90271 20.2162 6.90271 19.6173V14.555C7.21874 14.2871 7.51136 14.0665 7.77667 13.8931C8.04199 13.7198 8.31901 13.5267 8.60773 13.314H8.76771C9.18909 13.9562 9.75093 14.7756 10.4532 15.7762C11.1516 16.7769 11.8422 17.7657 12.5133 18.7388C13.1883 19.7119 13.7891 20.5668 14.3158 21.2996C14.4563 21.4926 14.788 21.8747 14.8933 22.0205C15.658 21.3587 16.5398 20.8308 17.5386 20.7677C15.1118 17.8288 12.8879 14.8111 10.8668 11.7106L14.0388 8.42892C14.9362 7.52282 15.7048 6.70732 16.3369 5.98637C16.9729 5.26543 17.5191 4.63903 17.9834 4.10325C18.4438 3.5714 18.8418 3.13017 19.1734 2.78348C19.505 2.4368 19.8016 2.18467 20.0669 2.02315C20.4648 1.75525 20.9525 1.56221 21.5339 1.44403C22.1152 1.32584 22.5756 1.2234 22.9229 1.14461L23.0829 0.983088V0.262148L22.9229 0.100623C22.5522 0.155777 22.2362 0.195168 21.9709 0.218806C21.7056 0.246383 21.4598 0.273965 21.2374 0.297603C21.0111 0.32518 20.7887 0.337001 20.5624 0.337001H17.8078C16.5398 0.337001 15.3771 0.258203 14.3197 0.0966797L14.1208 0.258204V0.979156L14.3197 1.14068C14.5851 1.19584 14.8426 1.24704 15.0923 1.30219C15.342 1.35735 15.5683 1.43615 15.7673 1.54251C15.9663 1.64888 16.1301 1.79071 16.2628 1.96405C16.3954 2.1374 16.4617 2.36983 16.4617 2.6653C16.4617 3.03956 16.0794 3.72504 15.3108 4.7257C14.5421 5.72636 13.5941 6.80187 12.4548 7.94829C11.5028 8.90955 10.5196 9.81566 9.50122 10.6706C8.48289 11.5254 7.61671 12.1794 6.90271 12.6325V7.55039C6.90271 6.93581 6.91051 6.41579 6.92221 5.99032C6.93392 5.56484 6.94954 5.19058 6.96124 4.87147C6.97295 4.55237 6.99244 4.20568 7.01975 3.83142C7.07048 3.08289 7.19144 2.56287 7.37482 2.27134C7.55819 1.97981 7.75719 1.73949 7.96788 1.55039C8.20588 1.36523 8.51799 1.25099 8.90035 1.21159C9.28271 1.17219 9.6885 1.1525 10.1099 1.1525L10.2698 0.990974L10.3869 0.270023L10.3089 0.230636H0.675694L0.597656 0.270023L0.714701 0.990974L0.913689 1.1525C1.33507 1.1525 1.73303 1.17219 2.10369 1.21159C2.47434 1.25099 2.77868 1.36523 3.01668 1.55039C3.22737 1.73555 3.43414 1.98375 3.62922 2.29103C3.8282 2.59832 3.95307 3.11047 4.00769 3.83142C4.035 4.15052 4.05452 4.47357 4.06623 4.79268C4.07793 5.11178 4.08573 5.50181 4.08573 5.95486V20.0862C4.08573 20.6219 4.07793 21.075 4.06623 21.4453C4.05452 21.8196 4.0389 22.1348 4.0272 22.3869C4.01549 22.639 4.00769 22.8596 4.00769 23.0487C3.95307 23.7973 3.8282 24.3173 3.62922 24.6088C3.43024 24.9043 3.22737 25.1446 3.01668 25.3298C2.77868 25.5149 2.47434 25.6292 2.10369 25.6686C1.73303 25.708 1.33507 25.7277 0.913689 25.7277L0.714701 25.8892L0.597656 26.6101L0.675694 26.6495H10.3089L10.3713 26.618L10.3674 26.6101Z" fill="url(#paint0_linear_64_636)"/>
</mask>
<g mask="url(#mask0_64_636)">
<rect x="0.597656" y="0.0966797" width="30.0427" height="48.063" fill="#222222"/>
</g>
<mask id="mask1_64_636" style="mask-type:alpha" maskUnits="userSpaceOnUse" x="17" y="23" width="9" height="4">
<path d="M25.3306 25.8813L25.0925 25.7198C24.1952 25.6134 23.4265 25.4518 22.7945 25.2391C22.1585 25.0264 21.585 24.7467 21.0699 24.4C20.7734 24.1991 20.4886 23.9706 20.2155 23.7263C19.123 23.8287 18.0735 24.3133 17.4453 25.1446C17.8043 25.5109 18.0384 25.7079 18.3739 25.9601C18.8343 26.3067 19.3181 26.5549 19.8214 26.7007C20.3247 26.8465 20.9178 26.9213 21.6045 26.9213C22.0258 26.9213 22.6072 26.8937 23.3485 26.8425C24.0898 26.7874 24.7492 26.7637 25.3306 26.7637L25.4086 26.6022L25.3306 25.8813Z" fill="url(#paint1_linear_64_636)"/>
</mask>
<g mask="url(#mask1_64_636)">
<rect x="0.597656" y="0.0966797" width="30.0427" height="48.063" fill="#222222"/>
</g>
<mask id="mask2_64_636" style="mask-type:alpha" maskUnits="userSpaceOnUse" x="12" y="21" width="19" height="28">
<path d="M16.0489 27.3271C16.0489 28.0756 16.1815 28.6942 16.4468 29.1866C16.7121 29.6791 17.114 30.1124 17.6563 30.4867C18.1987 30.8609 18.8854 31.1998 19.7164 31.507C20.5475 31.8143 21.5346 32.1413 22.67 32.488C23.6493 32.8071 24.613 33.1695 25.565 33.5674C26.517 33.9693 27.3675 34.4814 28.1206 35.1078C28.8736 35.7342 29.4744 36.4946 29.9231 37.3889C30.3718 38.2831 30.5981 39.3705 30.5981 40.6508C30.5981 42.01 30.3328 43.1682 29.8061 44.1137C29.2754 45.0632 28.577 45.8274 27.7031 46.4144C26.833 47.0014 25.8186 47.4269 24.6715 47.6948C23.5205 47.9627 22.311 48.0967 21.043 48.0967C19.4043 48.0967 17.9099 47.9115 16.5639 47.5372C15.2178 47.163 14.0005 46.6981 12.9158 46.1347L12.7559 45.6147L13.4309 41.3324H14.4219L14.6209 41.5727C14.7535 43.1997 15.4012 44.3934 16.5639 45.1538C17.7266 45.9141 19.3106 46.2963 21.32 46.2963C23.3293 46.2963 24.9329 45.8235 25.9786 44.8741C27.0242 43.9286 27.5431 42.6915 27.5431 41.1709C27.5431 40.2372 27.3441 39.4571 26.9501 38.8307C26.5521 38.2043 26.0293 37.6686 25.3855 37.2313C24.7378 36.79 23.9965 36.4237 23.1655 36.1321C22.3344 35.8406 21.4956 35.5451 20.6489 35.2497C19.5916 34.903 18.6083 34.5248 17.6954 34.1072C16.7824 33.6935 15.9903 33.205 15.3153 32.6456C14.6404 32.0861 14.1136 31.4204 13.7313 30.6443C13.3489 29.8721 13.1577 28.9502 13.1577 27.8826C13.1577 26.6298 13.3762 25.5661 13.8132 24.6994C14.2502 23.8327 14.8511 23.1236 15.6158 22.5799C16.3805 22.0323 17.274 21.6384 18.2923 21.398C19.3106 21.1577 20.4148 21.0396 21.6009 21.0396C23.0289 21.0396 24.375 21.1735 25.643 21.4414C26.9111 21.7093 27.9411 22.0284 28.737 22.4026L28.897 22.8439L28.3429 26.4053H27.2349L27.0359 26.2043C26.9813 25.511 26.7589 24.9516 26.3609 24.5221C25.9629 24.0967 25.4947 23.7618 24.9524 23.5215C24.4101 23.2812 23.8288 23.1196 23.2084 23.0408C22.588 22.9621 22.0379 22.9227 21.5619 22.9227C19.8452 22.9227 18.4952 23.3048 17.5198 24.0652C16.5405 24.8255 16.0528 25.9128 16.0528 27.3271H16.0489Z" fill="url(#paint2_linear_64_636)"/>
</mask>
<g mask="url(#mask2_64_636)">
<rect x="0.597656" y="0.0966797" width="30.0427" height="48.063" fill="#222222"/>
</g>
<defs>
<linearGradient id="paint0_linear_64_636" x1="-3.13622" y1="22.836" x2="21.3788" y2="-1.44676" gradientUnits="userSpaceOnUse">
<stop stop-color="#AB8D60"/>
<stop offset="0.15" stop-color="#AB8D60"/>
<stop offset="0.37" stop-color="#C6AC7E"/>
<stop offset="0.61" stop-color="#E1CB9B"/>
<stop offset="0.72" stop-color="#EED9AB"/>
<stop offset="0.84" stop-color="#E1CB9B"/>
<stop offset="1" stop-color="#AB8D60"/>
</linearGradient>
<linearGradient id="paint1_linear_64_636" x1="19.8058" y1="27.532" x2="23.4222" y2="23.9504" gradientUnits="userSpaceOnUse">
<stop stop-color="#AB8D60"/>
<stop offset="0.15" stop-color="#AB8D60"/>
<stop offset="0.37" stop-color="#C6AC7E"/>
<stop offset="0.61" stop-color="#E1CB9B"/>
<stop offset="0.72" stop-color="#EED9AB"/>
<stop offset="0.84" stop-color="#E1CB9B"/>
<stop offset="1" stop-color="#AB8D60"/>
</linearGradient>
<linearGradient id="paint2_linear_64_636" x1="11.5424" y1="44.7519" x2="31.3971" y2="25.0885" gradientUnits="userSpaceOnUse">
<stop stop-color="#AB8D60"/>
<stop offset="0.15" stop-color="#AB8D60"/>
<stop offset="0.37" stop-color="#C6AC7E"/>
<stop offset="0.61" stop-color="#E1CB9B"/>
<stop offset="0.72" stop-color="#EED9AB"/>
<stop offset="0.84" stop-color="#E1CB9B"/>
<stop offset="1" stop-color="#AB8D60"/>
</linearGradient>
</defs>
</svg>
