<svg width="145" height="49" viewBox="0 0 145 49" fill="none" xmlns="http://www.w3.org/2000/svg">
<mask id="mask0_64_646" style="mask-type:alpha" maskUnits="userSpaceOnUse" x="0" y="0" width="145" height="49">
<path d="M144.541 33.3257C144.431 33.0959 144.161 32.9993 143.932 33.1051C138.596 35.6381 134.361 33.7119 129.452 31.4776C128.21 30.9122 126.921 30.3283 125.583 29.8042C119.024 27.2343 112.015 24.784 104.823 25.5058C99.6118 26.0253 94.9181 28.2182 91.6132 31.6707C91.2098 32.0936 90.8248 32.535 90.4489 32.9671C89.711 33.8176 89.0097 34.6221 88.1708 35.2933C86.7682 36.4105 85.1685 36.8518 83.8942 36.4656C82.7712 36.13 81.992 35.2749 81.7491 34.121C82.7621 33.6061 83.6284 32.6591 84.1234 31.473C84.3801 30.8524 84.3251 30.3099 83.9722 29.9789C83.7201 29.7444 83.335 29.6617 82.9683 29.7582C82.675 29.8364 82.4412 30.0111 82.2716 30.1536C81.2724 30.9949 80.7269 32.2408 80.759 33.528C80.6215 33.5648 80.4794 33.5924 80.3327 33.6107C79.2693 33.7303 78.1875 33.3303 77.7062 32.6315C77.3029 32.0523 77.3258 31.2891 77.7704 30.4064C77.9125 30.0938 78.0729 29.6433 77.83 29.3031C77.6925 29.1146 77.4633 29.0181 77.202 29.0457C76.1157 29.156 73.2463 31.7489 72.0225 34.498C71.9995 34.5532 71.9766 34.59 71.9583 34.6175C71.5503 34.3279 70.8261 32.6545 70.7115 32.1212C70.6382 31.7764 70.5832 31.4362 70.5557 31.1006C71.2478 30.4202 71.9858 29.3583 72.0866 28.2917C72.1462 27.6849 71.9262 27.2206 71.5045 27.0505C70.9819 26.839 70.4227 27.17 70.1156 27.8734C69.7535 28.7055 69.5885 29.6847 69.6206 30.7191C69.098 31.2018 68.328 31.588 67.5212 31.7764C68.1309 30.6685 68.5663 29.487 68.6809 28.586C68.823 27.4137 68.5938 26.5402 67.9934 25.9931C67.2646 25.3173 66.2149 25.3633 65.4723 25.6299C64.6152 25.9379 63.8772 26.5678 63.4326 27.3723C62.9696 27.901 62.4883 28.8066 62.1171 29.8226C61.2737 31.3673 58.3538 35.6335 55.0627 39.6147C51.1528 44.3453 48.0955 47.0301 46.4591 47.1726C46.1016 47.2094 45.8449 47.1037 45.6478 46.8554C44.9603 45.9911 45.0657 44.5798 45.2857 43.1822C46.1291 37.7667 48.9252 32.3695 51.3912 27.6113L51.4829 27.432C52.2758 25.9012 53.0917 24.3887 53.9214 22.8992C59.4493 20.0581 64.5969 16.3389 67.425 12.7438C69.6206 9.95329 71.8941 7.06623 72.3571 3.25511C72.4304 2.67126 72.4717 1.98627 72.2379 1.34265C71.9124 0.432399 71.3349 0.170359 70.9086 0.110595C68.603 -0.206615 64.4364 4.96069 61.347 9.35107L61.3149 9.39703C58.4822 13.4196 55.7778 17.7227 53.243 22.2326C48.0726 24.8576 42.5905 26.6827 38.4514 26.8528C34.1381 27.0275 29.3619 25.8966 24.7415 24.8024C15.9775 22.7291 6.92008 20.5821 0.718331 27.3631C0.548734 27.5516 0.557901 27.8412 0.745833 28.0113C0.933765 28.1814 1.22254 28.1722 1.39214 27.9837C7.23178 21.5981 15.6337 23.5887 24.5307 25.6943C29.2106 26.8022 34.0465 27.9515 38.4881 27.7676C42.4209 27.6067 47.5317 25.9885 52.4775 23.6163C51.8633 24.7335 51.2629 25.8644 50.6716 27.0045L50.5799 27.1838C48.0818 32.0063 45.249 37.4724 44.3827 43.0397C44.2131 44.1201 43.9014 46.1291 44.9373 47.4301C45.2857 47.8668 45.7716 48.0967 46.3445 48.0967C46.4087 48.0967 46.4775 48.0967 46.5416 48.0875C50.3553 47.7519 58.1567 37.5 61.5166 32.4982C61.4799 33.0683 61.5166 33.5969 61.6587 34.0337C61.8833 34.7187 62.3371 35.1462 62.9696 35.2749C63.1117 35.3025 63.2492 35.3163 63.3959 35.3163C64.5327 35.3163 65.7794 34.4244 66.8933 32.8016C67.8971 32.7189 68.9285 32.3465 69.7306 31.7994C69.7581 31.9695 69.7856 32.1396 69.8269 32.3097C69.8314 32.3419 70.7207 35.4312 71.9216 35.5508C72.1508 35.5738 72.5771 35.514 72.8704 34.8612C73.8513 32.6637 75.9232 30.7099 76.8903 30.126C76.2165 31.5558 76.5557 32.5534 76.9637 33.1464C77.6421 34.1256 79.0447 34.6727 80.4473 34.5164C80.5986 34.498 80.7452 34.4704 80.8919 34.4382C81.2357 35.845 82.2487 36.9208 83.6376 37.3391C84.0363 37.4586 84.4535 37.5184 84.8797 37.5184C86.1494 37.5184 87.5016 36.9943 88.7484 36.0059C89.6514 35.2842 90.4123 34.4107 91.1457 33.5648C91.5124 33.1418 91.8928 32.7097 92.2778 32.3005C95.4314 29.0043 99.9235 26.9126 104.92 26.4115C111.91 25.7081 118.799 28.1216 125.258 30.6547C126.578 31.1696 127.852 31.7488 129.085 32.3097C133.99 34.5394 138.619 36.6449 144.335 33.928C144.564 33.8176 144.66 33.5464 144.555 33.3165L144.541 33.3257ZM62.0621 9.93031L62.0941 9.88434C66.7054 3.33326 69.5289 1.01625 70.6794 1.01625C70.7161 1.01625 70.7482 1.01624 70.7849 1.02084C70.9499 1.04383 71.1882 1.13119 71.3762 1.65068C71.5412 2.115 71.5045 2.66207 71.4495 3.14018C71.014 6.69385 68.9239 9.35566 66.7054 12.1738C64.1522 15.4148 59.6694 18.7662 54.7465 21.4464C57.0567 17.4146 59.5089 13.5575 62.0621 9.93031ZM63.1484 34.3785C62.9559 34.3417 62.6809 34.2314 62.525 33.7533C62.2454 32.8982 62.5067 31.473 62.9513 30.2088C63.1713 31.142 63.8405 31.9006 64.9773 32.5028C65.2111 32.6269 65.4815 32.7143 65.7794 32.7694C64.8627 33.9417 63.9047 34.5394 63.1484 34.3785ZM66.3845 31.9052C65.9995 31.896 65.6603 31.8224 65.4082 31.6891C63.8222 30.8478 63.4418 29.818 64.0972 28.1216C64.1293 28.0297 64.1706 27.9469 64.2118 27.8642C64.2118 27.8642 64.2164 27.855 64.221 27.8504C64.5556 27.2252 65.124 26.7332 65.784 26.4988C66.2516 26.3333 66.9483 26.2781 67.3792 26.6735C67.8375 27.0918 67.8467 27.8872 67.7779 28.4756C67.6634 29.4043 67.1133 30.7558 66.3891 31.9052H66.3845ZM70.959 28.2412C71.0232 28.094 71.1057 27.9883 71.1653 27.9377C71.1791 27.9929 71.1882 28.0802 71.1791 28.1998C71.1332 28.6917 70.8903 29.1974 70.5878 29.6433C70.6519 29.1376 70.7803 28.6641 70.9636 28.2366L70.959 28.2412ZM82.8675 30.857C82.9638 30.7742 83.0921 30.6777 83.2113 30.6455C83.2388 30.6409 83.2617 30.6363 83.28 30.6363C83.3167 30.6363 83.3442 30.6455 83.3534 30.6501C83.3855 30.6777 83.3946 30.8478 83.2846 31.119C83.0004 31.804 82.455 32.5902 81.6987 33.1005C81.7812 32.2362 82.1937 31.4317 82.8675 30.8616V30.857Z" fill="url(#paint0_linear_64_646)"/>
</mask>
<g mask="url(#mask0_64_646)">
<rect x="0.597656" y="0.0966797" width="143.928" height="47.8114" fill="#222222"/>
</g>
<defs>
<linearGradient id="paint0_linear_64_646" x1="37.9472" y1="65.3364" x2="107.425" y2="-3.93688" gradientUnits="userSpaceOnUse">
<stop stop-color="#AB8D60"/>
<stop offset="0.15" stop-color="#AB8D60"/>
<stop offset="0.37" stop-color="#C6AC7E"/>
<stop offset="0.61" stop-color="#E1CB9B"/>
<stop offset="0.72" stop-color="#EED9AB"/>
<stop offset="0.84" stop-color="#E1CB9B"/>
<stop offset="1" stop-color="#AB8D60"/>
</linearGradient>
</defs>
</svg>
