<svg width="120" height="25" viewBox="0 0 120 25" fill="none" xmlns="http://www.w3.org/2000/svg">
<g id="Stars">
<path id="Star 1" d="M12 0.59668L14.6942 8.88848H23.4127L16.3593 14.0131L19.0534 22.3049L12 17.1803L4.94658 22.3049L7.64074 14.0131L0.587322 8.88848H9.30583L12 0.59668Z" fill="#56704E"/>
<path id="Star 2" d="M36 0.59668L38.6942 8.88848H47.4127L40.3593 14.0131L43.0534 22.3049L36 17.1803L28.9466 22.3049L31.6407 14.0131L24.5873 8.88848H33.3058L36 0.59668Z" fill="#56704E"/>
<path id="Star 3" d="M60 0.59668L62.6942 8.88848H71.4127L64.3593 14.0131L67.0534 22.3049L60 17.1803L52.9466 22.3049L55.6407 14.0131L48.5873 8.88848H57.3058L60 0.59668Z" fill="#56704E"/>
<path id="Star 4" d="M84 0.59668L86.6942 8.88848H95.4127L88.3593 14.0131L91.0534 22.3049L84 17.1803L76.9466 22.3049L79.6407 14.0131L72.5873 8.88848H81.3058L84 0.59668Z" fill="#56704E"/>
<path id="Star 5" d="M108 0.59668L110.694 8.88848H119.413L112.359 14.0131L115.053 22.3049L108 17.1803L100.947 22.3049L103.641 14.0131L96.5873 8.88848H105.306L108 0.59668Z" fill="#56704E"/>
</g>
</svg>
